<svg xmlns="http://www.w3.org/2000/svg" xmlns:xlink="http://www.w3.org/1999/xlink" width="24px" height="24px" viewBox="0 0 24 24"><g fill="none" fill-rule="evenodd"><g fill-rule="nonzero" transform="translate(12.000000, 12.000000) scale(-1, 1) translate(-12.000000, -12.000000) translate(3.500000, 3.500000)"><path fill="#FC6E51" d="M15.5143398,9.6643173 C16.0818808,8.53238957 16.5119609,7.28757121 16.75783,6.06430168 C17.2293808,3.71713957 16.9974902,1.66355949 16.1664159,0.832485273 C15.335873,0.00167667905 13.2820273,-0.230446368 10.9350976,0.241104413 C9.71133001,0.487006757 8.46681048,0.917053632 7.33481633,1.4851259 C6.04099016,2.1343798 4.89349016,2.95506144 3.92442376,3.92439348 C2.9548261,4.89345988 2.13414446,6.04099309 1.48515618,7.33505168 C0.917117116,8.46674699 0.487037038,9.71153215 0.241134694,10.9353329 C-0.230382884,13.2822294 0.00150774085,15.3360087 0.832548756,16.1666181 C1.66362298,16.9976591 3.71693743,17.2295829 6.06436516,16.7579989 C7.28763469,16.5120966 8.53215423,16.0820829 9.66411516,15.5145087 C10.9579413,14.8650224 12.1054413,14.0443075 13.075039,13.0752411 C14.0441386,12.1056435 14.8648202,10.9581435 15.5143398,9.6643173 Z"/><path fill="#E9573F" d="M5.4740136,11.5251532 C5.33552337,11.3871611 5.33552337,11.1625087 5.4740136,11.0245497 L10.9828437,5.5151884 C11.1213671,5.37693059 11.3454882,5.37693059 11.4840116,5.5151884 C11.6219706,5.65367863 11.6219706,5.87779973 11.4840116,6.01605754 L5.97465032,11.52512 C5.83662493,11.6636435 5.61253704,11.6636435 5.4740136,11.5251532 Z"/><path fill="#E6E9ED" d="M7.47752337 11.0245497L5.97465032 9.52217473C5.83665813 9.38365129 5.83665813 9.15953019 5.97465032 9.02103996 6.11314055 8.88278215 6.33726165 8.88278215 6.47578508 9.02103996L7.97816008 10.5233818C8.11668352 10.6619052 8.11668352 10.8860263 7.97816008 11.0245497 7.83960344 11.1625087 7.61548235 11.1625087 7.47752337 11.0245497zM8.97989837 9.52217473L7.47752337 8.01930168C7.33899993 7.88104387 7.33899993 7.65692277 7.47752337 7.51843254 7.61551555 7.38017473 7.83963665 7.38017473 7.97812688 7.51843254L9.48046868 9.02103996C9.61899212 9.15953019 9.61899212 9.38365129 9.48046868 9.52217473 9.34250969 9.66016691 9.11785735 9.66016691 8.97989837 9.52217473zM8.97989837 6.51695988C8.84137493 6.37870207 8.84137493 6.15434855 8.97989837 6.01609074 9.11785735 5.87783293 9.34250969 5.87783293 9.48046868 6.01609074L10.9828437 7.51843254C11.1213671 7.65695598 11.1213671 7.88107707 10.9828437 8.01930168 10.8448515 8.15755949 10.6207636 8.15755949 10.4822402 8.01930168L8.97989837 6.51695988zM.821658131 8.87630754C.575755788 9.55331926.379160085 10.2474306.241167897 10.9353329.19083196 11.1853525.148830006 11.4323173.114066335 11.6745673L5.32459954 16.8851337C5.56738079 16.85037 5.81378118 16.8083681 6.06436516 16.7580321 6.75173626 16.62004 7.44584758 16.4234443 8.1228593 16.1775419L.821658131 8.87630754zM16.1773066 8.12309465C16.4237402 7.44585051 16.6198046 6.75173918 16.7577968 6.06436809 16.8081327 5.81404973 16.8506327 5.56738371 16.8848652 5.32513371L11.6743652.114268476C11.4321152.148766523 11.1851835.191034101 10.9350976.241370038 10.2477597.379362226 9.55308391.575725507 8.8761054.822125898L16.1773066 8.12309465z"/><path fill="#080808" d="M15.5143398,9.6643173 C16.0818808,8.53238957 16.5119609,7.28757121 16.75783,6.06430168 C17.2293808,3.71713957 16.9974902,1.66355949 16.1664159,0.832485273 C16.085998,0.751801679 15.9936601,0.676829023 15.8904316,0.607600507 C16.5347714,1.56448137 16.683123,3.44424309 16.2572265,5.56343254 C16.0113241,6.78670207 15.5812773,8.03148723 15.013205,9.16314934 C14.3636855,10.4574736 13.5430038,11.60504 12.5739374,12.5740732 C11.6048378,13.5431728 10.4573378,14.3638212 9.1630136,15.0133407 C8.03158391,15.5813798 6.78653313,16.0114931 5.5632636,16.2573622 C3.44407415,16.6832587 1.56457805,16.5354052 0.607431569,15.8906005 C0.676958913,15.993829 0.752163991,16.0862001 0.83258196,16.1665849 C1.66365618,16.9976259 3.71697063,17.2295497 6.06439837,16.7579657 C7.2876679,16.5120634 8.53218743,16.0820497 9.66414837,15.5144755 C10.9579745,14.8649892 12.1054745,14.0442743 13.0750722,13.0752079 C14.0441386,12.1056435 14.8648202,10.9581435 15.5143398,9.6643173 Z" opacity="0.1"/></g></g></svg>