<svg xmlns="http://www.w3.org/2000/svg" xmlns:xlink="http://www.w3.org/1999/xlink" width="24px" height="24px" viewBox="0 0 24 24"><g fill="none" fill-rule="evenodd"><g fill-rule="nonzero" transform="translate(2.455000, 5.000000)"><path fill="#A5C3DC" d="M0 5.09090909L0 10.8501591C0 12.5897784 1.41022159 14 3.14984091 14 3.98522727 14 4.78640909 13.6681364 5.37711364 13.0774318L8.38190341 10.072642C8.71945455 9.73509091 8.90909091 9.27726705 8.90909091 8.79991477L8.90909091 5.09090909 0 5.09090909zM19.0909091 5.09090909L19.0909091 10.8501591C19.0909091 12.5897784 17.6806875 14 15.9410682 14 15.1056818 14 14.3045 13.6681364 13.7137955 13.0774318L10.7090057 10.072642C10.3714545 9.73509091 10.1818182 9.27726705 10.1818182 8.79991477L10.1818182 5.09090909 19.0909091 5.09090909z"/><path fill="#D7E6F0" d="M14.6363636,0.636363636 L4.45454545,0.636363636 C1.99436364,0.636363636 0,2.63072727 0,5.09090909 L0,10.0274205 C0,11.5185 1.20877273,12.7272727 2.69985227,12.7272727 C3.41588068,12.7272727 4.10263636,12.4428182 4.60894318,11.9365114 L6.4728125,10.072642 C6.47436364,10.0710909 6.475875,10.0695795 6.47742614,10.0680284 C6.80344318,9.73958523 7.24058523,9.54545455 7.70338068,9.54545455 L11.3875682,9.54545455 C11.8503239,9.54545455 12.2875057,9.73958523 12.6135227,10.0680284 C12.6150739,10.0695795 12.6165852,10.0711307 12.6181364,10.072642 L14.4820057,11.9365114 C14.9883125,12.4428182 15.6750284,12.7272727 16.3910966,12.7272727 C17.8821761,12.7272727 19.0909489,11.5185 19.0909489,10.0274205 L19.0909489,5.09090909 C19.0909489,2.63072727 17.0965455,0.636363636 14.6363636,0.636363636 Z"/><path fill="#A5C3DC" d="M10.9958864,2.54545455 L8.09502273,2.54545455 C7.82110795,2.54545455 7.5779375,2.37017614 7.4913125,2.11034091 L7,0.636363636 L12.0909091,0.636363636 L11.5995966,2.11034091 C11.5129716,2.37017614 11.2698011,2.54545455 10.9958864,2.54545455 Z"/><g transform="translate(1.045000, 3.102273)"><circle cx="2.78409091" cy="2.78409091" r="2.78409091" fill="#A5C3DC"/><path fill="#555A6E" d="M4.44802024,1.95212624 L3.61605558,1.95212624 L3.61605558,1.12016158 C3.61605558,0.813859919 3.36771412,0.565518466 3.06141246,0.565518466 L2.50676935,0.565518466 C2.2004677,0.565518466 1.95212624,0.813859919 1.95212624,1.12016158 L1.95212624,1.95212624 L1.12016158,1.95212624 C0.813859919,1.95212624 0.565518466,2.2004677 0.565518466,2.50676935 L0.565518466,3.06141246 C0.565518466,3.36771412 0.813859919,3.61605558 1.12016158,3.61605558 L1.95212624,3.61605558 L1.95212624,4.44802024 C1.95212624,4.7543219 2.2004677,5.00266335 2.50676935,5.00266335 L3.06141246,5.00266335 C3.36771412,5.00266335 3.61605558,4.7543219 3.61605558,4.44802024 L3.61605558,3.61605558 L4.44802024,3.61605558 C4.7543219,3.61605558 5.00266335,3.36771412 5.00266335,3.06141246 L5.00266335,2.50676935 C5.00266335,2.2004677 4.7543219,1.95212624 4.44802024,1.95212624 Z"/></g><g transform="translate(12.205000, 3.102273)"><circle cx="2.8253367" cy="0.928030303" r="1" fill="#00D2D2"/><circle cx="2.8253367" cy="4.64015152" r="1" fill="#00D2D2"/><circle cx="0.928030303" cy="2.78409091" r="1" fill="#FF6E91"/><circle cx="4.68139731" cy="2.78409091" r="1" fill="#FF6E91"/></g><path fill="#555A6E" d="M6.36363636 0L5.09090909 0C4.7394375 0 4.45454545.284892045 4.45454545.636363636L7 .636363636C7 .284892045 6.71510795 0 6.36363636 0zM14 0L12.7272727 0C12.3758011 0 12.0909091.284892045 12.0909091.636363636L14.6363636.636363636C14.6363636.284892045 14.3514716 0 14 0z"/></g></g></svg>