<svg xmlns="http://www.w3.org/2000/svg" xmlns:xlink="http://www.w3.org/1999/xlink" width="24px" height="24px" viewBox="0 0 24 24"><g fill="none" fill-rule="evenodd"><g fill-rule="nonzero" transform="translate(3.000000, 3.000000)"><path fill="#E2E3E4" d="M1.59,14.0325 C1.59,14.0325 3,16.1275 5.25,17.03 C7.5,17.9325 10.1875,18.6075 13.8025,16.4475 C14.8775,15.83 16.0525,14.1575 16.0525,14.1575 L15.5525,12.9425 L16.65,8.6025 L16.0775,3.925 C16.0775,3.925 14.6775,1.1775 10.455,0.3825 C6.2325,-0.4125 2.92,2.7875 2.92,2.7875 L1.59,14.0325 Z"/><path fill="#8B8F91" d="M16.06,14.16 C16.06,14.16 15.615,12.455 8.6475,12.41 C8.6475,12.41 7.3225,14.32 6.0075,14.895 C4.6925,15.47 2.98,15.395 1.535,13.8725 C0.385,11.68 -0.415,8.445 1.0175,5.45 C2.45,2.455 5.2125,0.9125 7.25,1.2275 C7.97860892,1.4320313 8.61928122,1.87144988 9.0725,2.4775 C11.496475,2.25697915 13.9316038,2.75705023 16.0725,3.915 C17.5,5.5 19.0675,10.3525 16.06,14.16 Z"/><path fill="#D0D5D9" d="M17.445 10.7175C17.4225 10.8175 14.7425 9.5975 12.215 9.26 10.5271663 9.01742815 8.85695357 8.66501326 7.215 8.205 7.215 8.205 7.215 5.955 7.445 5.455 8.1075 5.205 12.15 5.1075 14.83 5.64 16.24 5.8575 17.2125 6.6525 17.43 7.195 17.6475 7.7375 17.7925 9.1325 17.445 10.7175zM5.9025 14.825C5.9025 14.825 3.865 10.3075 4.4025 6.325 4.6875 3.6325 5.335 2.3 6.335 1.15 5.2275 1.215 3.7375 2.0225 3.7375 2.0225 3.7375 2.0225 1.0125 4.3275 1.25 8.7875 1.41 12.4575 4.0575 15.15 4.0575 15.15 4.0575 15.15 5.22 15.14 5.9025 14.825zM4.9575 16.8975C4.9575 16.8975 8.505 18.3975 12.7425 12.6475 13.36 12.6475 14.685 13.115 14.62 13.2025 13.9981118 15.3058287 12.4012312 16.9808783 10.33 17.7025 8.6375 18.1275 6.12 17.6475 4.9575 16.8975zM15 3.4225C15 3.4225 14.73 1.8475 12.7225 1.0325 10.715.2175 9.7225.25 9.7225.25 11.0332773.781287344 12.1925886 1.62801392 13.0975 2.715 13.8125 2.955 15 3.4225 15 3.4225z"/><path fill="#646464" d="M8.55,12.375 C8.55,12.375 5.48,6.935 9.065,2.4875 L8.815,2.2925 C8.815,2.2925 6.815,4.735 7.0425,8.0425 C7.27,11.35 8.55,12.375 8.55,12.375 Z"/></g></g></svg>