<svg xmlns="http://www.w3.org/2000/svg" xmlns:xlink="http://www.w3.org/1999/xlink" width="24px" height="24px" viewBox="0 0 24 24"><g fill="none" fill-rule="evenodd"><g fill-rule="nonzero" transform="translate(2.000000, 4.222222)"><path fill="#C0392B" d="M10.9465296,5.69640237 C11.1478209,7.29625279 10.7620125,8.12817501 10.1044609,10 C7.85335298,8.67212415 8.14858024,8.29455945 8.14858024,8.29455945 C8.14858024,8.29455945 7.78290101,5.07566041 8.19890307,4.05495584 L8.19890307,4.01655943 C9.02755234,2.21512786 10.2017517,4.40052353 10.9465296,5.69640237 Z"/><path fill="#E74C3C" d="M7.42488068,2.97950073 C7.33315627,3.17632722 7.29198694,3.39549217 7.30555346,3.61473932 C7.30555346,4.36432086 7.60387151,5.96512211 9,9.51610583 L3.63027505,12.2222222 C3.63027505,12.2222222 -0.206095107,7.5881567 0.00869389072,5.61256469 C0.11608839,4.6597068 1.22583155,3.45592967 2.59809459,2.52530514 C4.08968485,1.50257101 5.92434088,0.826041908 7.07286538,1.22941841 C7.65756876,1.44539953 7.76496326,2.28709067 7.42488068,2.97950073 Z"/><path fill="#C0392B" d="M9.69573405,8.88888889 L9.86996396,9.38883606 L10.9185112,12.3920901 L10.9755319,12.5527874 C11.0419134,12.7322813 10.9686857,12.9386535 10.8108055,13.0170241 L6.13510831,15.51676 C5.98020013,15.6054661 5.79081716,15.5369582 5.7106209,15.3632047 L5.63459331,15.2132206 L4.2312506,12.3992322 L4,11.9349956 L9.69573405,8.88888889 Z"/><path fill="#E74C3C" d="M10.272205,10.3987828 L10.9640752,12.3651434 C11.0706687,12.6672363 10.9325616,13.0034113 10.6489982,13.1320916 L5.85463019,15.4971302 C5.58253412,15.6313493 5.25694034,15.5272572 5.10429211,15.2572477 L4.08110382,13.4564398 C3.9975446,13.3096272 3.97749006,13.1329334 4.02588414,12.9699176 C4.03505722,12.9395116 4.04702251,12.9100946 4.06161452,12.8820733 C4.1188533,12.7579234 4.21510681,12.6578055 4.33446473,12.5982687 L9.46015083,10.0575416 C9.5797008,9.9988466 9.71497818,9.98453726 9.84344041,10.016998 L9.92789405,10.0440271 C10.0868333,10.1045194 10.2125437,10.2340432 10.272205,10.3987828 Z"/><path fill="#F1C40F" d="M6.30940467,14.4235045 C6.19684078,14.4735899 6.06475761,14.4311532 6.00206606,14.3247602 L5.03394941,12.6800505 C4.99886348,12.6201669 4.99053511,12.5482111 5.01100854,12.481845 C5.03148198,12.4154789 5.07886166,12.3608473 5.14151793,12.3313597 L9.9943947,10.0232118 C10.0568185,9.99392534 10.1286175,9.99228159 10.192306,10.0186809 C10.2559945,10.0450801 10.3057277,10.0970997 10.3293938,10.162071 L10.984025,11.9579828 C11.0296337,12.0781105 10.9744887,12.213152 10.8580162,12.2665588 L6.30940467,14.4235045 Z"/><path fill="#E2E4E6" d="M9.9643532,10.0838151 C10.1072923,10.1422816 10.2205236,10.2584773 10.2774986,10.4051584 L10.9444982,12.2753768 C11.0059668,12.4330509 10.9968064,12.6104788 10.9194466,12.7606052 L10.9758128,12.9052098 C11.0414323,13.0667285 10.9690452,13.2524339 10.8129772,13.3229561 L8.50196429,14.4444444 L3,2.54188646 C4.56572689,1.50716085 6.49157096,0.822699493 7.69718067,1.23080556 C8.30155125,1.44931904 8.41428358,2.30087894 8.05729785,3.00140746 C7.96101445,3.20054173 7.91779888,3.42227637 7.9320397,3.64409418 L7.9320397,3.60553297 C8.68985152,1.7995833 9.78586034,3.991145 10.4810431,5.2925856 C10.6689303,6.8993024 10.3088131,7.73479513 9.69504818,9.61465377 L9.86727814,10.0645345 L9.9643532,10.0838151 Z" style="mix-blend-mode:multiply"/><path fill="#C0392B" d="M10.6823783,7.26479476 C11.8261062,5.78635386 12.793876,5.42357021 14.7716454,4.44444444 C15.2854432,7.46764153 14.7716454,7.52615502 14.7716454,7.52615502 C14.7716454,7.52615502 12.4173256,10.5064422 11.2911935,10.9706493 L11.2489635,10.9706493 C9.21488747,11.7703336 10.1545039,8.96948783 10.6823783,7.26479476 Z"/><path fill="#E74C3C" d="M20,6.79655079 C20,6.79655079 19.3796456,12.8880648 17.8585844,14.0483532 C17.1338435,14.5938149 15.5412029,14.5433676 13.9813695,14.0956476 C12.2575001,13.6037862 10.560473,12.6389812 10.0624,11.4692339 C9.81485473,10.8890897 10.3367875,10.2332745 11.0466161,10.0346382 C11.2405203,9.97819206 11.4172668,9.86955853 11.5596014,9.71934246 C12.0815342,9.21802221 12.9971534,7.91900369 14.5062847,4.44444444 L17.2561248,5.63310945 L20,6.79655079 Z"/><path fill="#C0392B" d="M19.9815822,2.79191045 L19.9337413,2.96584888 L19.031143,6.14485136 L18.8812415,6.66666667 L15.9406207,5.27145836 L13,3.87625006 L13.2105,3.38034048 L14.4862573,0.378977253 L14.556424,0.21614127 C14.6288581,0.0325179548 14.8147815,-0.0498242125 14.9742345,0.0311003811 L19.793408,2.32190659 C19.955978,2.39296388 20.0396382,2.60192229 19.9815822,2.79191045 Z"/><path fill="#E74C3C" d="M19.9787988,4.11881646 L19.3905195,6.21653269 C19.3431573,6.38814877 19.2308585,6.52967322 19.0817541,6.60565375 C19.0546628,6.62029159 19.0263711,6.63213489 18.9972499,6.64102839 C18.8708878,6.68140209 18.7356786,6.67391932 18.6137308,6.6198036 L15.9843499,5.44890298 L13.3614693,4.27800235 C13.2385865,4.22348132 13.1365215,4.12487578 13.0722049,3.99854268 C13.0580491,3.97019706 13.0460904,3.94061563 13.0364531,3.91010608 C12.9791507,3.74231469 12.9897779,3.55596479 13.0657046,3.39717378 L13.9952509,1.45156851 C14.1352636,1.1618219 14.4543281,1.03484702 14.7330376,1.15795898 L17.1901599,2.2510354 L19.6472822,3.34411182 C19.9228263,3.47263809 20.0635268,3.80800994 19.9722984,4.11881646 L19.9787988,4.11881646 Z"/><path fill="#F1C40F" d="M19.84499,3.13545518 C19.9672457,3.18537499 20.0297626,3.32890892 19.9861007,3.45943427 L19.4308606,5.3709109 C19.4109432,5.44096385 19.3639265,5.49886757 19.3014087,5.53033815 C19.2388909,5.56180873 19.1666929,5.56391604 19.1026247,5.53614024 L14.1422749,3.39463846 C14.0800701,3.3642118 14.0327509,3.3076936 14.0117732,3.23876685 C13.9907955,3.16984011 13.9980718,3.09478847 14.0318404,3.03178187 L14.9091812,1.24989688 C14.9666363,1.13209723 15.0997252,1.08009066 15.2159437,1.13002462 L19.84499,3.13545518 Z"/><path fill="#E2E4E6" d="M19.9651629,2.4549955 L19.920949,2.60222759 C20.0009774,2.74005414 20.0213781,2.9077975 19.9769533,3.06271944 L19.4434389,4.92034985 C19.4004859,5.07232428 19.2986413,5.19765112 19.1634175,5.26493559 C19.1388483,5.27789812 19.1131904,5.28838594 19.0867801,5.29626157 L18.9482432,5.73482524 C18.9482432,5.73482524 18.3351438,11.7870039 16.8318713,12.9397998 C16.1156061,13.4817392 14.5415913,13.4316177 13,12.9867888 L16.2423526,4.56636631 L16.3661515,4.25310655 L16.4781601,3.96490757 L17.3447525,1.71256986 L17.456761,1.42437088 L17.58056,1.11111111 L19.8089405,2.07908378 C19.9418786,2.14551018 20.0085032,2.30582617 19.9651629,2.4549955 Z" style="mix-blend-mode:multiply"/></g></g></svg>