<svg xmlns="http://www.w3.org/2000/svg" xmlns:xlink="http://www.w3.org/1999/xlink" width="24px" height="24px" viewBox="0 0 24 24"><g fill="none" fill-rule="evenodd"><g transform="translate(3.000000, 3.000000)"><ellipse cx="9.084" cy="8.96351351" fill="#9BD739" fill-rule="nonzero" rx="8.844" ry="8.96351351"/><path fill="#E2F311" d="M15.5688,2.86783784 C13.8954471,1.04191557 11.5476185,0.00445799109 9.0888,0.00445799109 C6.62998152,0.00445799109 4.28215291,1.04191557 2.6088,2.86783784 C2.9740461,3.26177652 3.39750349,3.59576538 3.864,3.85783784 C5.1816,4.62162162 7.0296,5.10810811 9.084,5.10810811 C11.1384,5.10810811 12.9864,4.62162162 14.3136,3.85783784 C14.780118,3.59579841 15.2035802,3.26180578 15.5688,2.86783784 Z"/><path fill="#E2F311" d="M16.4016,13.9986486 C18.4354692,10.9592439 18.4354692,6.97021559 16.4016,3.93081081 C15.9729181,4.36031361 15.488456,4.72857028 14.9616,5.02540541 C13.4448,5.90837838 11.3616,6.45567568 9.072,6.45567568 C6.7824,6.45567568 4.7016,5.90837838 3.1824,5.02540541 C2.65585171,4.72808976 2.1714509,4.35987968 1.7424,3.93081081 C-0.291469248,6.97021559 -0.291469248,10.9592439 1.7424,13.9986486 C2.17143162,13.5695571 2.65583562,13.2013446 3.1824,12.9040541 C4.7016,12.0210811 6.7824,11.4737838 9.072,11.4737838 C11.3616,11.4737838 13.4568,12.0186486 14.9736,12.8918919 C15.4969941,13.1933546 15.977414,13.5656991 16.4016,13.9986486 Z"/><path fill="#E2F311" d="M9.084,17.927027 C11.5440342,17.9285386 13.8929704,16.8889756 15.564,15.0591892 C15.1987802,14.6652212 14.775318,14.3312286 14.3088,14.0691892 C12.9816,13.2956757 11.1336,12.8189189 9.0792,12.8189189 C7.0248,12.8189189 5.1768,13.3054054 3.8496,14.0691892 C3.38310349,14.3312616 2.9596461,14.6652505 2.5944,15.0591892 C4.26769652,16.8914642 6.62062708,17.9312545 9.084,17.927027 Z"/><ellipse cx="9.084" cy="7.52108108" fill="#AEED49" fill-rule="nonzero" rx="6.3384" ry="6.42405405"/><path fill="#EFFF3B" d="M9.084 13.9451351C10.1310131 13.9465596 11.1619441 13.6840902 12.084 13.1813514 11.102543 12.9357836 10.0949109 12.8140507 9.084 12.8189189 8.07308769 12.8140259 7.06545257 12.9357591 6.084 13.1813514 7.00601928 13.6841859 8.0369745 13.9466616 9.084 13.9451351zM13.44 12.1937838C15.3555474 10.3583435 15.9525462 7.51404762 14.94 5.0472973 13.4256 5.91810811 11.3592 6.45567568 9.0888 6.45567568 6.8184 6.45567568 4.752 5.91810811 3.2376 5.0472973 2.2249272 7.51447322 2.8229869 10.3592719 4.74 12.1937838 6.13861303 11.7036789 7.60896574 11.4569533 9.0888 11.4640541 10.5694393 11.4566787 12.0406261 11.703408 13.44 12.1937838z"/><path fill="#EFFF3B" d="M14.2992,3.86756757 C13.115609,2.13214315 11.1667401,1.096315 9.0852,1.096315 C7.00365993,1.096315 5.05479102,2.13214315 3.8712,3.86756757 C5.196,4.63378378 7.0392,5.10810811 9.084,5.10810811 C11.1288,5.10810811 12.972,4.63621622 14.2992,3.86756757 Z"/></g></g></svg>