<svg xmlns="http://www.w3.org/2000/svg" xmlns:xlink="http://www.w3.org/1999/xlink" width="24px" height="24px" viewBox="0 0 24 24"><g fill="none" fill-rule="evenodd"><g transform="translate(3.000000, 3.000000)"><path fill="#D18017" d="M14.8864865,2.4456 C17.6078833,4.80940803 18.6179924,8.55801848 17.4457386,11.9432266 C16.2734848,15.3284346 13.1497616,17.683471 9.53135102,17.9100392 C5.9129404,18.1366074 2.51254449,16.1900812 0.91597449,12.9782441 C-0.680595512,9.76640699 -0.158870349,5.92188014 2.23783784,3.2376 C5.50942028,-0.426527251 11.1716938,-0.781072686 14.8864865,2.4456 Z"/><path fill="#E38C1C" d="M14.7672973,2.5824 C18.4062578,5.74479992 18.7582904,11.2189291 15.5536204,14.8097743 C12.3489504,18.4006194 6.80089153,18.7486578 3.16111196,15.5871756 C-0.478667617,12.4256934 -0.832118162,6.95165315 2.37162162,3.36 C3.91092601,1.63176282 6.08371682,0.578592156 8.4108769,0.432720286 C10.738037,0.286848417 13.0284373,1.06025575 14.777027,2.5824 L14.7672973,2.5824 Z"/><path fill="#F09C2B" d="M9.52297297,0.72 C12.9517108,0.720002336 15.7316268,3.46178173 15.7329682,6.84480282 C15.7343097,10.2278239 12.9565689,12.9717487 9.52783212,12.9743981 C6.09909532,12.9770476 3.31700204,10.237419 3.31297297,6.8544 C3.31103612,5.2281184 3.96444696,3.66779076 5.12925786,2.51716017 C6.29406877,1.36652957 7.87471345,0.719998877 9.52297297,0.72 Z"/><path fill="#FFAD42" d="M9.52297297,1.7448 C10.8200956,1.74188725 11.9911828,2.51046693 12.4898442,3.69194522 C12.9885056,4.87342351 12.7164681,6.2349623 11.8006554,7.14131271 C10.8848428,8.04766312 9.50573742,8.32020746 8.30678419,7.83178557 C7.10783097,7.34336368 6.32531185,6.19023059 6.32432432,4.9104 C6.32297779,3.16528405 7.75427845,1.74877169 9.52297297,1.7448 Z"/><path fill="#8C570F" fill-rule="nonzero" d="M13.5291892,16.2024 C13.5632432,16.2672 13.6264865,16.3824 13.6605405,16.4424 L13.4781081,16.548 C13.4391892,16.4712 13.3759459,16.3536 13.3394595,16.284 C12.7731435,16.406235 12.1945244,16.4642111 11.6148649,16.4568 C10.9463797,16.4675522 10.2784069,16.4145054 9.62027027,16.2984 C9.11347293,16.5245672 8.58336068,16.6959647 8.03918919,16.8096 C7.50176407,16.9244724 6.95436804,16.987966 6.40459459,16.9992 C6.40459459,17.076 6.44108108,17.328 6.46783784,17.4264 L6.22459459,17.352 C6.20513514,17.2704 6.18567568,17.0328 6.17837838,16.9704 C5.63256896,16.7193584 5.11896104,16.4051512 4.64837838,16.0344 C4.14613985,15.6592149 3.68765743,15.2301885 3.28135135,14.7552 C2.88817723,14.7251578 2.4978726,14.6657881 2.11378378,14.5776 C2.03594595,14.4864 1.93378378,14.3376 1.87054054,14.256 C2.32438388,14.3842717 2.7869034,14.4805148 3.25459459,14.544 C3.32138435,14.1670334 3.42987063,13.7984302 3.57810811,13.4448 C3.7646252,12.9924145 3.98665105,12.555086 4.24216216,12.1368 C3.9289165,11.5027326 3.66622931,10.8455429 3.45648649,10.1712 C3.19865567,9.40814111 2.98986276,8.62979582 2.83135135,7.8408 C2.52243243,7.716 2.27918919,7.6152 2.00189189,7.488 C1.72459459,7.3608 1.41810811,7.2144 0.972972973,6.9744 C0.81972973,7.1616 0.471891892,7.6224 0.199459459,8.0088 C0.218918919,7.8488 0.242432432,7.696 0.27,7.5504 C0.454864865,7.3104 0.724864865,6.9456 0.834324324,6.8136 C0.797147307,6.32129699 0.880576631,5.82739539 1.07756757,5.3736 C1.14810811,5.1792 1.23324324,4.9848 1.32081081,4.7904 C1.61841863,4.25451239 1.9722517,3.75094977 2.37648649,3.288 C2.48351351,3.1696 2.59297297,3.0544 2.70486486,2.9424 C2.94310008,2.7797109 3.19263433,2.63375097 3.45162162,2.5056 C3.94501509,2.24605573 4.47837186,2.06847834 5.03027027,1.98 C5.46912702,1.52848352 5.98233302,1.15357995 6.54810811,0.8712 C7.85918919,0.1824 9.52054054,0.2784 10.9264865,0.5952 C11.2489608,0.678692811 11.5619392,0.79449483 11.8605405,0.9408 C11.9044544,0.92710985 11.9491209,0.915891783 11.9943243,0.9072 C12.1386486,0.96 12.2821622,1.016 12.4248649,1.0752 C12.2951771,1.07473723 12.1657185,1.08598411 12.0381081,1.1088 C12.281836,1.40199504 12.4960877,1.71788179 12.6778378,2.052 C12.8995534,2.44982062 13.0820135,2.8677411 13.2227027,3.3 C13.7487404,3.53576624 14.2319352,3.85522265 14.652973,4.2456 C15.187688,4.69065761 15.6706488,5.19293682 16.092973,5.7432 C16.4151882,5.66072258 16.7505039,5.64035036 17.0805405,5.6832 C17.1113514,5.7552 17.1413514,5.8272 17.1705405,5.8992 C16.8367881,5.84205174 16.4946173,5.85431355 16.1659459,5.9352 C16.1682545,6.72233692 16.0974175,7.50802514 15.9543243,8.2824 C15.8773364,8.88778324 15.7135364,9.47929797 15.4678378,10.0392 C15.6789032,10.5134882 15.8331886,11.0104449 15.9275676,11.52 C16.0263334,12.0455323 16.0743862,12.579119 16.0710811,13.1136 C16.3830954,13.0107659 16.6825135,12.8739201 16.9637838,12.7056 L16.9881081,12.6912 C16.937027,12.8016 16.8859459,12.9096 16.83,13.0176 C16.5837862,13.1519403 16.3236413,13.2597605 16.0540541,13.3392 C15.7902365,13.8299039 15.4631991,14.2848784 15.0810811,14.6928 C14.6125335,15.2353019 14.1009141,15.7400998 13.5510811,16.2024 L13.5291892,16.2024 Z M6.64783784,1.0536 C6.10482379,1.32243583 5.61146551,1.67940795 5.18837838,2.1096 C5.26783096,2.57125399 5.37093608,3.02864017 5.4972973,3.48 C5.58415145,3.79771605 5.69807054,4.10761936 5.83783784,4.4064 C6.51478064,4.47012989 7.18622811,4.5816151 7.84702703,4.74 C8.74945946,4.9392 9.71027027,5.1888 10.3062162,5.388 C10.6413815,5.04644371 11.0050986,4.73333777 11.3935135,4.452 C11.9174135,4.05248258 12.4613436,3.67921124 13.0232432,3.3336 C12.8852594,2.92721395 12.7093709,2.53433124 12.4978378,2.16 C12.3009438,1.79607235 12.062649,1.45547402 11.7875676,1.1448 C11.244485,0.885243869 10.6632765,0.711910208 10.0654054,0.6312 C8.67891892,0.4152 7.86405405,0.4248 6.64540541,1.0632 L6.64783784,1.0536 Z M13.1521622,3.4944 C12.5870278,3.83954334 12.0406036,4.21365582 11.5151351,4.6152 C11.1384216,4.88739297 10.7853119,5.19003671 10.4594595,5.52 C10.6516216,5.9208 11.0554054,6.8952 11.412973,7.8312 C11.6878378,8.5512 11.9359459,9.2544 12.0405405,9.66 L12.6340541,9.6792 C13.5310035,9.68870893 14.4257465,9.76896466 15.3097297,9.9192 C15.5346604,9.38155703 15.6852019,8.81648116 15.7572973,8.2392 C15.9024162,7.46842711 15.9708495,6.68550664 15.9616216,5.9016 C15.5470273,5.34210587 15.0642075,4.8350934 14.5240541,4.392 C14.1224912,4.01805521 13.6615137,3.71159147 13.1594595,3.4848 L13.1521622,3.4944 Z M2.25486486,3.6 C1.85489272,4.17511724 1.52811618,4.79658088 1.28189189,5.4504 C1.10072108,5.8696796 1.0223821,6.32522354 1.05324324,6.78 C1.50567568,7.02 1.81945946,7.1856 2.09918919,7.3152 C2.37891892,7.4448 2.58567568,7.5336 2.89216216,7.6536 C3.67037925,6.48755152 4.59471806,5.42313166 5.64324324,4.4856 C5.50636696,4.17983393 5.39491858,3.8635917 5.31,3.54 C5.16891892,3.0384 5.06675676,2.5104 5.00351351,2.196 C4.49406492,2.2867002 4.00180999,2.45426378 3.54405405,2.6928 C3.06412666,2.91893153 2.62785783,3.22593308 2.25486486,3.6 Z M11.9967568,9.8712 L11.4883784,10.4136 C10.6978378,11.2584 9.46702703,12.5736 8.68135135,13.2936 C8.78351351,13.584 8.88081081,13.9128 8.97810811,14.2536 C9.1872973,14.9592 9.40135135,15.6936 9.67621622,16.1208 C10.3183799,16.2333898 10.9700242,16.2848262 11.6221622,16.2744 C12.2029721,16.2803933 12.782283,16.2150921 13.3467568,16.08 C13.9080821,15.6167908 14.4280968,15.1069214 14.9010811,14.556 C15.2805425,14.159804 15.6030189,13.7140336 15.8594595,13.2312 C15.8722662,12.6679756 15.8258011,12.1049603 15.7208108,11.5512 C15.6321568,11.0560243 15.4852163,10.5727533 15.282973,10.1112 C14.4039161,9.9608305 13.5140113,9.88057095 12.6218919,9.8712 L11.9943243,9.8496 L11.9967568,9.8712 Z M10.2575676,5.592 C9.67135135,5.3928 8.70567568,5.1408 7.79351351,4.9416 C7.13932827,4.78406022 6.47429432,4.67416431 5.80378378,4.6128 C4.7458847,5.55321013 3.81548903,6.62446782 3.03567568,7.8 C3.18975109,8.58489137 3.39449242,9.35926856 3.64864865,10.1184 C3.85569177,10.7864337 4.11596282,11.4372631 4.42702703,12.0648 C5.06432432,12.2688 5.96432432,12.5448 6.81567568,12.7608 C7.45783784,12.9312 8.07081081,13.0752 8.51837838,13.1496 C9.29918919,12.4416 10.5348649,11.1216 11.3254054,10.2696 L11.8313514,9.732 C11.7389189,9.3432 11.4908108,8.64 11.2135135,7.92 C10.8510811,6.96 10.4424324,5.9832 10.2575676,5.604 L10.2575676,5.592 Z M4.41972973,12.2736 C4.17487164,12.676858 3.96181089,13.0981003 3.78243243,13.5336 C3.63028272,13.8885463 3.52088556,14.2598871 3.45648649,14.64 C3.85285878,15.1024654 4.29990637,15.5202102 4.78945946,15.8856 C5.2566937,16.2514356 5.76817756,16.5585873 6.31216216,16.8 C6.87898794,16.7955606 7.4438494,16.733635 7.99783784,16.6152 C8.49901027,16.5101233 8.98802357,16.3549214 9.4572973,16.152 C9.16393881,15.5590504 8.93483178,14.9372056 8.77378378,14.2968 C8.67648649,13.9656 8.57918919,13.6392 8.47702703,13.3368 C8.02459459,13.2624 7.40918919,13.116 6.77432432,12.9456 C5.94243243,12.7248 5.05702703,12.4656 4.4172973,12.2592 L4.41972973,12.2736 Z"/><path fill="#FFAD42" fill-rule="nonzero" d="M13.2956757,16.4616 L13.3759459,16.6176 L13.1935135,16.7184 L13.1083784,16.56 C12.5420692,16.6822765 11.9634452,16.7402531 11.3837838,16.7328 C10.7152996,16.7435222 10.0473298,16.6904756 9.38918919,16.5744 C8.88239185,16.8005672 8.3522796,16.9719647 7.80810811,17.0856 C7.27068299,17.2004724 6.72328696,17.263966 6.17351351,17.2752 C6.17351351,17.2992 6.17837838,17.324 6.18810811,17.3496 L5.96189189,17.28 L5.96189189,17.2512 C5.41608247,17.0001584 4.90247456,16.6859512 4.43189189,16.3152 C3.92971819,15.9399395 3.47124381,15.5109206 3.06486486,15.036 C2.8517592,15.0170658 2.6403692,14.9825713 2.43243243,14.9328 C2.35216216,14.844 2.27189189,14.7576 2.18918919,14.6664 C2.46287934,14.7381733 2.74183718,14.7887273 3.02351351,14.8176 C3.09028418,14.440629 3.19877105,14.0720238 3.34702703,13.7184 C3.53356216,13.2660226 3.75558732,12.8286954 4.01108108,12.4104 C3.69781734,11.7763405 3.43512959,11.1191494 3.22540541,10.4448 C2.9675622,9.68174476 2.75876909,8.90339869 2.60027027,8.1144 C2.29135135,7.9896 2.04810811,7.8888 1.77081081,7.7616 C1.49351351,7.6344 1.18702703,7.476 0.744324324,7.2384 C0.615405405,7.3968 0.430540541,7.6392 0.214054054,7.9416 C0.233513514,7.7896 0.257837838,7.6384 0.287027027,7.488 C0.415945946,7.3176 0.53027027,7.1784 0.605675676,7.0776 C0.566126814,6.64480838 0.62770534,6.20883242 0.785675676,5.8032 C1.14942169,4.91991466 1.65812075,4.10176659 2.29135135,3.3816 L2.4372973,3.228 C2.68632812,3.05457797 2.94813722,2.89974743 3.22054054,2.7648 C3.71393401,2.50525573 4.24729078,2.32767834 4.79918919,2.2392 C5.24043029,1.78788168 5.75613837,1.41376439 6.32432432,1.1328 C7.57945946,0.4728 8.51351351,0.468 9.87567568,0.6792 C10.4843973,0.764210091 11.076534,0.939806238 11.6318919,1.2 C11.6975676,1.1784 12.0964865,1.1424 12.5075676,1.1088 C12.6908108,1.1872 12.8716216,1.2728 13.05,1.3656 C12.6376122,1.34310293 12.2242797,1.34310293 11.8118919,1.3656 C12.0556322,1.65878599 12.2698846,1.97467397 12.4516216,2.3088 C12.6733372,2.70662062 12.8557973,3.1245411 12.9964865,3.5568 C13.5225242,3.79256624 14.005719,4.11202265 14.4267568,4.5024 C14.9606207,4.94759121 15.4427609,5.44986546 15.8643243,6 C16.2846719,5.90412282 16.7128604,5.84548976 17.1437838,5.8248 C17.1891892,5.9368 17.2321622,6.0488 17.2727027,6.1608 C16.8269583,6.12239117 16.3782722,6.13285507 15.9348649,6.192 C15.9371735,6.97913692 15.8663365,7.76482514 15.7232432,8.5392 C15.6462554,9.14458324 15.4824553,9.73609797 15.2367568,10.296 C15.4455001,10.7713626 15.5973368,11.2691257 15.6891892,11.7792 C15.7879695,12.3047304 15.8360224,12.8383184 15.8327027,13.3728 C16.1474364,13.2689199 16.4493331,13.1304499 16.7327027,12.96 L16.8883784,12.8952 C16.8348649,13.0024 16.7789189,13.1096 16.7205405,13.2168 C16.4257515,13.3627903 16.1219021,13.4902446 15.8108108,13.5984 C15.5469933,14.0891039 15.2199558,14.5440784 14.8378378,14.952 C14.3693055,15.4945157 13.8576849,15.9993147 13.3078378,16.4616 L13.2956757,16.4616 Z M6.41432432,1.3152 C5.87131027,1.58403583 5.377952,1.94100795 4.95486486,2.3712 C5.03432971,2.83285162 5.13743468,3.29023719 5.26378378,3.7416 C5.3476189,4.05820164 5.45827876,4.36728982 5.59459459,4.6656 C6.27153631,4.72933804 6.94298319,4.84082316 7.60378378,4.9992 C8.50621622,5.196 9.46702703,5.448 10.062973,5.6472 C10.3981462,5.30565195 10.7618626,4.99254665 11.1502703,4.7112 C11.6759268,4.31401903 12.2214796,3.94315137 12.7848649,3.6 C12.6499959,3.1847344 12.4757097,2.78295325 12.2643243,2.4 C12.0674122,2.03608321 11.8291187,1.69548684 11.5540541,1.3848 C11.0109714,1.12524387 10.429763,0.951910208 9.83189189,0.8712 C8.44540541,0.6552 7.63054054,0.6648 6.41189189,1.3032 L6.41432432,1.3152 Z M12.9186486,3.7536 C12.3535119,4.09873967 11.8070875,4.47285228 11.2816216,4.8744 C10.9013515,5.14769555 10.5449687,5.45196075 10.2162162,5.784 C10.4083784,6.1848 10.8121622,7.1592 11.1697297,8.0952 C11.4445946,8.8152 11.6927027,9.5184 11.7972973,9.924 L12.3908108,9.9432 C13.2877603,9.95270893 14.1825032,10.0329647 15.0664865,10.1832 C15.2914172,9.64555703 15.4419586,9.08048116 15.5140541,8.5032 C15.659173,7.73242711 15.7276063,6.94950664 15.7183784,6.1656 C15.303784,5.60610587 14.8209643,5.0990934 14.2808108,4.656 C13.8792479,4.28205521 13.4182704,3.97559147 12.9162162,3.7488 L12.9186486,3.7536 Z M2.02135135,3.8568 C1.62133688,4.4318922 1.29455754,5.05336115 1.04837838,5.7072 C0.867207568,6.1264796 0.78886859,6.58202354 0.81972973,7.0368 C1.27216216,7.2768 1.58594595,7.4424 1.86567568,7.572 C2.14540541,7.7016 2.35216216,7.7904 2.65864865,7.9104 C3.43688652,6.74436696 4.36122319,5.67994955 5.40972973,4.7424 C5.27285345,4.43663393 5.16140507,4.1203917 5.07648649,3.7968 C4.93540541,3.2952 4.83324324,2.7672 4.77,2.4528 C4.2605416,2.54346314 3.76828103,2.71102864 3.31054054,2.9496 C2.82906869,3.1745293 2.39113204,3.48073373 2.01648649,3.8544 L2.02135135,3.8568 Z M11.7632432,10.1328 L11.2548649,10.6752 C10.4594595,11.52 9.24324324,12.8376 8.44783784,13.5504 C8.55,13.8408 8.6472973,14.1696 8.74459459,14.5104 C8.95378378,15.216 9.16783784,15.9504 9.4427027,16.3776 C10.0849413,16.489415 10.7365879,16.5400479 11.3886486,16.5288 C11.9713895,16.5393463 12.5531855,16.4780726 13.1205405,16.3464 C13.6818658,15.8831908 14.2018806,15.3733214 14.6748649,14.8224 C15.0543263,14.426204 15.3768027,13.9804336 15.6332432,13.4976 C15.64605,12.9343756 15.5995849,12.3713603 15.4945946,11.8176 C15.4059406,11.3224243 15.2590001,10.8391533 15.0567568,10.3776 C14.1776999,10.2272305 13.2877951,10.1469709 12.3956757,10.1376 L11.7681081,10.116 L11.7632432,10.1328 Z M10.0240541,5.8536 C9.43783784,5.6544 8.47216216,5.4024 7.56,5.2032 C6.90581476,5.04566022 6.24078081,4.93576431 5.57027027,4.8744 C4.51237119,5.81481013 3.58197551,6.88606782 2.80216216,8.0616 C2.95862249,8.84665493 3.16580196,9.62103494 3.42243243,10.38 C3.62944674,11.0480436 3.88971868,11.6988753 4.20081081,12.3264 C4.83810811,12.5304 5.73810811,12.8064 6.58945946,13.0224 C7.23162162,13.1928 7.84459459,13.3368 8.29216216,13.4112 C9.07297297,12.7032 10.3086486,11.3832 11.0991892,10.5312 L11.6051351,9.9936 C11.5054054,9.6 11.2572973,8.8968 10.98,8.16 C10.6175676,7.2 10.2089189,6.2232 10.0240541,5.844 L10.0240541,5.8536 Z M4.18621622,12.5352 C3.9413497,12.9384534 3.72828861,13.3596963 3.54891892,13.7952 C3.40046424,14.1490209 3.29434186,14.5187186 3.2327027,14.8968 C3.62910401,15.3592384 4.07614839,15.7769801 4.56567568,16.1424 C5.03011133,16.5110869 5.539139,16.8214603 6.08108108,17.0664 C6.64790686,17.0619606 7.21276832,17.000035 7.76675676,16.8816 C8.26792919,16.7765233 8.75694248,16.6213214 9.22621622,16.4184 C8.93285773,15.8254504 8.7037507,15.2036056 8.5427027,14.5632 C8.44540541,14.232 8.34810811,13.9056 8.24594595,13.6032 C7.79351351,13.5288 7.17810811,13.3824 6.54324324,13.212 C5.71135135,12.9912 4.82594595,12.732 4.18621622,12.5256 L4.18621622,12.5352 Z"/><path fill="#A86612" fill-rule="nonzero" d="M13.4172973,16.32 L13.5218919,16.5288 L13.3394595,16.6344 L13.23,16.416 C12.6636841,16.538235 12.085065,16.5962111 11.5054054,16.5888 C10.8369217,16.5995072 10.1689533,16.5464608 9.51081081,16.4304 C9.00402038,16.6565847 8.47390617,16.8279829 7.92972973,16.9416 C7.39230461,17.0564724 6.84490858,17.119966 6.29513514,17.1312 C6.29513514,17.208 6.32675676,17.2968 6.35108108,17.3952 L6.10783784,17.3208 C6.08837838,17.2392 6.07621622,17.1648 6.06891892,17.1 C5.52312047,16.8489384 5.00951488,16.5347326 4.53891892,16.164 C4.04076462,15.7865202 3.58638845,15.3559098 3.18405405,14.88 C2.8651077,14.8525017 2.54927013,14.7970836 2.24027027,14.7144 C2.16243243,14.6248 2.08621622,14.5336 2.01162162,14.4408 C2.38069112,14.5537296 2.75920955,14.6340461 3.1427027,14.6808 C3.20949246,14.3038334 3.31797874,13.9352302 3.46621622,13.5816 C3.65420341,13.1282523 3.87785913,12.6901148 4.13513514,12.2712 C3.82188044,11.6371365 3.55919297,10.9799461 3.34945946,10.3056 C3.09163483,9.54253928 2.88284203,8.76419438 2.72432432,7.9752 C2.41540541,7.8504 2.17216216,7.7496 1.89486486,7.6224 C1.61756757,7.4952 1.31108108,7.3368 0.868378378,7.0992 C0.712702703,7.2864 0.486486486,7.596 0.206756757,7.9824 C0.226216216,7.8224 0.24972973,7.6696 0.277297297,7.524 C0.462162162,7.284 0.617837838,7.0704 0.727297297,6.9384 C0.69012028,6.44609699 0.773549604,5.95219539 0.970540541,5.4984 C1.04108108,5.304 1.12621622,5.1096 1.21378378,4.9152 C1.52900879,4.34587345 1.90756162,3.81298419 2.34243243,3.3264 C2.41540541,3.2448 2.48837838,3.168 2.56378378,3.0864 C2.81179279,2.91896084 3.07195492,2.76975786 3.34216216,2.64 C3.835538,2.38041544 4.36890169,2.20283574 4.92081081,2.1144 C5.35966756,1.66288352 5.87287356,1.28797995 6.43864865,1.0056 C7.69378378,0.3456 8.62783784,0.3408 9.99,0.552 C10.6021798,0.636822329 11.197672,0.813249902 11.7559459,1.0752 C11.9142265,1.03065118 12.0778464,1.00724264 12.2424324,1.0056 C12.4191892,1.076 12.5943243,1.1512 12.7678378,1.2312 C12.4950457,1.19450294 12.2184678,1.19450294 11.9456757,1.2312 C12.1894159,1.52438599 12.4036684,1.84027397 12.5854054,2.1744 C12.807121,2.57222062 12.9895811,2.9901411 13.1302703,3.4224 C13.6511471,3.65953052 14.1293209,3.97892648 14.5459459,4.368 C15.0806472,4.81307203 15.5636065,5.31534964 15.9859459,5.8656 C16.3640952,5.77381826 16.7572466,5.75911854 17.1413514,5.8224 C17.1705405,5.896 17.1997297,5.9696 17.2289189,6.0432 C16.8424354,5.96463767 16.443296,5.96955015 16.0589189,6.0576 C16.0609168,6.84313338 15.9900811,7.6272003 15.8472973,8.4 C15.7703094,9.00538324 15.6065094,9.59689797 15.3608108,10.1568 C15.56888,10.6330391 15.7199017,11.1316122 15.8108108,11.6424 C15.9095766,12.1679323 15.9576294,12.701519 15.9543243,13.236 C16.2663387,13.1331659 16.5657567,12.9963201 16.847027,12.828 L16.9443243,12.7704 C16.8908108,12.8824 16.8348649,12.9944 16.7764865,13.1064 C16.5073903,13.256507 16.2217421,13.3756848 15.9251351,13.4616 C15.6613176,13.9523039 15.3342802,14.4072784 14.9521622,14.8152 C14.4818893,15.356253 13.9686413,15.8594475 13.4172973,16.32 Z M6.53837838,1.1784 C5.99534016,1.44719684 5.50197563,1.80417349 5.07891892,2.2344 C5.16014325,2.69452244 5.26487127,3.15030314 5.3927027,3.6 C5.47577209,3.91652129 5.58561701,4.22560591 5.72108108,4.524 C6.39802497,4.58772174 7.06947302,4.69920704 7.73027027,4.8576 C8.6327027,5.0568 9.59351351,5.3064 10.1894595,5.5056 C10.5246327,5.16405195 10.8883491,4.85094665 11.2767568,4.5696 C11.8006616,4.17008911 12.3445914,3.796818 12.9064865,3.4512 C12.7712783,3.04259579 12.5978279,2.64729173 12.3883784,2.2704 C12.1903882,1.90803845 11.9512852,1.56906164 11.6756757,1.26 C11.1325931,1.00044387 10.5513846,0.827110208 9.95351351,0.7464 C8.56702703,0.5304 7.75216216,0.54 6.53351351,1.1784 L6.53837838,1.1784 Z M13.0427027,3.6168 C12.4775635,3.96193599 11.9311389,4.33604873 11.4056757,4.7376 C11.02793,5.01121538 10.6739978,5.31547224 10.3475676,5.6472 C10.5397297,6.048 10.9435135,7.0224 11.3010811,7.9584 C11.5759459,8.6784 11.8240541,9.3816 11.9286486,9.7872 L12.5221622,9.8064 C13.4191106,9.8159294 14.3138519,9.89618499 15.1978378,10.0464 C15.4227685,9.50875703 15.57331,8.94368116 15.6454054,8.3664 C15.7905089,7.59562505 15.8589421,6.81270607 15.8497297,6.0288 C15.4351544,5.4692903 14.9523326,4.96227564 14.4121622,4.5192 C14.0105993,4.14525521 13.5496218,3.83879147 13.0475676,3.612 L13.0427027,3.6168 Z M2.14540541,3.72 C1.74541211,4.29510472 1.41863416,4.91657101 1.17243243,5.5704 C0.991261622,5.9896796 0.912922644,6.44522354 0.943783784,6.9 C1.38648649,7.1448 1.7027027,7.3056 1.98,7.44 C2.2572973,7.5744 2.46648649,7.6584 2.77297297,7.7784 C3.55100407,6.61149265 4.47535146,5.54625652 5.52405405,4.608 C5.38717777,4.30223393 5.27572939,3.9859917 5.19081081,3.6624 C5.04972973,3.1608 4.94756757,2.6328 4.88432432,2.3184 C4.37487573,2.4091002 3.8826208,2.57666378 3.42486486,2.8152 C2.94771362,3.04132456 2.51397539,3.34747078 2.14297297,3.72 L2.14540541,3.72 Z M11.8848649,9.996 L11.3764865,10.5384 C10.5859459,11.3832 9.35513514,12.6984 8.56945946,13.4184 C8.67162162,13.7088 8.76891892,14.0376 8.86621622,14.3784 C9.07540541,15.084 9.28945946,15.8184 9.56432432,16.2456 C10.2065686,16.3573708 10.8582109,16.4080034 11.5102703,16.3968 C12.0930111,16.4073463 12.6748071,16.3460726 13.2421622,16.2144 C13.8035036,15.7512083 14.3235198,15.2413374 14.7964865,14.6904 C15.1759479,14.294204 15.4984243,13.8484336 15.7548649,13.3656 C15.7676716,12.8023756 15.7212065,12.2393603 15.6162162,11.6856 C15.5275622,11.1904243 15.3806217,10.7071533 15.1783784,10.2456 C14.2993257,10.0951995 13.4094183,10.0149398 12.5172973,10.0056 L11.8897297,9.984 L11.8848649,9.996 Z M10.1456757,5.7168 C9.55945946,5.5176 8.59378378,5.2656 7.68162162,5.0664 C7.02743462,4.9088687 6.3624013,4.79897289 5.69189189,4.7376 C4.6326036,5.67622589 3.7005747,6.74586804 2.91891892,7.92 C3.0753663,8.70505786 3.28254599,9.47943869 3.53918919,10.2384 C3.74623231,10.9064337 4.00650336,11.5572631 4.31756757,12.1848 C4.95486486,12.3888 5.85486486,12.6648 6.70621622,12.8808 C7.34837838,13.0512 7.96135135,13.1952 8.40891892,13.2696 C9.18972973,12.5616 10.4254054,11.2416 11.2159459,10.3896 L11.7218919,9.852 C11.6245946,9.4584 11.3740541,8.7528 11.0967568,8.0256 C10.7343243,7.0656 10.3256757,6.0888 10.1408108,5.7096 L10.1456757,5.7168 Z M4.30783784,12.3984 C4.06296288,12.8016489 3.84990146,13.2228924 3.67054054,13.6584 C3.5220649,14.0122137 3.41594182,14.3819139 3.35432432,14.76 C3.75071113,15.2224519 4.19775711,15.6401951 4.6872973,16.0056 C5.1532484,16.3746254 5.6639285,16.6850099 6.20756757,16.9296 C6.77439335,16.9251606 7.3392548,16.863235 7.89324324,16.7448 C8.39441567,16.6397233 8.88342897,16.4845214 9.3527027,16.2816 C9.05934422,15.6886504 8.83023719,15.0668056 8.66918919,14.4264 C8.57189189,14.0952 8.47459459,13.7688 8.37243243,13.4664 C7.92,13.392 7.30459459,13.2456 6.66972973,13.0752 C5.83783784,12.8544 4.95243243,12.5952 4.3127027,12.3888 L4.30783784,12.3984 Z"/></g></g></svg>