<svg xmlns="http://www.w3.org/2000/svg" xmlns:xlink="http://www.w3.org/1999/xlink" width="24px" height="24px" viewBox="0 0 24 24"><g fill="none" fill-rule="evenodd"><g fill-rule="nonzero" transform="translate(3.000000, 3.000000)"><circle cx="8.93049505" cy="8.93049505" r="8.93049505" fill="#EBEBEB"/><path fill="#414952" d="M16.0253465,4.43227723 C16.0135473,4.42161913 15.9984505,4.41532879 15.9825743,4.41445545 C16.02,3.95465347 16.0556436,3.45207921 16.0556436,3.45207921 C15.8398019,3.17198899 15.6077204,2.90479765 15.3605941,2.65188119 C15.1150928,2.39929489 14.8550459,2.16126567 14.5817822,1.9390099 L14.5710891,1.9390099 C14.3881188,1.78574257 14.200396,1.64316832 14.0079208,1.51128713 C13.9093069,1.44356436 13.8142574,1.37940594 13.7227723,1.31881188 L13.7049505,1.30811881 C13.5112871,1.18930693 13.3122772,1.07524752 13.1079208,0.965940594 L13.0883168,0.955247525 C12.9885149,0.902970297 12.8869307,0.852475248 12.7835644,0.803762376 L12.7621782,0.794851485 C12.5518812,0.696237624 12.3374257,0.606534653 12.1188119,0.525742574 L12.0867327,0.513267327 C11.9809901,0.474059406 11.8740594,0.436039604 11.7659406,0.399207921 L11.7481188,0.399207921 C11.6388119,0.358811881 11.529505,0.322574257 11.420198,0.29049505 C11.2526733,1.12455446 11.0922772,1.74653465 11.0370297,1.95148515 C8.60613861,2.27940594 7.29445545,3.05287129 7.11623762,3.15445545 C6.87029703,3.00118812 5.91683168,2.47188119 4.31287129,2.30970297 C4.33391133,1.90630835 4.39359047,1.50586128 4.49108911,1.11386139 L4.31287129,1.21366337 C4.2333141,1.58561011 4.18502675,1.96356293 4.16851485,2.34356436 C3.87445545,2.50930693 2.72851485,3.23465347 1.62891089,5.08633663 L1.61108911,5.08633663 C1.2954239,5.14442861 0.9857939,5.23153069 0.686138614,5.34653465 C0.658811881,5.40831683 0.632673267,5.46772277 0.607722772,5.52475248 C0.928222275,5.39025703 1.26220671,5.29047993 1.6039604,5.22712871 C1.65920792,5.48554455 1.9229703,6.47465347 2.91386139,7.94138614 C2.91386139,7.9609901 2.28653465,9.91069307 2.41841584,11.9013861 C2.41974218,11.9129751 2.42403939,11.9240251 2.43089109,11.9334653 C1.92673029,12.2277492 1.38794688,12.4582288 0.826930693,12.619604 L0.782376238,12.7372277 C1.03054094,13.2620632 1.32896438,13.761624 1.67346535,14.2289109 C1.8767411,14.5067198 2.09571123,14.7726971 2.32930693,15.0255446 C2.48257426,15.1918812 2.64237624,15.3516832 2.80871287,15.5049505 L2.81940594,15.5156436 C3.06951503,15.7471429 3.33250869,15.964321 3.60712871,16.1661386 L3.62316832,16.1768317 C3.80732673,16.3229703 3.99445545,16.4554455 4.18455446,16.5742574 L4.20237624,16.5849505 C4.29861386,16.6443564 4.39544554,16.7037624 4.49287129,16.7631683 L4.67108911,16.6918812 C4.67108911,16.6918812 5.23425743,16.6473267 5.57287129,16.5956436 L5.58712871,16.6081188 C6.5450407,17.1586311 7.5611818,17.6009514 8.61683168,17.9269307 C8.7219802,17.9269307 8.82712871,17.9269307 8.93227723,17.9269307 L9.18534653,17.9269307 C7.43881188,17.5366337 5.68514851,16.5011881 5.66732673,16.4851485 C5.58661836,15.9659373 5.56033729,15.4397186 5.58891089,14.9150495 C6.05940594,14.7813861 7.98950495,14.2574257 9.4009901,13.6033663 C9.69683168,13.8439604 11.1350495,14.9435644 12.9118812,15.1110891 C12.9000652,15.8080255 12.7798132,16.4988732 12.5554455,17.1588119 L12.7336634,17.080396 C12.9388544,16.4273705 13.0457668,15.7474551 13.0508911,15.0629703 C13.3841584,14.7831683 14.8615842,13.4786139 15.5192079,11.8782178 L15.5708911,11.8782178 C16.2667336,11.8488823 16.9499196,11.6823254 17.5811881,11.3881188 C17.5972277,11.3293069 17.6132673,11.2722772 17.6293069,11.209901 C16.5118812,11.7071287 15.7366337,11.7445545 15.5388119,11.7338614 C15.4853465,11.4219802 15.1823762,10.0853465 13.9508911,8.55980198 C14.4481188,6.17346535 14.4124752,4.86178218 14.4,4.6390099 C14.870495,4.61584158 15.6706931,4.52138614 15.9077228,4.49108911 C15.909413,4.50747279 15.9170161,4.52267896 15.9291089,4.53386139 C16.8341361,5.46076676 17.4959513,6.59705645 17.8556436,7.84158416 C17.8211881,7.56118812 17.7742574,7.2849505 17.7148515,7.01287129 C17.3263297,6.05021946 16.7522668,5.17338087 16.0253465,4.43227723 Z M9.36,13.4679208 C7.90752475,14.1380198 5.88118812,14.6833663 5.50693069,14.7813861 C5.12554455,14.5140594 3.49663366,13.3271287 2.52712871,11.9548515 C2.54705389,11.9412755 2.55852005,11.9183432 2.55742574,11.8942574 C2.42732673,9.93386139 3.04039604,8.00732673 3.04752475,7.98772277 C3.047919,7.9835737 3.047919,7.9793966 3.04752475,7.97524752 C4.1023347,7.50090484 5.18561191,7.09259266 6.29108911,6.75267327 C6.33386139,6.78831683 7.56534653,7.80772277 9.82514851,9.79306931 C9.78059406,10.2314851 9.56316832,12.2845545 9.36,13.4679208 Z M13.8154455,8.52237624 C12.5410704,8.98955516 11.2394592,9.37878868 9.91782178,9.68792079 C7.71326733,7.74891089 6.48356436,6.72950495 6.38554455,6.64752475 C6.57439664,5.51353996 6.83270451,4.39222191 7.1590099,3.28990099 C7.16720481,3.28834498 7.17505271,3.28532655 7.18217822,3.2809901 C7.19465347,3.2809901 8.52594059,2.41841584 11.129703,2.07980198 C12.3247219,2.70633298 13.3907158,3.55283977 14.2716832,4.57485149 C14.2625586,4.58784245 14.2581561,4.60356557 14.2592079,4.61940594 C14.2574257,4.63366337 14.3554455,5.93108911 13.8154455,8.52237624 Z"/></g></g></svg>