<svg xmlns="http://www.w3.org/2000/svg" xmlns:xlink="http://www.w3.org/1999/xlink" width="24px" height="24px" viewBox="0 0 24 24"><g fill="none" fill-rule="evenodd"><g fill-rule="nonzero" transform="translate(4.000000, 4.000000)"><path fill="#F1B461" d="M9.11492063,11.5362737 L15.5352381,8.14823836 C15.3007565,8.71740508 14.980997,9.24406205 14.5879365,9.70848296 C14.5879365,9.70848296 13.5542857,10.9667447 13.8844444,11.5998491 L13.4349206,10.7442311 C13.0957907,10.9755877 12.7328961,11.1666203 12.3530159,11.3137601 L12.7542857,12.1852719 C12.4622222,11.5336248 10.8774603,11.6554775 10.8774603,11.6554775 C10.2876005,11.7132394 9.69268951,11.6730045 9.11492063,11.5362737 Z"/><path fill="#2C3E50" d="M5.38666667,8.4767109 C4.22111202,6.05963774 4.79872587,3.12410005 6.78281081,1.38125479 C8.76689575,-0.361590473 11.638558,-0.455940466 13.7238743,1.15320245 C15.8091906,2.76234537 16.5627923,5.65414526 15.5453968,8.14294041 L9.11492063,11.5362737 C7.4981647,11.1446382 6.13203595,10.0235352 5.38666667,8.4767109 Z"/><path fill="#F1B461" d="M12.8304762,9.57603435 L15.7003175,15.0567577 C15.7383257,15.1276599 15.7467991,15.2117161 15.7237605,15.2893131 C15.7007218,15.3669102 15.6481865,15.4312603 15.5784127,15.4673484 L14.7301587,15.9097268 C14.6610749,15.9467342 14.5804876,15.9526694 14.5071034,15.9261548 C14.4337192,15.8996402 14.3739202,15.8429817 14.3415873,15.7693313 L11.8019048,10.1084778 L12.8304762,9.57603435 Z"/><path fill="#BF8C4E" d="M12.632381,9.67934426 L15.2787302,14.8686807 C15.3498413,15.0090762 15.3371429,15.1627166 15.248254,15.2103981 L14.7403175,15.4752953 C14.6514286,15.5229768 14.5244444,15.4408587 14.4584127,15.2978142 L12.0203175,9.99986989 L12.632381,9.67934426 Z"/><path fill="silver" d="M15.5352381,8.14823836 C15.4869841,8.2674421 15.4336508,8.38399688 15.3777778,8.49790268 L9.48063492,11.610445 C9.35873016,11.5892532 9.22666667,11.5654124 9.11492063,11.5362737" style="mix-blend-mode:multiply"/><path fill="#2C3E50" d="M14.3060317,13.6289617 L14.7149206,14.3494822 C14.7149206,14.368025 14.7022222,14.4024616 14.6615873,14.4236534 L14.4253968,14.5481551 C14.3847619,14.5693469 14.344127,14.5693469 14.3365079,14.5481551 L14.024127,13.7746552 L14.3060317,13.6289617 Z"/><path fill="#DDDDDC" d="M7.85777778,0.630455373 L15.1593651,15.6872131 L14.7301587,15.9097268 C14.6610749,15.9467342 14.5804876,15.9526694 14.5071034,15.9261548 C14.4337192,15.8996402 14.3739202,15.8429817 14.3415873,15.7693313 L12.3606349,11.3137601 L12.7542857,12.1852719 C12.4622222,11.5336248 10.8774603,11.6554775 10.8774603,11.6554775 C10.4106099,11.698024 9.9404866,11.6793354 9.47809524,11.5998491 C9.35619048,11.5786573 9.22412698,11.5548165 9.11238095,11.5256779 C6.82449099,10.9625149 5.11696254,8.96952646 4.83663736,6.53512707 C4.55631218,4.10072767 5.76281185,1.74268288 7.85777778,0.630455373 Z" style="mix-blend-mode:multiply"/><path fill="#F1B461" d="M7.12888889,11.5362737 L0.708571429,8.14823836 C0.943053071,8.71740508 1.26281254,9.24406205 1.65587302,9.70848296 C1.65587302,9.70848296 2.68952381,10.9667447 2.35936508,11.5998491 L2.79365079,10.7415821 C3.13279142,10.9729195 3.49568388,11.1639509 3.87555556,11.3111111 L3.48952381,12.1852719 C3.7815873,11.5336248 5.36634921,11.6554775 5.36634921,11.6554775 C5.9562096,11.7131945 6.55111384,11.6729601 7.12888889,11.5362737 Z"/><path fill="#EE442A" d="M10.8571429,8.4767109 C12.0226975,6.05963774 11.4450837,3.12410005 9.46099871,1.38125479 C7.47691378,-0.361590473 4.60525153,-0.455940466 2.51993524,1.15320245 C0.434618941,2.76234537 -0.318982798,5.65414526 0.698412698,8.14294041 L7.12888889,11.5362737 C8.74564482,11.1446382 10.1117736,10.0235352 10.8571429,8.4767109 Z"/><path fill="#F1B461" d="M3.41587302,9.57603435 L0.543492063,15.0567577 C0.505483788,15.1276599 0.497010402,15.2117161 0.52004904,15.2893131 C0.543087679,15.3669102 0.595623053,15.4312603 0.665396825,15.4673484 L1.50349206,15.9097268 C1.57257593,15.9467342 1.65316319,15.9526694 1.72654737,15.9261548 C1.79993156,15.8996402 1.85973059,15.8429817 1.89206349,15.7693313 L4.43174603,10.1084778 L3.41587302,9.57603435 Z"/><path fill="#BF8C4E" d="M3.61142857,9.67934426 L0.967619048,14.8686807 C0.896507937,15.0090762 0.909206349,15.1627166 0.998095238,15.2103981 L1.50603175,15.4752953 C1.59492063,15.5229768 1.72190476,15.4408587 1.78793651,15.2978142 L4.22603175,9.99986989 L3.61142857,9.67934426 Z"/><path fill="#EE442A" d="M1.91746032,13.6289617 L1.50857143,14.3494822 C1.50857143,14.368025 1.52126984,14.4024616 1.56190476,14.4236534 L1.79555556,14.5481551 C1.83619048,14.5693469 1.8768254,14.5693469 1.88444444,14.5481551 L2.20190476,13.7746552 L1.91746032,13.6289617 Z"/><path fill="silver" d="M0.708571429,8.14823836 C0.756825397,8.2674421 0.81015873,8.38399688 0.866031746,8.49790268 L6.7631746,11.610445 C6.88507937,11.5892532 7.01714286,11.5654124 7.12888889,11.5362737" style="mix-blend-mode:multiply"/><path fill="#DDDDDC" d="M8.38095238,0.630455373 L1.08444444,15.6872131 L1.50349206,15.9070778 C1.57257593,15.9440852 1.65316319,15.9500204 1.72654737,15.9235059 C1.79993156,15.8969913 1.85973059,15.8403327 1.89206349,15.7666823 L3.88571429,11.3137601 L3.48952381,12.1852719 C3.7815873,11.5336248 5.36634921,11.6554775 5.36634921,11.6554775 C5.83319966,11.698024 6.30332292,11.6793354 6.76571429,11.5998491 C6.88761905,11.5786573 7.01968254,11.5548165 7.13142857,11.5256779 C9.41866154,10.9610743 11.1248553,8.96740673 11.4040234,6.53320063 C11.6831915,4.09899453 10.4759755,1.74182572 8.38095238,0.630455373 Z" style="mix-blend-mode:multiply"/></g></g></svg>