<svg xmlns="http://www.w3.org/2000/svg" xmlns:xlink="http://www.w3.org/1999/xlink" width="24px" height="24px" viewBox="0 0 24 24"><g fill="none" fill-rule="evenodd"><g transform="translate(3.000000, 3.000000)"><circle cx="8.96351351" cy="8.96351351" r="8.96351351" fill="#CF3B00" fill-rule="nonzero"/><circle cx="8.96351351" cy="7.52108108" r="6.42405405" fill="#ED4807" fill-rule="nonzero"/><path fill="#0D0D0D" d="M3.55271368e-15,8.61810811 L17.9197297,8.61810811 C17.9197297,8.73243243 17.9197297,8.84675676 17.9197297,8.96351351 C17.9197297,9.08027027 17.9197297,9.19459459 17.9197297,9.30891892 L3.55271368e-15,9.30891892 C3.55271368e-15,9.19459459 3.55271368e-15,9.08027027 3.55271368e-15,8.96351351 C3.55271368e-15,8.84675676 3.55271368e-15,8.73243243 3.55271368e-15,8.61810811 Z"/><path fill="#0D0D0D" d="M8.61810811,17.9197297 L8.61810811,3.55271368e-15 C8.73243243,3.55271368e-15 8.84675676,3.55271368e-15 8.96351351,3.55271368e-15 C9.08027027,3.55271368e-15 9.19459459,3.55271368e-15 9.30891892,3.55271368e-15 L9.30891892,17.9197297 L8.96351351,17.9197297 L8.61810811,17.9197297 Z"/><path fill="#0D0D0D" d="M8.96351351 6.21C8.73800291 6.20869702 8.51285934 6.19162837 8.28972973 6.15891892 6.01783784 5.83783784 4.84297297 4.41243243 3.6072973 2.91891892 3.48324324 2.76810811 3.23027027 2.47135135 3.03081081 2.23783784 3.19297297 2.09351351 3.36243243 1.95486486 3.53918919 1.82189189L4.32243243 2.75108108C5.33918919 4.0427027 6.58459459 5.12513514 8.28972973 5.46081081 8.73643554 5.52760916 9.19059148 5.52760916 9.6372973 5.46081081 11.34 5.12756757 12.5878378 4.0427027 13.6045946 2.75108108L14.3878378 1.82189189C14.562973 1.95486486 14.7324324 2.09351351 14.8962162 2.23783784 14.6967568 2.48108108 14.4437838 2.77054054 14.3197297 2.91891892 13.0840541 4.41243243 11.9189189 5.83783784 9.6372973 6.15891892 9.41416593 6.1916126 9.18902347 6.20868117 8.96351351 6.21zM8.96351351 11.717027C8.73800226 11.7183141 8.51285759 11.7353828 8.28972973 11.7681081 6.01783784 12.1013514 4.84297297 13.5145946 3.6072973 15.0008108 3.48324324 15.1516216 3.23027027 15.4483784 3.03081081 15.6818919 3.19297297 15.8262162 3.36243243 15.9648649 3.53918919 16.0978378L4.32243243 15.1686486C5.33918919 13.877027 6.58459459 12.7945946 8.28972973 12.4589189 8.73645686 12.3924078 9.19057017 12.3924078 9.6372973 12.4589189 11.34 12.7945946 12.5878378 13.877027 13.6045946 15.1686486L14.3878378 16.0978378C14.562973 15.9648649 14.7324324 15.8262162 14.8962162 15.6818919 14.6967568 15.4386486 14.4437838 15.1491892 14.3197297 15.0008108 13.0840541 13.5145946 11.9189189 12.1013514 9.6372973 11.7681081 9.41416681 11.7354065 9.1890238 11.7183379 8.96351351 11.717027z"/><path fill="#242424" d="M2.63189189,8.61810811 L15.2951351,8.61810811 C15.2552029,8.85031484 15.2024191,9.08012741 15.137027,9.30648649 L2.79243243,9.30648649 C2.72622038,9.08017497 2.67262438,8.85036185 2.63189189,8.61810811 Z"/><path fill="#242424" d="M8.61810811,13.9354054 L8.61810811,1.10675676 C8.73162162,1.10675676 8.84675676,1.10675676 8.96351351,1.10675676 C9.08027027,1.10675676 9.19540541,1.10675676 9.30891892,1.10675676 L9.30891892,13.9354054 C9.19540541,13.9354054 9.08027027,13.9354054 8.96351351,13.9354054 C8.84675676,13.9354054 8.73162162,13.9354054 8.61810811,13.9354054 Z"/><path fill="#242424" d="M8.96351351 6.21C8.73800291 6.20869702 8.51285934 6.19162837 8.28972973 6.15891892 6.27081081 5.86216216 5.12756757 4.71405405 4.01837838 3.41756757 4.15828528 3.24785255 4.30686143 3.08547425 4.46351351 2.93108108 5.45351351 4.1472973 6.6527027 5.14459459 8.28972973 5.46324324 8.73643554 5.53004159 9.19059148 5.53004159 9.6372973 5.46324324 11.2645946 5.14459459 12.4735135 4.14486486 13.4610811 2.93108108 13.6176713 3.08553384 13.7662445 3.24790889 13.9062162 3.41756757 12.8067568 4.71405405 11.6537838 5.86216216 9.6372973 6.15891892 9.41416593 6.1916126 9.18902347 6.20868117 8.96351351 6.21zM8.96351351 11.717027C8.73800226 11.7183141 8.51285759 11.7353828 8.28972973 11.7681081 7.28297868 11.9072888 6.33383026 12.3204377 5.54594595 12.9624324 5.76377831 13.0990474 5.98958691 13.2225111 6.22216216 13.3321622 6.84473269 12.9033912 7.54828891 12.6062421 8.28972973 12.4589189 8.73645686 12.3924078 9.19057017 12.3924078 9.6372973 12.4589189 10.3787381 12.6062421 11.0822943 12.9033912 11.7048649 13.3321622 11.9374639 13.2225579 12.1632753 13.0990927 12.3810811 12.9624324 11.5931968 12.3204377 10.6440483 11.9072888 9.6372973 11.7681081 9.41416681 11.7354065 9.1890238 11.7183379 8.96351351 11.717027z"/></g></g></svg>