<svg xmlns="http://www.w3.org/2000/svg" xmlns:xlink="http://www.w3.org/1999/xlink" width="24px" height="24px" viewBox="0 0 24 24"><g fill="none" fill-rule="evenodd"><g fill-rule="nonzero" transform="translate(3.000000, 3.000000)"><ellipse cx="8.98690909" cy="9.0693578" fill="#F7F7E4" rx="8.838" ry="8.91908257"/><g fill="#CCCAA6" opacity="0.4" transform="translate(9.000000, 0.165138)"><path d="M8.88054545,8.91743119 C8.88054545,13.8423924 4.9243707,17.8348624 0.0441818182,17.8348624 C3.69490909,15.4007339 5.36563636,13.8418349 5.36563636,8.91743119 C5.36563636,3.99302752 3.07472727,1.42678899 0.0441818182,0 C2.38773116,-2.93343331e-16 4.63529483,0.939512375 6.29243447,2.61185513 C7.9495741,4.28419788 8.88054545,6.55238139 8.88054545,8.91743119 Z"/></g><path fill="#D3D1A9" d="M2.96672727,15.5988991 L2.80309091,15.4436697 C4.54037104,13.7886284 5.51929576,11.4803258 5.50636364,9.0693578 C5.51733311,6.6599411 4.5400466,4.35330586 2.80636364,2.69669725 L2.97,2.54311927 C4.74033109,4.24176658 5.7348881,6.60421378 5.71745455,9.0693578 C5.73730947,11.5366196 4.74107892,13.9014227 2.96672727,15.5988991 Z"/><path fill="#9D0129" d="M2.57727273 3.46788991C2.50838776 3.4555463 2.45489913 3.40037296 2.4441775 3.33060265 2.43345587 3.26083233 2.46787335 3.19190143 2.52981818 3.15908257L3.20563636 2.94605505 3.47236364 2.31192661C3.5186722 2.25628847 3.59557633 2.23773431 3.66181339 2.26621929 3.72805046 2.29470427 3.76805537 2.36353467 3.76036364 2.43577982L3.46581818 3.13761468C3.446961 3.17994134 3.411326 3.21230708 3.36763636 3.22678899L2.61818182 3.4546789C2.60517988 3.4608774 2.59142505 3.46531932 2.57727273 3.46788991zM3.07145455 4.26055046C3.00164612 4.24298255 2.95139732 4.18146087 2.94763565 4.10895388 2.94387398 4.03644688 2.98748201 3.96996615 3.05509091 3.94513761L3.96981818 3.85266055 4.25454545 3.09137615C4.25892131 3.02100098 4.30709333 2.9611939 4.37446396 2.94249357 4.44183458 2.92379324 4.5135385 2.95032589 4.5529623 3.00854342 4.5923861 3.06676095 4.59083094 3.14381769 4.54909091 3.20036697L4.23818182 4.05412844C4.21614466 4.10966789 4.16606516 4.14883557 4.10727273 4.15651376L3.096 4.26055046 3.07145455 4.26055046zM4.60309091 5.06807339L4.58181818 5.06807339 3.57872727 4.97889908C3.5113495 4.95198419 3.46953674 4.88355376 3.47596104 4.81071267 3.48238534 4.73787158 3.53551655 4.67796919 3.60654545 4.66348624L4.49509091 4.74110092 4.83709091 3.90385321C4.84394082 3.83349804 4.89440693 3.77534668 4.96261083 3.75921846 5.03081472 3.74309023 5.10162634 3.77256296 5.13873433 3.83252337 5.17584232 3.89248379 5.1710148 3.96963053 5.12672727 4.02440367L4.74545455 4.9706422C4.72010608 5.02770069 4.66499695 5.06541641 4.60309091 5.06807339zM5.02363636 5.95816514L4.99090909 5.95816514 3.92727273 5.72366972C3.86443881 5.6883703 3.83180574 5.61580856 3.84684809 5.54484039 3.86189045 5.47387221 3.92108233 5.42113238 3.99272727 5.41486239L4.94509091 5.6146789 5.4 4.8253211C5.45350525 4.7740624 5.53438201 4.76527373 5.597474 4.80386211 5.66056599 4.84245048 5.69026948 4.91887233 5.67 4.99045872L5.15781818 5.87889908C5.12918005 5.92644712 5.07874004 5.95624386 5.02363636 5.95816514zM5.27236364 6.92091743C5.2587881 6.92275558 5.24503009 6.92275558 5.23145455 6.92091743L4.18418182 6.63192661C4.12266827 6.59351029 4.09344912 6.51889162 4.11232317 6.44841693 4.13119723 6.37794224 4.19368527 6.32833669 4.266 6.32642202L5.22 6.58899083 5.82872727 5.90036697C5.85795011 5.83595798 5.92462401 5.79753323 5.99444266 5.80486375 6.06426131 5.81219428 6.12166945 5.86364688 6.13712834 5.93274718 6.15258723 6.00184748 6.12265272 6.07320026 6.06272727 6.11009174L5.39018182 6.87137615C5.35917301 6.90330322 5.31666226 6.92117853 5.27236364 6.92091743zM5.53418182 7.97779817C5.51520739 7.97777564 5.49638141 7.97442293 5.47854545 7.96788991L4.41818182 7.5533945C4.34503212 7.55358666 4.28064149 7.50476103 4.26046636 7.43380324 4.24029123 7.36284545 4.26923292 7.28699389 4.33135481 7.24801591 4.39347669 7.20903792 4.47368698 7.21640278 4.52781818 7.26605505L5.49163636 7.64091743 6.07581818 7.00844037C6.10628976 6.94446754 6.17386108 6.90730143 6.24364979 6.91612832 6.31343851 6.92495521 6.36983125 6.97780031 6.38371638 7.04738338 6.39760152 7.11696646 6.36587261 7.18772015 6.30490909 7.22311927L5.65036364 7.93486239C5.61869697 7.9639675 5.57698472 7.97938254 5.53418182 7.97779817zM5.59963636 9.28073394C5.57152556 9.28064714 5.54391093 9.27325359 5.51945455 9.25926606L4.56054545 8.68458716C4.49421827 8.66546063 4.44689969 8.60641203 4.44224143 8.53695621 4.43758317 8.46750038 4.47658577 8.40255569 4.53975418 8.37458406 4.60292259 8.34661244 4.67668891 8.36162189 4.72418182 8.41211009L5.59309091 8.93229358 6.29836364 8.39394495C6.33976899 8.33686756 6.4125985 8.31274277 6.47946768 8.3339542 6.54633686 8.35516563 6.59239242 8.4170017 6.59399336 8.48772103 6.5955943 8.55844036 6.552385 8.62233445 6.48654545 8.6466055L5.69290909 9.24770642C5.66593527 9.26815564 5.6333576 9.27969127 5.59963636 9.28073394zM5.51290909 10.5688073C5.4773153 10.5683325 5.44284571 10.5561574 5.41472727 10.5341284L4.56054545 9.84385321C4.49545332 9.81744783 4.45428201 9.75210772 4.45819512 9.68142014 4.46210823 9.61073255 4.510235 9.5504269 4.57783649 9.53150255 4.64543798 9.51257819 4.71747148 9.53924618 4.75690909 9.59779817L5.52927273 10.220367 6.318 9.77614679C6.36661535 9.72494667 6.44219383 9.71078441 6.50578165 9.74095933 6.56936948 9.77113426 6.60676927 9.83890917 6.59870487 9.90935231 6.59064048 9.97979545 6.53891244 10.0371788 6.47018182 10.0519266L5.58818182 10.5473394C5.56517956 10.5605311 5.53935076 10.5678975 5.51290909 10.5688073zM5.23636364 11.8816514C5.19558976 11.881094 5.15649119 11.8651933 5.12672727 11.8370642L4.41818182 11.1352294C4.35628889 11.1023827 4.32191881 11.0334749 4.33264531 10.9637391 4.3433718 10.8940034 4.39682402 10.8388531 4.46567141 10.8264871 4.53451879 10.8141211 4.60354427 10.8472725 4.63745455 10.9089908L5.292 11.5480734 6.17727273 11.3185321C6.24871961 11.3224594 6.30935261 11.3727772 6.32697119 11.4427632 6.34458977 11.5127491 6.31510759 11.5861711 6.25418182 11.6240367L5.28381818 11.8750459 5.23636364 11.8816514zM4.67509091 13.2754128C4.61689111 13.2737985 4.56392447 13.2410981 4.536 13.1895413L4.09090909 12.3176147C4.04261465 12.2663534 4.03203264 12.1897453 4.06459426 12.1271094 4.09715589 12.0644735 4.16562959 12.0297205 4.2348713 12.0406874 4.304113 12.0516542 4.35874492 12.1059053 4.37072727 12.1755963L4.75690909 12.9484404 5.76818182 12.8130275C5.83960474 12.8246126 5.89501485 12.8821502 5.90445188 12.9545296 5.91388891 13.026909 5.87511324 13.0969531 5.80909091 13.126789L4.68654545 13.2770642 4.67509091 13.2754128zM4.79618182 14.4759633L4.77981818 14.4759633 3.996 14.3983486C3.94410248 14.3916876 3.89848931 14.3603861 3.87327273 14.3141284L3.474 13.5412844C3.46091122 13.4701626 3.49521372 13.3987227 3.55863686 13.3650159 3.62206 13.3313091 3.69983868 13.3431825 3.75054545 13.3943119L4.11054545 14.0829358 4.81090909 14.1522936C4.87857667 14.1768059 4.92246394 14.2430199 4.91907998 14.315494 4.91569601 14.3879681 4.86583357 14.449724 4.79618182 14.4677064L4.79618182 14.4759633zM3.92727273 15.493211C3.91423559 15.4949044 3.90103713 15.4949044 3.888 15.493211L3.21218182 15.3165138C3.16819162 15.3039733 3.13140453 15.2734353 3.11072727 15.2322936L2.78181818 14.5321101C2.77015123 14.4597982 2.80709009 14.3883739 2.87254484 14.3566827 2.93799959 14.3249914 3.01631963 14.3406108 3.06490909 14.3950459L3.35945455 15.0275229 3.96490909 15.1926606C4.02808879 15.2236206 4.06464513 15.2918149 4.05575123 15.3621229 4.04685734 15.4324309 3.99449703 15.4891701 3.92563636 15.5031193L3.92727273 15.493211z"/><path fill="#D3D1A9" d="M15.0741818,15.5988991 L15.2378182,15.4436697 C13.5116492,13.7812062 12.5349888,11.4781635 12.5349888,9.07018349 C12.5349888,6.66220345 13.5116492,4.35916077 15.2378182,2.69669725 L15.0741818,2.54311927 C13.3026448,4.24119671 12.3068718,6.6037182 12.3234545,9.0693578 C12.3035996,11.5366196 13.2998302,13.9014227 15.0741818,15.5988991 Z"/><path fill="#9D0129" d="M15.4636364 3.46788991C15.5325213 3.4555463 15.58601 3.40037296 15.5967316 3.33060265 15.6074532 3.26083233 15.5730357 3.19190143 15.5110909 3.15908257L14.8352727 2.94605505 14.5636364 2.31192661C14.5173278 2.25628847 14.4404237 2.23773431 14.3741866 2.26621929 14.3079495 2.29470427 14.2679446 2.36353467 14.2756364 2.43577982L14.5750909 3.13761468C14.5939481 3.17994134 14.6295831 3.21230708 14.6732727 3.22678899L15.4178182 3.46293578C15.4327829 3.4667599 15.4482085 3.46842781 15.4636364 3.46788991zM14.9694545 4.26055046C15.0391063 4.24256801 15.0889687 4.18081213 15.0923527 4.10833802 15.0957367 4.0358639 15.0518494 3.96964997 14.9841818 3.94513761L14.0727273 3.85266055 13.7945455 3.09137615C13.7901696 3.02100098 13.7419976 2.9611939 13.674627 2.94249357 13.6072563 2.92379324 13.5355524 2.95032589 13.4961286 3.00854342 13.4567048 3.06676095 13.45826 3.14381769 13.5 3.20036697L13.8109091 4.05412844C13.8329463 4.10966789 13.8830258 4.14883557 13.9418182 4.15651376L14.9530909 4.26055046 14.9694545 4.26055046zM13.4378182 5.06807339L13.4509091 5.06807339 14.454 4.97889908C14.5213778 4.95198419 14.5631905 4.88355376 14.5567662 4.81071267 14.5503419 4.73787158 14.4972107 4.67796919 14.4261818 4.66348624L13.5376364 4.74110092 13.1956364 3.90385321C13.1887865 3.83349804 13.1383203 3.77534668 13.0701164 3.75921846 13.0019126 3.74309023 12.9311009 3.77256296 12.8939929 3.83252337 12.856885 3.89248379 12.8617125 3.96963053 12.906 4.02440367L13.2921818 4.96899083C13.3175621 5.02774009 13.3743336 5.0663641 13.4378182 5.06807339zM13.0172727 5.95816514L13.05 5.95816514 14.1201818 5.72697248C14.1901309 5.73309406 14.2561538 5.69350073 14.2842662 5.62857256 14.3123785 5.56364439 14.2963141 5.48785404 14.2443417 5.44021345 14.1923694 5.39257286 14.1160739 5.38370124 14.0547273 5.41816514L13.0909091 5.6146789 12.6327273 4.8187156C12.5794931 4.7656938 12.4974105 4.7558465 12.4333425 4.79479579 12.3692745 4.83374507 12.33953 4.91157612 12.3610909 4.98385321L12.8765455 5.87724771C12.9060105 5.92739991 12.9594981 5.95815497 13.0172727 5.95816514zM12.7636364 6.92091743C12.7772119 6.92275558 12.7909699 6.92275558 12.8045455 6.92091743L13.8518182 6.63192661C13.9133317 6.59351029 13.9425509 6.51889162 13.9236768 6.44841693 13.9048028 6.37794224 13.8423147 6.32833669 13.77 6.32642202L12.816 6.58899083 12.2121818 5.89541284C12.1805972 5.8338039 12.1142275 5.79868144 12.0460494 5.80749656 11.9778713 5.81631167 11.9224192 5.86718515 11.9072453 5.93483976 11.8920714 6.00249437 11.9204104 6.07250735 11.9781818 6.11009174L12.6507273 6.87137615C12.6805378 6.90209369 12.7210444 6.91986682 12.7636364 6.92091743zM12.5067273 7.97779817C12.5257017 7.97777564 12.5445277 7.97442293 12.5623636 7.96788991L13.626 7.5533945C13.6987265 7.55210529 13.76188 7.50252424 13.7810049 7.43170192 13.8001298 7.3608796 13.7706348 7.28581852 13.7086119 7.24747075 13.6465889 7.20912297 13.5669281 7.21669475 13.5130909 7.26605505L12.5492727 7.64091743 11.9650909 7.00844037C11.9346193 6.94446754 11.867048 6.90730143 11.7972593 6.91612832 11.7274706 6.92495521 11.6710778 6.97780031 11.6571927 7.04738338 11.6433076 7.11696646 11.6750365 7.18772015 11.736 7.22311927L12.3905455 7.93486239C12.4222121 7.9639675 12.4639244 7.97938254 12.5067273 7.97779817zM12.4363636 9.28073394C12.4644744 9.28064714 12.4920891 9.27325359 12.5165455 9.25926606L13.4754545 8.68458716C13.5417817 8.66546063 13.5891003 8.60641203 13.5937586 8.53695621 13.5984168 8.46750038 13.5594142 8.40255569 13.4962458 8.37458406 13.4330774 8.34661244 13.3593111 8.36162189 13.3118182 8.41211009L12.4527273 8.93229358 11.7474545 8.39394495C11.6797408 8.36898298 11.6038166 8.39168166 11.5605023 8.44983718 11.5171881 8.50799271 11.5166887 8.5879033 11.5592727 8.6466055L12.348 9.24770642C12.3736085 9.26722105 12.4043373 9.27870651 12.4363636 9.28073394zM12.528 10.5688073C12.5635938 10.5683325 12.5980634 10.5561574 12.6261818 10.5341284L13.4803636 9.84385321C13.5454558 9.81744783 13.5866271 9.75210772 13.582714 9.68142014 13.5788009 9.61073255 13.5306741 9.5504269 13.4630726 9.53150255 13.3954711 9.51257819 13.3234376 9.53924618 13.284 9.59779817L12.5116364 10.220367 11.7212727 9.77614679C11.6726574 9.72494667 11.5970789 9.71078441 11.5334911 9.74095933 11.4699032 9.77113426 11.4325035 9.83890917 11.4405679 9.90935231 11.4486323 9.97979545 11.5003603 10.0371788 11.5690909 10.0519266L12.4510909 10.5473394C12.4745791 10.5607905 12.501001 10.5681658 12.528 10.5688073zM12.8012727 11.8816514C12.8420466 11.881094 12.8811452 11.8651933 12.9109091 11.8370642L13.6227273 11.1368807C13.6846202 11.104034 13.7189903 11.0351263 13.7082638 10.9653905 13.6975373 10.8956548 13.6440851 10.8405045 13.5752377 10.8281385 13.5063903 10.8157724 13.4373648 10.8489239 13.4034545 10.9106422L12.7489091 11.5497248 11.8636364 11.3201835C11.7921895 11.3241107 11.7315565 11.3744286 11.7139379 11.4444145 11.6963193 11.5144005 11.7258015 11.5878225 11.7867273 11.6256881L12.7636364 11.8766972 12.8012727 11.8816514zM13.3658182 13.2754128C13.424018 13.2737985 13.4769846 13.2410981 13.5049091 13.1895413L13.9418182 12.3176147C13.9901126 12.2663534 14.0006946 12.1897453 13.968133 12.1271094 13.9355714 12.0644735 13.8670977 12.0297205 13.797856 12.0406874 13.7286143 12.0516542 13.6739823 12.1059053 13.662 12.1755963L13.2758182 12.946789 12.2645455 12.8113761C12.1931225 12.8229612 12.1377124 12.8804988 12.1282754 12.9528782 12.1188384 13.0252576 12.157614 13.0953017 12.2236364 13.1251376L13.3461818 13.2754128 13.3658182 13.2754128zM13.2447273 14.4759633L13.2545455 14.4759633 14.0383636 14.3983486C14.0902612 14.3916876 14.1358743 14.3603861 14.1610909 14.3141284L14.5636364 13.5412844C14.6134138 13.4910921 14.6258214 13.414405 14.5944492 13.3508411 14.563077 13.2872771 14.4949504 13.2510707 14.4252648 13.2609266 14.3555792 13.2707825 14.2999398 13.3244936 14.2870909 13.3943119L13.9270909 14.0829358 13.2267273 14.1522936C13.1590597 14.1768059 13.1151724 14.2430199 13.1185564 14.315494 13.1219404 14.3879681 13.1718028 14.449724 13.2414545 14.4677064L13.2447273 14.4759633zM14.1152727 15.493211C14.1283162 15.4948021 14.141502 15.4948021 14.1545455 15.493211L14.8303636 15.3165138C14.8743538 15.3039733 14.9111409 15.2734353 14.9318182 15.2322936L15.2590909 14.5321101C15.3057797 14.4798044 15.3144774 14.4033796 15.2807549 14.3417537 15.2470324 14.2801279 15.178305 14.2468521 15.109571 14.2588716 15.040837 14.270891 14.9872106 14.3255627 14.976 14.3950459L14.6814545 15.0275229 14.076 15.1926606C14.0128203 15.2236206 13.976264 15.2918149 13.9851579 15.3621229 13.9940518 15.4324309 14.0464121 15.4891701 14.1152727 15.5031193L14.1152727 15.493211z"/></g></g></svg>