<svg xmlns="http://www.w3.org/2000/svg" xmlns:xlink="http://www.w3.org/1999/xlink" width="24px" height="24px" viewBox="0 0 24 24"><g fill="none" fill-rule="evenodd"><g fill-rule="nonzero" transform="translate(4.000000, 4.000000)"><path fill="#E2E3E4" d="M1.50166667,13.2529167 C1.50166667,13.2529167 2.83333333,15.2315278 4.95833333,16.0838889 C7.08333333,16.93625 9.62152778,17.57375 13.0356944,15.53375 C14.0509722,14.9505556 15.1606944,13.3709722 15.1606944,13.3709722 L14.6884722,12.2234722 L15.725,8.12458333 L15.1843056,3.70694444 C15.1843056,3.70694444 13.8620833,1.11208333 9.87416667,0.36125 C5.88625,-0.389583333 2.75777778,2.63263889 2.75777778,2.63263889 L1.50166667,13.2529167 Z"/><path fill="#2C3A90" d="M15.1677778,13.3733333 C15.1677778,13.3733333 14.7475,11.7630556 8.16708333,11.7205556 C8.16708333,11.7205556 6.91569444,13.5244444 5.67375,14.0675 C4.43180556,14.6105556 2.81444444,14.5397222 1.44972222,13.1018056 C0.363611111,11.0311111 -0.391944444,7.97583333 0.960972222,5.14722222 C2.31388889,2.31861111 4.92291667,0.861805556 6.84722222,1.15930556 C7.53535287,1.352474 8.14043226,1.76748044 8.56847222,2.33986111 C10.857782,2.13159141 13.1576258,2.60388077 15.1795833,3.6975 C16.5277778,5.19444444 18.0081944,9.77736111 15.1677778,13.3733333 Z"/><path fill="#F8A035" d="M16.4758333 10.1220833C16.4545833 10.2165278 13.9234722 9.06430556 11.5363889 8.74555556 9.94232372 8.51645992 8.36490059 8.18362364 6.81416667 7.74916667 6.81416667 7.74916667 6.81416667 5.62416667 7.03138889 5.15194444 7.65708333 4.91583333 11.475 4.82375 14.0061111 5.32666667 15.3377778 5.53208333 16.25625 6.28291667 16.4616667 6.79527778 16.6670833 7.30763889 16.8040278 8.62513889 16.4758333 10.1220833zM5.57458333 14.0013889C5.57458333 14.0013889 3.65027778 9.73486111 4.15791667 5.97361111 4.42708333 3.43069444 5.03861111 2.17222222 5.98305556 1.08611111 4.93708333 1.1475 3.52986111 1.91013889 3.52986111 1.91013889 3.52986111 1.91013889.95625 4.08708333 1.18055556 8.29930556 1.33166667 11.7654167 3.83208333 14.3083333 3.83208333 14.3083333 3.83208333 14.3083333 4.93 14.2988889 5.57458333 14.0013889zM4.68208333 15.95875C4.68208333 15.95875 8.0325 17.3754167 12.0345833 11.9448611 12.6177778 11.9448611 13.8691667 12.3863889 13.8077778 12.4690278 13.220439 14.4555049 11.7122739 16.0374962 9.75611111 16.7190278 8.15763889 17.1204167 5.78 16.6670833 4.68208333 15.95875zM14.1666667 3.23236111C14.1666667 3.23236111 13.9116667 1.74486111 12.0156944.975138889 10.1197222.205416667 9.18236111.236111111 9.18236111.236111111 10.4203175.737882491 11.5152225 1.5375687 12.3698611 2.56416667 13.0451389 2.79083333 14.1666667 3.23236111 14.1666667 3.23236111z"/><path fill="#202670" d="M8.075,11.6875 C8.075,11.6875 5.17555556,6.54972222 8.56138889,2.34930556 L8.32527778,2.16513889 C8.32527778,2.16513889 6.43638889,4.47194444 6.65125,7.59569444 C6.86611111,10.7194444 8.075,11.6875 8.075,11.6875 Z"/></g></g></svg>