<svg xmlns="http://www.w3.org/2000/svg" viewBox="0 0 298 298"><defs><style>.cls-1{fill:#d8d8d8;}</style></defs><title>1</title><g id="Layer_2" data-name="Layer 2"><g id="Layer_1-2" data-name="Layer 1"><circle cx="149" cy="149" r="149"/><path class="cls-1" d="M34,112.49l49.61,14L145,81.84V28.16L124.43,13.21a138.14,138.14,0,0,0-99.36,75Z"/><path class="cls-1" d="M54,249.13,79.8,247.9,107.1,206,84,134.87,31.82,120.18,11.61,136.09A137.71,137.71,0,0,0,51.42,246.58C52.29,247.44,53.16,248.29,54,249.13Z"/><path class="cls-1" d="M153,28.16V81.84l61.39,44.6,49.61-14,8.93-24.25a138.14,138.14,0,0,0-99.36-75Z"/><path class="cls-1" d="M266.18,120.18,214,134.87,190.9,206l27.3,41.92L244,249.13c.88-.84,1.75-1.69,2.62-2.55a137.71,137.71,0,0,0,39.81-110.49Z"/><path class="cls-1" d="M211.52,252.3,182,206.93H116L86.48,252.31l9,23.93a138.38,138.38,0,0,0,106.94,0Z"/></g></g></svg>