<svg xmlns="http://www.w3.org/2000/svg" viewBox="0 0 280.08 278.88"><defs><style>.cls-1{fill:#292d1e;}.cls-2{fill:#893b24;}.cls-3{fill:#db4c2b;}.cls-4{fill:#d0ffce;}</style></defs><title>10</title><g id="Layer_2" data-name="Layer 2"><g id="Layer_1-2" data-name="Layer 1"><path class="cls-1" d="M69.73,130,68,124.09c-7.13-23.77-7.36-69.66,8.51-87.45C85.91,26,105.57,4,146.49,22.71a10.33,10.33,0,0,1,6.26,8.2c.55,3.85,2.24,15.54-38.42,57.25-19.53,20-39.72,37.62-39.92,37.8Z"/><path class="cls-2" d="M144.19,30.66a3.46,3.46,0,0,0-1-.68C107.61,13.72,91.85,31.4,82.43,42c-12.18,13.65-13.24,50.7-8.38,73.61,7.13-6.4,21-19.13,34.58-33,34.19-35.07,36.7-47,36.2-50.48A2.27,2.27,0,0,0,144.19,30.66Z"/><rect class="cls-1" x="31.22" y="133.82" width="84.92" height="142.78" rx="16.46" transform="translate(-123.52 112.2) rotate(-45)"/><rect class="cls-3" x="39.17" y="141.77" width="69.02" height="126.88" rx="8.5" transform="translate(-123.52 112.2) rotate(-45)"/><rect class="cls-1" x="48.31" y="153.35" width="50.74" height="103.72" rx="10.82" transform="translate(-123.52 112.2) rotate(-45)"/><rect class="cls-4" x="53.53" y="158.57" width="40.29" height="93.27" rx="5.59" transform="translate(-123.52 112.2) rotate(-45)"/><path class="cls-1" d="M96.52,227.81l-46-46a5,5,0,0,1,7.07-7.07l46,46a5,5,0,1,1-7.07,7.07Z"/><path class="cls-1" d="M51.58,136.66l.84-2.38c4.31-12.17,20.47-54.34,47.67-86l1-1.2c25.09-29.25,43.22-50.38,70-46.62C195,3.77,216,11.33,241,37.34c23,23.95,41.2,42.87,38.92,69.89-2.38,28.35-23,50.54-53.29,75.14-30.67,24.93-60.79,39.84-84.82,42l-1.86.16-1.32-1.32c-13.85-13.84-84.5-84-85.22-84.74Z"/><path class="cls-1" d="M51.58,136.66l.84-2.38c4.31-12.17,20.47-54.34,47.67-86l1-1.2c25.09-29.25,43.22-50.38,70-46.62C195,3.77,216,11.33,241,37.34c23,23.95,41.2,42.87,38.92,69.89-2.38,28.35-23,50.54-53.29,75.14-30.67,24.93-60.79,39.84-84.82,42l-1.86.16-1.32-1.32c-13.85-13.84-84.5-84-85.22-84.74Z"/><path class="cls-3" d="M232.6,40.24C210.29,17.94,192,11.43,170,8.36c-22.47-3.16-38.53,15.56-62.85,43.9l-1,1.2C81.41,82.3,66,120.33,60.82,134.57c10.83,10.76,67.06,66.63,82.07,81.62,21.91-2.59,50.43-17.08,78.65-40,34.39-28,48.51-47.47,50.37-69.61,2-23.42-14.26-40.3-36.72-63.67C234.32,42,233.45,41.1,232.6,40.24Z"/></g></g></svg>