<svg xmlns="http://www.w3.org/2000/svg" viewBox="0 0 298 298"><defs><style>.cls-1{fill:#d87d39;}</style></defs><title>2</title><g id="Layer_2" data-name="Layer 2"><g id="Layer_1-2" data-name="Layer 1"><circle cx="149" cy="149" r="149"/><path class="cls-1" d="M39.12,72.65c7.61,9.54,59.44,78.41,149.41,121.81a192.37,192.37,0,0,0,11.65-26c-17.46-2.43-31.43-11.28-41.48-27.1-13.63-21.48-9.7-54.73-25.23-97.62a180.11,180.11,0,0,0-14.26-29.48A137.35,137.35,0,0,0,51.42,51.42a139.54,139.54,0,0,0-15,17.74C37.33,70.37,38.24,71.54,39.12,72.65Z"/><path class="cls-1" d="M138.29,25.47c8.27,15.5,17.45,46.07,22.73,85.4,4.13,30.74,23.9,42.7,42.95,46.09,11.28-37.85,12.61-80.68,8-129.77,0-.36-.07-.7-.1-1.06a138.23,138.23,0,0,0-81.22-13.9C133.24,16.42,135.9,21,138.29,25.47Z"/><path class="cls-1" d="M259.51,230.71a305.62,305.62,0,0,1-67.38-22.08q-4.84,7.73-10.6,15.35c25.83,16,28.3,36.76,27.09,46.48-.12,1-.28,2.09-.48,3.26a138.83,138.83,0,0,0,52-42.89Z"/><path class="cls-1" d="M266.35,221.67a138.22,138.22,0,0,0,18.14-98.95c-10.55,22.58-30.19,41.06-60.32,45.4a97.39,97.39,0,0,1-12.79,1,208.13,208.13,0,0,1-13.47,29.7A357.18,357.18,0,0,0,266.35,221.67Z"/><path class="cls-1" d="M223.35,35.11c2.59,32.08,5.7,76.73-8.28,122.93,1.35,0,2.68,0,4,0,27.06-.83,47.7-25.8,56.31-41.29a44,44,0,0,0,4.15-12.68A138.41,138.41,0,0,0,223.16,32.6C223.23,33.59,223.3,34.44,223.35,35.11Z"/><path class="cls-1" d="M194.89,253.28c-3.36-7.3-12.07-14.47-20.81-20-14.86,17.51-33.81,34.33-58,49.8a138.58,138.58,0,0,0,80.12-4.37C198.57,270.71,198.91,262.05,194.89,253.28Z"/><path class="cls-1" d="M31.54,80.91q-.73-1-1.47-2a138.25,138.25,0,0,0-16.85,94.75c12.4,9,28.42,18.74,45.51,24.25,24,7.73,80.3,6.16,113.87,21.29q5.55-7.33,10.27-15C114.73,170.9,59,117.75,31.54,80.91Z"/><path class="cls-1" d="M106.81,278.1c24-15.42,43.29-31.94,58.48-49.78C134.53,214,73.55,217.08,44.88,203.63c-8.23-3.86-18.41-9.47-28.12-15.09a138.21,138.21,0,0,0,87.71,91.1C105.26,279.11,106,278.59,106.81,278.1Z"/></g></g></svg>