<svg xmlns="http://www.w3.org/2000/svg" viewBox="0 0 261.55 292.57"><defs><style>.cls-1{fill:#eed9a9;}.cls-2{fill:#222;}.cls-3{fill:#9e8c69;}.cls-4{fill:#d43915;}.cls-5{fill:#201f20;}.cls-6{fill:#773030;}.cls-7{fill:#fffdfe;}</style></defs><title>20</title><g id="Layer_2" data-name="Layer 2"><g id="Layer_1-2" data-name="Layer 1"><path class="cls-1" d="M79.78,135.49c.81,23.21,11.24,42,13.87,48.8,4.36,11.28,3.42,18-.44,23.15s-23.65,32.71-39.73,48.93.19,23,6.29,27.48S77,302,87.9,282s31.56-47,35.42-52.14,10-8,22-7.09c7.29.55,28.26,5.14,50.73-.77Z"/><path class="cls-2" d="M196.09,222c14.69-3.86,30-12.21,42.58-29.12,33.05-44.44,30.66-106.67-9.51-136.67h0l-.06,0-.07-.06h0C188.73,26.24,128.44,41.88,95.4,86.32c-12.57,16.9-16.15,34-15.62,49.17Z"/><path class="cls-2" d="M118.11,205.38h0a14.1,14.1,0,0,0-19.72,2.88c-10.86,14.55-29,38.44-37.45,46.93-12.07,12.18.15,17.32,4.74,20.71s13,13.64,21.19-1.42C92.58,264,110.23,239.69,121,225.09A14.1,14.1,0,0,0,118.11,205.38Z"/><path class="cls-3" d="M132.7,173.46a3.76,3.76,0,0,1-.86-1.39,16.74,16.74,0,0,0-6.6-3.77c-6.35-1.55-14.55,2.52-20.46,4.47-3.44,1.13-7.06,2.08-10.22,3.89-3.68,2.11-2.78,3.68-1.29,7.18,1.2,2.84,2.68,5.69,2.82,8.86v0c1.25-.47,2.59-.92,4-1.35,5.93-1.73,22-4.23,38.24-13.06A73.25,73.25,0,0,1,132.7,173.46Z"/><path class="cls-1" d="M6,129.94c9,21.43,25.35,35.3,30.22,40.75,8.06,9,9.54,15.6,7.77,21.81s-10.58,39-19.89,59.82,8.3,21.43,15.59,23.49,22.56,10.83,25.65-11.71S78.25,209,80,202.81s6.51-11,18.12-14.42c7-2,28.26-5.17,47.19-18.64Z"/><path class="cls-4" d="M145.33,169.75c12.38-8.8,23.77-22,29.55-42.28C190.1,74.22,165.89,16.84,117.71,3h0l-.08,0-.08,0h0C69.31-10.76,18.43,25.17,3.22,78.42-2.57,98.67.12,115.92,6,129.94Z"/><path class="cls-5" d="M66.53,181.79h0a14.1,14.1,0,0,0-17.44,9.65c-5,17.45-13.58,46.22-18.46,57.14-7,15.65,6.26,16.15,11.75,17.7s17,8.16,19.33-8.82c1.62-11.85,9.56-40.79,14.52-58.27A14.1,14.1,0,0,0,66.53,181.79Z"/><circle class="cls-6" cx="63.79" cy="75.4" r="27.34"/><circle class="cls-7" cx="62.52" cy="73.45" r="26.41"/></g></g></svg>