<svg xmlns="http://www.w3.org/2000/svg" viewBox="0 0 298 298"><defs><style>.cls-1{fill:#005d81;}.cls-2{fill:#003b68;}.cls-3{fill:#e9f1ff;}.cls-4{fill:#d4e5ff;}</style></defs><title>200</title><g id="Layer_2" data-name="Layer 2"><g id="Layer_1-2" data-name="Layer 1"><circle class="cls-1" cx="149" cy="149" r="149"/><path class="cls-2" d="M254.36,254.36A149,149,0,0,0,149,0V298A148.57,148.57,0,0,0,254.36,254.36Z"/><circle class="cls-3" cx="149" cy="149" r="95.87"/><path class="cls-4" d="M216.79,216.79A95.87,95.87,0,0,0,149,53.13V244.87A95.56,95.56,0,0,0,216.79,216.79Z"/><path class="cls-1" d="M185,153.9q-2.55-5.9-9.31-12.9a28.3,28.3,0,0,0,5.89-17.28q0-13.93-9.2-22.86t-23.53-8.92q-14.17,0-23.33,9t-9.16,22.74A28.11,28.11,0,0,0,122.28,141a45,45,0,0,0-9.19,12.9,35.64,35.64,0,0,0-2.67,14.33q0,16.17,11,27T149,206.06q16.49,0,27.51-10.83t11-27A36,36,0,0,0,185,153.9Zm-44.77-39.23a11.26,11.26,0,0,1,8.33-3.55,12,12,0,0,1,8.7,3.49,11.67,11.67,0,0,1,3.54,8.65,12,12,0,0,1-3.49,8.59A11.1,11.1,0,0,1,149,135.5a11.73,11.73,0,0,1-8.81-3.54,12.43,12.43,0,0,1-3.44-9A11.4,11.4,0,0,1,140.26,114.67ZM163,183.06a20,20,0,0,1-28.18,0,20,20,0,0,1-5.61-14.51A18.44,18.44,0,0,1,135,154.88a19.75,19.75,0,0,1,27.76.06,18.41,18.41,0,0,1,5.85,13.61A20,20,0,0,1,163,183.06Z"/><path class="cls-2" d="M175.72,141a28.3,28.3,0,0,0,5.89-17.28q0-13.93-9.2-22.86T149,92v19.19a11.88,11.88,0,0,1,8.29,3.47,11.67,11.67,0,0,1,3.54,8.65,12,12,0,0,1-3.49,8.59A11.1,11.1,0,0,1,149,135.5h0v13.71a19.14,19.14,0,0,1,13.73,5.73,18.41,18.41,0,0,1,5.85,13.61A20,20,0,0,1,163,183.06a18.76,18.76,0,0,1-14,5.78v17.21h0q16.49,0,27.51-10.83t11-27A36,36,0,0,0,185,153.9Q182.48,148,175.72,141Z"/></g></g></svg>