<svg xmlns="http://www.w3.org/2000/svg" viewBox="0 0 298 298"><defs><style>.cls-1{fill:#fff;}</style></defs><title>23</title><g id="Layer_2" data-name="Layer 2"><g id="Layer_1-2" data-name="Layer 1"><circle cx="149" cy="149" r="149"/><path class="cls-1" d="M101.29,19.49c11.31,5,35,14.89,53.51,28.24,25.75,18.52,46.25,43.55,58.63,57.53C219.3,98,229,72.68,231.24,62.83c-3.34-4.45-16.37-18.43-34.17-34A94.88,94.88,0,0,0,170,12.61,138.48,138.48,0,0,0,101.29,19.49Z"/><path class="cls-1" d="M246.58,51.42a137.53,137.53,0,0,0-49-31.6c11.75,8.39,26.14,19.84,38.06,35.46,6.39,1.57,12.82,2.78,18.22,4.07Q250.43,55.29,246.58,51.42Z"/><path class="cls-1" d="M261.62,69.23c-7.76-2.34-16.29-2.61-22.3-3-5.47,22.45-19.49,47.39-38.54,69.47-20,23.13-62.79,49.63-79.34,57.7-1.13,15-.17,36.75,8.88,58.13,25.12-9,81.21-46.36,108.13-78.22,23.47-27.77,33.44-55.17,39.37-73.87A136.65,136.65,0,0,0,261.62,69.23Z"/><path class="cls-1" d="M240.3,181.23C204,221.55,149,253.22,133.82,258c2.55,9.38,11.45,21.14,18.92,26.86,0,0,58.12-19.79,90.1-50.69,20.48-19.8,30.71-31.78,37.69-43.32a138.62,138.62,0,0,0,1.12-79.91C274.7,129.89,263.64,155.3,240.3,181.23Z"/><path class="cls-1" d="M171.93,285.09A138.32,138.32,0,0,0,266,222.18a373.61,373.61,0,0,1-37.17,32.31C213.22,266.3,186.85,278.57,171.93,285.09Z"/><path class="cls-1" d="M120.16,249.72c-6.84-20.5-8.46-48.95-8.14-56.26C98,177.09,72,161,60.52,154.62c-2.7,78.19,10.69,98.91,19.59,113.22.26.42.56.83.84,1.24a137.76,137.76,0,0,0,60.51,17.7C134.86,278.11,124,261.38,120.16,249.72Z"/><path class="cls-1" d="M24,138.16c-4.38,12.1-7.82,29.43-8,47.91a138.31,138.31,0,0,0,48.64,72.2c-5.56-12.87-9.86-30.69-11.61-48.6-2.53-26-.5-53.18-.16-58.64C46.38,146.65,30.86,140.19,24,138.16Z"/><path class="cls-1" d="M11.43,159.77c2.24-10.08,5.21-21.78,6.07-24.63A24.89,24.89,0,0,0,12,132.52,138.67,138.67,0,0,0,11.43,159.77Z"/><path class="cls-1" d="M107,107.33C80.29,89.78,50.44,78.06,34,72.76a137.42,137.42,0,0,0-20.73,51.58c10.2,3.72,33.68,12.71,50.52,21.92,20.34,11.13,44.18,30.83,55.94,42.12,4.61-4,36.07-24.32,47-32.9C161.16,148,136.21,126.56,107,107.33Z"/><path class="cls-1" d="M150.35,55.2C130.75,40,107.39,29.68,90.49,24A137.77,137.77,0,0,0,51.42,51.42,140.16,140.16,0,0,0,39.36,65.19c10.94,4,45.52,17.2,66.34,29.9,28.12,17.16,57.75,44.24,67.76,54.41,12-9,30-28.3,35.3-38C204.15,105,184.68,81.9,150.35,55.2Z"/></g></g></svg>