<svg xmlns="http://www.w3.org/2000/svg" viewBox="0 0 298 298"><defs><style>.cls-1{fill:#fff;}.cls-2{fill:#e4e6eb;}.cls-3{fill:red;}</style></defs><title>3</title><g id="Layer_2" data-name="Layer 2"><g id="Layer_1-2" data-name="Layer 1"><circle cx="149" cy="149" r="149"/><circle class="cls-1" cx="149" cy="149" r="138"/><path class="cls-2" d="M286.15,135.63a137.15,137.15,0,0,1-274.3,0c0-.72,0-1.44,0-2.15A139.43,139.43,0,0,0,11,149a138,138,0,1,0,275.12-15.52C286.13,134.19,286.15,134.91,286.15,135.63Z"/><polygon class="cls-3" points="140.64 289.39 150.29 280.02 146.22 276.72 140.75 282.04 135.43 276.56 131.26 279.74 140.64 289.39"/><polygon class="cls-3" points="140.54 271.54 148.79 260.91 144.31 258.21 139.62 264.24 133.6 259.56 129.91 263.28 140.54 271.54"/><polygon class="cls-3" points="137.96 253.87 144.66 242.2 139.84 240.15 136.04 246.77 129.42 242.97 126.29 247.17 137.96 253.87"/><polygon class="cls-3" points="132.95 236.73 137.95 224.24 132.89 222.88 130.06 229.97 122.97 227.13 120.46 231.73 132.95 236.73"/><polygon class="cls-3" points="125.6 220.46 128.81 207.39 123.62 206.75 121.79 214.17 114.38 212.34 112.53 217.24 125.6 220.46"/><polygon class="cls-3" points="116.05 205.37 117.42 191.98 112.19 192.07 111.41 199.67 103.82 198.89 102.67 204 116.05 205.37"/><polygon class="cls-3" points="104.5 191.75 104 178.31 98.82 179.12 99.11 186.75 91.48 187.04 91.06 192.26 104.5 191.75"/><polygon class="cls-3" points="91.17 179.88 88.8 166.63 83.79 168.16 85.14 175.67 77.62 177.02 77.93 182.25 91.17 179.88"/><polygon class="cls-3" points="76.31 169.97 72.12 157.18 67.37 159.4 69.75 166.65 62.5 169.03 63.53 174.16 76.31 169.97"/><polygon class="cls-3" points="60.22 162.23 54.29 150.15 49.9 153 53.26 159.85 46.41 163.22 48.15 168.16 60.22 162.23"/><polygon class="cls-3" points="43.21 156.8 35.66 145.67 31.7 149.1 35.99 155.42 29.68 159.71 32.08 164.36 43.21 156.8"/><polygon class="cls-3" points="25.61 153.8 16.58 143.82 13.14 147.77 18.27 153.43 12.61 158.56 15.64 162.83 25.61 153.8"/><polygon class="cls-3" points="159.02 8.12 149.36 17.49 153.43 20.79 158.91 15.48 164.22 20.95 168.39 17.78 159.02 8.12"/><polygon class="cls-3" points="159.11 25.98 150.85 36.6 155.34 39.3 160.02 33.27 166.05 37.96 169.73 34.24 159.11 25.98"/><polygon class="cls-3" points="161.68 43.65 154.98 55.32 159.8 57.37 163.6 50.75 170.22 54.55 173.35 50.35 161.68 43.65"/><polygon class="cls-3" points="166.68 60.79 161.67 73.28 166.73 74.63 169.57 67.55 176.66 70.39 179.17 65.8 166.68 60.79"/><polygon class="cls-3" points="174.03 77.06 170.8 90.13 176 90.77 177.83 83.36 185.24 85.19 187.09 80.29 174.03 77.06"/><polygon class="cls-3" points="183.56 92.16 182.19 105.55 187.42 105.46 188.2 97.86 195.79 98.64 196.95 93.54 183.56 92.16"/><polygon class="cls-3" points="195.1 105.78 195.6 119.23 200.78 118.41 200.49 110.78 208.12 110.5 208.55 105.28 195.1 105.78"/><polygon class="cls-3" points="208.43 117.67 210.8 130.91 215.81 129.38 214.46 121.87 221.98 120.53 221.68 115.3 208.43 117.67"/><polygon class="cls-3" points="223.28 127.58 227.47 140.37 232.22 138.16 229.84 130.9 237.1 128.53 236.07 123.39 223.28 127.58"/><polygon class="cls-3" points="239.37 135.33 245.29 147.41 249.69 144.56 246.33 137.71 253.18 134.34 251.45 129.4 239.37 135.33"/><polygon class="cls-3" points="256.38 140.76 263.93 151.9 267.88 148.47 263.6 142.15 269.92 137.87 267.51 133.21 256.38 140.76"/><polygon class="cls-3" points="273.98 143.78 283 153.76 286.44 149.81 281.32 144.15 286.98 139.03 283.95 134.75 273.98 143.78"/></g></g></svg>