<svg xmlns="http://www.w3.org/2000/svg" viewBox="0 0 298.07 298.07"><defs><style>.cls-1{fill:#0a5ac3;}.cls-2{fill:#e3e3e3;}.cls-3{fill:#febf35;}.cls-4{fill:#15a4de;}</style></defs><title>34</title><g id="Layer_2" data-name="Layer 2"><g id="Layer_1-2" data-name="Layer 1"><circle cx="149.04" cy="149.04" r="149"/><path class="cls-1" d="M287,151.14c-8.69,8.77-26.47,27.25-45.61,39.76-26.55,17.35-57.27,27.47-74.78,34,4.71,8.11,24.79,26.27,33.18,31.89,5.35-1.51,23.09-8.64,44-19.64a94.79,94.79,0,0,0,24.88-19.44A138.58,138.58,0,0,0,287,151.14Z"/><path class="cls-2" d="M205,275.2a137.45,137.45,0,0,0,47.1-34.3c-12.05,7.95-27.91,17.25-46.78,22.75-3.76,5.39-7.2,11-10.35,15.54Q200,277.4,205,275.2Z"/><path class="cls-1" d="M182.92,282.82c5-6.39,8.31-14.26,10.81-19.74-19-13.17-37.2-35.23-50.94-61-14.4-27-23.7-76.44-25.27-94.79C103.91,100.87,83.28,94,60.08,94.7c-.66,26.66,14,92.45,34.06,129,17.46,31.89,39.44,51.05,54.75,63.32A137.1,137.1,0,0,0,182.92,282.82Z"/><path class="cls-3" d="M86.11,222.62c-24.56-48.38-34.3-111.09-33.29-127-9.66-1-23.84,3.07-31.86,8,0,0-2.46,61.35,14.86,102.31,11.1,26.24,18.59,40.09,26.85,50.75a138.57,138.57,0,0,0,74.15,29.82C121.63,273.19,101.9,253.72,86.11,222.62Z"/><path class="cls-1" d="M13.82,121.45A138.35,138.35,0,0,0,38.64,231.88a371.87,371.87,0,0,1-16.76-46.31C16.49,166.74,14.52,137.72,13.82,121.45Z"/><path class="cls-4" d="M65.45,85.88c21.59,1,48.72,9.72,55.42,12.65,20.31-7.16,44.68-25.61,54.77-34.07C103.67,33.8,79.51,38.84,63,42c-.49.09-1,.22-1.46.34A137.7,137.7,0,0,0,23.2,92.41C33.67,89.37,53.17,85.3,65.45,85.88Z"/><path class="cls-2" d="M204.14,36.33c-9.72-8.45-24.65-17.89-41.85-24.67a138.46,138.46,0,0,0-84.86,19.4c14-.56,32.19,1.84,49.52,6.66,25.15,7,49.8,18.67,54.77,21C188.16,54.14,199.78,42,204.14,36.33Z"/><path class="cls-4" d="M188.5,16.81c8.6,5.72,18.45,12.7,20.8,14.52a24.55,24.55,0,0,0,4.43-4.19A138.74,138.74,0,0,0,188.5,16.81Z"/><path class="cls-1" d="M203.05,124.82c26-18.58,47.64-42.2,58.52-55.69a137.26,137.26,0,0,0-40.66-37.89c-7.14,8.17-24,26.84-38.63,39.24-17.7,15-44.67,30.12-59.43,37,2.05,5.73,9.7,42.41,13.76,55.73C145.58,160.74,174.58,145.18,203.05,124.82Z"/><path class="cls-2" d="M236.06,184.06c21.28-12.8,39.27-30.9,50.67-44.62a138.42,138.42,0,0,0-20-62.53c-7.7,8.75-32.43,36.28-51.77,51.13-26.14,20.06-62.06,38-75.15,43.64,4,14.43,15.6,38.19,22.73,46.6C170.24,216.33,198.8,206.47,236.06,184.06Z"/></g></g></svg>