<svg xmlns="http://www.w3.org/2000/svg" viewBox="0 0 298 298"><defs><style>.cls-1{fill:#b6cc36;}</style></defs><title>5</title><g id="Layer_2" data-name="Layer 2"><g id="Layer_1-2" data-name="Layer 1"><circle cx="149" cy="149" r="149"/><path class="cls-1" d="M285.93,145A137,137,0,0,0,153,12.07a134.83,134.83,0,0,0,39.61,93.31A134.83,134.83,0,0,0,285.93,145Z"/><path class="cls-1" d="M12.07,153A137,137,0,0,0,145,285.93a134.83,134.83,0,0,0-39.61-93.31A134.83,134.83,0,0,0,12.07,153Z"/><path class="cls-1" d="M184.36,113.64a146.47,146.47,0,0,1-43-101.42A137,137,0,0,0,12.22,141.33a146.47,146.47,0,0,1,101.42,43,146.47,146.47,0,0,1,43,101.42A137,137,0,0,0,285.78,156.67,146.47,146.47,0,0,1,184.36,113.64Z"/></g></g></svg>