<svg xmlns="http://www.w3.org/2000/svg" viewBox="0 0 298 298"><defs><style>.cls-1{fill:#3a4d75;}.cls-2{fill:#29365c;}.cls-3{fill:#647392;}.cls-4{fill:#e1d60b;}.cls-5{fill:#c7bb06;}.cls-6{fill:#f2e97c;}.cls-7{fill:#324468;}</style></defs><title>6</title><g id="Layer_2" data-name="Layer 2"><g id="Layer_1-2" data-name="Layer 1"><circle cx="149" cy="149" r="149"/><path class="cls-1" d="M84.92,43.2c5.09-.26,32.25-1.31,47.37,5.72.35,10.89-1.17,48.16-1.17,48.16-10.9,3.69-46.92,20-53.95,24.21C71,114.09,51.88,93.42,49.39,90.41,54,81.27,67.35,58.05,84.92,43.2Z"/><path class="cls-1" d="M78.13,129.16c-.93,11.19-3,42.19-3.42,52.15a6.05,6.05,0,0,0,2.18,4.89c8.78,7.27,34,27.46,43.21,33.47a6,6,0,0,0,5.76.45c11.51-5.15,39.3-20.63,48.94-25.87a6,6,0,0,0,3.15-5.17c.24-10.93,0-39.67-.12-49.34A6,6,0,0,0,175.5,135c-8.5-6.66-31.21-26.17-39.66-32.72a6,6,0,0,0-6.15-.73c-10.2,4.57-38.7,18.13-48.15,22.64A6,6,0,0,0,78.13,129.16Z"/><path class="cls-2" d="M80.14,187.52a6.81,6.81,0,0,1-2-5.14c.34-10.48,2.24-43.1,3.09-54.88a6.7,6.7,0,0,1,1.52-3.87l-1.25.59a6,6,0,0,0-3.41,4.94c-.93,11.19-3,42.19-3.42,52.15a6.05,6.05,0,0,0,2.18,4.89c2.91,2.41,7.63,6.24,13,10.5C85.87,193,82.41,189.7,80.14,187.52Z"/><path class="cls-2" d="M177.83,139.74A6,6,0,0,0,175.5,135c-7-5.46-23.5-19.57-33.88-28.08,9.32,9,22,21.55,27.71,26.73a6.8,6.8,0,0,1,2.1,4.95c.07,10.18.32,40.42.11,51.93a6.51,6.51,0,0,1-2.85,5.43c-3.69,2.34-10.34,6.62-17.56,11.18,9.56-5.15,18.87-10.31,23.67-12.92a6,6,0,0,0,3.15-5.17C178.19,178.15,177.91,149.41,177.83,139.74Z"/><path class="cls-3" d="M83.23,187.63a6.14,6.14,0,0,1-2.22-5c.39-10.13,2.53-41.65,3.48-53a6.12,6.12,0,0,1,3.47-5c9.24-4.4,36.36-17.31,47.66-22.44a6,6,0,0,0-5.93-.58c-10.2,4.57-38.7,18.13-48.15,22.64a6,6,0,0,0-3.41,4.94c-.93,11.19-3,42.19-3.42,52.15a6.05,6.05,0,0,0,2.18,4.89c8.78,7.27,34,27.46,43.21,33.47a6,6,0,0,0,5.13.68C114.68,213,91.6,194.56,83.23,187.63Z"/><path class="cls-1" d="M72.92,187.54c6.5,4.4,43.91,35.33,47.25,37.08-.88,7.91-3.07,35.83-3.25,38.29-7.55,1.76-37.37,1.34-47.52-3.68-7.74-8.78-28.28-38.64-30.57-48.48C45.51,205,72.92,187.54,72.92,187.54Z"/><path class="cls-4" d="M125.24,225.15c4.92-3.52,48.64-23.47,55.14-28,7.38,3.86,44,21.89,45.75,24.7.71,6.33.28,33.46-1.83,39.08-13.92,9.87-47.05,23.63-58.61,25.59-11.6-3.69-34.71-13.15-45.08-23.34C120.61,254.36,125.24,225.15,125.24,225.15Z"/><path class="cls-4" d="M182.83,193.2c.35-9.14,1.13-52.22.95-55.73,6.68-3.17,42.7-15.12,52.19-16.52,6.68,5.09,28.1,31.35,29,46.11-3.17,9.84-25.1,43.41-36.17,50.09C220.17,213.46,182.83,193.2,182.83,193.2Z"/><path class="cls-4" d="M181.68,133.07c-7.91-6-42.92-34.8-46.08-36.38-1-7.91.92-44.62,1.44-47.26,4.75-3.34,28-18.95,55.89-19.83,11.25,6.33,39.08,26.13,45.93,34.56.88,10.2-.87,45.6-3.5,51.75C210.58,123.64,181.68,133.07,181.68,133.07Z"/><path class="cls-4" d="M84.27,27.09c.8,6.52,1.54,12.27,1.71,13.2,7.77,0,22.71-2.48,48.78,4.57C145.15,38.39,167.48,28,190.62,26.7c0-3-.05-6.19-.22-9.36A138.41,138.41,0,0,0,84.27,27.09Z"/><path class="cls-1" d="M246.58,51.42a137.46,137.46,0,0,0-53-33c.16,3.66.3,6.93.36,8.56,9.15,3.77,39.28,27.44,46.41,34.94a131.91,131.91,0,0,1,15-.87C252.57,57.72,249.67,54.51,246.58,51.42Z"/><path class="cls-1" d="M258.27,64.7a148,148,0,0,0-16.19.87s-.64,31.91-3.86,53c7.22,5.37,29.4,33.31,29.77,48.49a110.61,110.61,0,0,0,18.08-.48C290.28,131.49,281,94.05,258.27,64.7Z"/><path class="cls-1" d="M266.9,170.68c-1.85,6.85-24.22,40.29-35.14,49.73-.19,12.4-.6,34-2.83,40.44l.4.37a139.42,139.42,0,0,0,17.25-14.64,137.35,137.35,0,0,0,38.78-76.4A127.24,127.24,0,0,1,266.9,170.68Z"/><path class="cls-5" d="M152.31,287c-13.89-5.66-27-15.14-33.95-21.08-23.69,3.49-36.39-.37-47.61-3.19A137.77,137.77,0,0,0,152.31,287Z"/><path class="cls-4" d="M51.42,246.58a140.46,140.46,0,0,0,14.93,12.94c-6.78-7.62-22.94-31.06-29.47-45.79-1,2.3-2.39,5.9-3.85,10.09A138.42,138.42,0,0,0,51.42,246.58Z"/><path class="cls-4" d="M30.31,219.45c1.2-3.19,3.44-6.36,5-9.66-3.23-4.27-13.47-17.4-20-25.61A163.08,163.08,0,0,0,30.31,219.45Z"/><path class="cls-4" d="M17.23,106.57A57.19,57.19,0,0,1,30.19,96c2.7-1.65,16.36-7.49,16.36-7.49s8-15,15.81-25.38A145.61,145.61,0,0,1,82.08,42L80.66,29.09A138.45,138.45,0,0,0,51.42,51.42C36.63,66.21,23.9,88.12,17.23,106.57Z"/><path class="cls-1" d="M47.09,93.18c-16.1,1.71-25.9,11.7-31.49,20.44a138.61,138.61,0,0,0-1.44,64.79c5.79,7.86,16,22.35,23.55,29.3C42.1,203.49,63.6,189.82,71.16,184c-.36-4,3.24-55.47,3.41-60C74.57,124,55.86,101.8,47.09,93.18Z"/><path class="cls-3" d="M69.46,124.07c-4.07-4.78-13.29-15.51-19.77-22.34a7.93,7.93,0,0,0-7.45-2.34c-.48.11-1,.24-1.42.37a8.22,8.22,0,0,1,3,2c6.47,6.83,15.69,17.56,19.77,22.34a8,8,0,0,1,1.89,5.67c-.6,9.73-2.44,37-2.85,47.27a8,8,0,0,1-3.36,6.22c-6,4.23-15.35,10.39-21.5,14.79a8.66,8.66,0,0,1-1.69.91,8,8,0,0,0,7.6-.91c6.15-4.4,15.52-10.56,21.5-14.79A8,8,0,0,0,68.5,177c.41-10.31,2.25-37.54,2.85-47.27A7.93,7.93,0,0,0,69.46,124.07Z"/><path class="cls-3" d="M84.46,86.56c-8-11.15-6.62-26.64,2.17-39.3a7,7,0,0,0-3.06,1.61C71,60.18,61.05,75.89,55.91,85.21a6.91,6.91,0,0,0,.91,8c4.6,5.1,12.79,14,18.17,20a6.91,6.91,0,0,0,8.26,1.59c9.66-4.84,29.13-13.61,39.58-17.71a7.1,7.1,0,0,0,.88-.42C108.48,101.57,92.7,98,84.46,86.56Z"/><path class="cls-6" d="M170.36,96.23c0-25.73,9.45-48.47,23.93-62.33A8,8,0,0,0,190,33c-21,1.38-38.84,11.32-46.55,16.27a7.86,7.86,0,0,0-3.63,6.09c-.58,8.23-1.47,26.94-1.24,36.27a7.92,7.92,0,0,0,3.14,6.13c6.6,5,22.21,17.68,32.36,25.81A99.81,99.81,0,0,1,170.36,96.23Z"/><path class="cls-5" d="M246.36,132A168.23,168.23,0,0,1,197.25,201c11.5,6.14,26.47,14,31.53,16.2,11.07-6.68,33-40.25,36.17-50.09C264.36,157.26,254.73,142.4,246.36,132Z"/><path class="cls-5" d="M193.68,203.87a167.22,167.22,0,0,1-70.18,32.87c-1.31,9.18-2.89,21.27-2.89,26.4,10.37,10.19,33.48,19.65,45.08,23.34,11.56-2,44.69-15.72,58.61-25.59,2.11-5.62,2.54-32.75,1.83-39.08C224.92,219.87,207,210.65,193.68,203.87Z"/><path class="cls-5" d="M39.25,232.67a138.76,138.76,0,0,0,27.1,26.85c-3.9-4.38-10.89-14-17.38-24.16C45.7,234.56,42.45,233.66,39.25,232.67Z"/><path class="cls-7" d="M89.27,240.24a168.9,168.9,0,0,1-36.65-4c6.24,9.5,13,18.75,16.78,23,10.15,5,40,5.44,47.52,3.69.12-1.64,1.13-14.52,2-25.3A168.94,168.94,0,0,1,89.27,240.24Z"/><path class="cls-7" d="M258.27,64.7h-1.09c.11,2.48.17,5,.17,7.46a167.91,167.91,0,0,1-9.67,56.29c9,11,20.05,28,20.31,38.61a110.61,110.61,0,0,0,18.08-.48C290.28,131.49,281,94.05,258.27,64.7Z"/></g></g></svg>