<svg xmlns="http://www.w3.org/2000/svg" viewBox="0 0 279.3 183.95"><defs><style>.cls-1,.cls-3{fill:#fffada;}.cls-1,.cls-2,.cls-6,.cls-7,.cls-9{fill-rule:evenodd;}.cls-2{opacity:0.25;isolation:isolate;}.cls-4{fill:#bf2222;}.cls-5{fill:#3f7bbf;}.cls-6{fill:#e6ca19;}.cls-7{fill:#14805e;}.cls-8{fill:#fff;}</style></defs><title>games</title><g id="Layer_2" data-name="Layer 2"><g id="Layer_1-2" data-name="Layer 1"><path class="cls-1" d="M245.75,17.62l.43.19c7,3.38,15.22,16.11,27.56,79.08,1.14,7.68,3.66,19.66,4.88,32.32-2.42,2.74-5.18,5.65-8.35,8.6q-14.1,13.16-37.89,18.46,25.86-2.57,40-15.73c2.41-2.24,4.62-4.43,6.65-6.54l.09,1.37c1.11,19.87-2,39.94-19.36,46.54-23.21,9.15-37.37-13-52.18-56.92l-.47-.71c-1.56-2.28-3.22-3.93-5.14-3.81-4.93,4.37-10,6.66-15.35,7.17a23.16,23.16,0,1,0-27.54-19.13v.22a17.37,17.37,0,0,0,4.44,11.73H117.57A17.34,17.34,0,0,0,122,108.73q0-10.08-4.84-16.3a23.15,23.15,0,1,0-23.91,35.25c-5.49-.39-10.8-2.67-15.91-7.21-2.12-.13-3.91,1.88-5.61,4.52l-.89,2.61c-14.34,41.79-28.26,62.84-50.6,54.57l-.69-.26C.61,174.73-1.35,151.57.6,130.1c2.88,3.23,6.34,6.77,10.27,10.43q14.12,13.17,40,15.73Q27.08,151,13,137.81A131.75,131.75,0,0,1,1.12,125.1C2.42,114,4.54,103.73,5.56,96.89L6.3,93.1C18.53,32.43,27.62,27.56,33.55,17.61c13.55-3.86,26.54-3.82,39.24-1.77S96.34,35.22,99.4,35.14c.65-1.53,77.07.52,77.77,2q16.62-19.23,29.35-21.26c12.69-2.05,25.68-2.09,39.23,1.77Zm-93.87,92.27H127.42a3.49,3.49,0,0,0-3.49,3.49v.38a3.49,3.49,0,0,0,3.49,3.5h24.46a3.5,3.5,0,0,0,3.5-3.49h0v-.37a3.5,3.5,0,0,0-3.49-3.5Zm71-83.42a33.47,33.47,0,1,0,0,66.94h0a33.47,33.47,0,0,0,0-66.94Zm-167.4,0a33.47,33.47,0,1,0,0,66.94h0a33.47,33.47,0,1,0,0-66.94Z"/><path class="cls-2" d="M273.74,96.89l.31,2c3.54,22,15.18,71.88-14.31,83.06-11.85,4.67-21.34,1.19-29.75-9.17l2.63.06C244.44,173,283.76,170.82,273.74,96.89ZM5.13,134.94l.17,1c7,40.21,39.07,36.74,44,36.77-8.27,10.18-17.58,13.71-29.14,9.4l-.61-.24C.64,174.73-1.33,151.58.61,130.12Q2.68,132.45,5.13,134.94Zm.44-38c-1.72,12.68-2,23.26-1.18,32.07-1.11-1.26-2.19-2.53-3.26-3.82l.29-2.31c1.27-9.9,3.09-19,4.05-25.3ZM98,85.4a18.21,18.21,0,1,1,0,36.42h0A18.21,18.21,0,0,1,98,85.4Zm84.68,0a18.21,18.21,0,1,1,0,36.42h0a18.21,18.21,0,0,1,0-36.42Zm-30.77,24.49a3.5,3.5,0,0,1,3.5,3.49v.38a3.5,3.5,0,0,1-3.49,3.5H127.42a3.49,3.49,0,0,1-3.49-3.49h0v-.37a3.49,3.49,0,0,1,3.49-3.5Zm71-83.42a33.47,33.47,0,1,1,0,66.94h0a33.47,33.47,0,0,1,0-66.94Zm-167.4,0a33.47,33.47,0,0,1,0,66.94h0a33.47,33.47,0,0,1,0-66.94Z"/><circle class="cls-3" cx="55.62" cy="59.65" r="28.5"/><circle class="cls-4" cx="223.14" cy="41.24" r="9.31"/><circle class="cls-5" cx="223.14" cy="78.35" r="9.31"/><path class="cls-6" d="M213.83,59.79a9.24,9.24,0,1,1-9.24-9.24A9.23,9.23,0,0,1,213.83,59.79Z"/><path class="cls-7" d="M250.93,59.79a9.24,9.24,0,1,1-18.47,0v0a9.24,9.24,0,0,1,18.47,0Z"/><path class="cls-8" d="M223.14,50.47a9.24,9.24,0,1,0-9.23-9.23A9.24,9.24,0,0,0,223.14,50.47Zm0-1.63a7.6,7.6,0,1,1,0-15.2h0a7.6,7.6,0,1,1,0,15.2Zm0,38.74a9.24,9.24,0,1,0-9.23-9.23A9.24,9.24,0,0,0,223.14,87.58Zm0-1.64a7.6,7.6,0,0,1-.75-15.18q.38,0,.75,0a7.6,7.6,0,0,1,0,15.18Zm-9.31-26.15a9.24,9.24,0,1,1-9.24-9.24A9.23,9.23,0,0,1,213.83,59.79Zm-1.65,0A7.59,7.59,0,0,0,197,59.26a4.68,4.68,0,0,0,0,.53,7.59,7.59,0,0,0,15.18,0Zm38.75,0a9.24,9.24,0,1,1-18.47,0v0a9.24,9.24,0,0,1,18.47,0Zm-1.64,0a7.59,7.59,0,0,0-15.18-.53,4.68,4.68,0,0,0,0,.53,7.6,7.6,0,0,0,15.18,0Z"/><circle class="cls-8" cx="98.24" cy="103.61" r="13.66"/><circle class="cls-8" cx="182.38" cy="103.61" r="13.66"/><path class="cls-2" d="M182.38,117.26c5-2.44,8-6.83,8-13.65s-4.86-12.44-8-13.66a13.66,13.66,0,1,1,0,27.31h0Zm-84.14,0c5-2.44,8-6.83,8-13.65s-4.86-12.44-8-13.66a13.66,13.66,0,1,1,0,27.31Z"/><path class="cls-9" d="M53.53,37.1h4.19a2.67,2.67,0,0,1,2.67,2.68V50.37l-5.12,3-4.42-3V39.78a2.67,2.67,0,0,1,2.67-2.68Zm0,45.1a2.68,2.68,0,0,1-2.68-2.68h0V68.93l4.42-3,5.12,3V79.52a2.67,2.67,0,0,1-2.67,2.68ZM33.07,61.75V57.56a2.67,2.67,0,0,1,2.68-2.68h10.6l3,5.12-3,4.42H35.75A2.67,2.67,0,0,1,33.07,61.75Zm45.11,0a2.68,2.68,0,0,1-2.68,2.67H64.9l-3-4.42,3-5.12H75.5a2.68,2.68,0,0,1,2.69,2.67v4.19Z"/><path class="cls-1" d="M33.41,3.33A77.74,77.74,0,0,1,71.86,1.69l.35,7a98.43,98.43,0,0,0-38.46,1.64Zm212.53,0a77.77,77.77,0,0,0-38.46-1.64l-.33,7a98.37,98.37,0,0,1,38.45,1.64Z"/></g></g></svg>