<svg xmlns="http://www.w3.org/2000/svg" viewBox="0 0 297.14 217.76"><defs><style>.cls-1{fill:#314e55;}.cls-2{fill:#fff;}.cls-3{fill:#5ecb66;}</style></defs><title>live</title><g id="Layer_2" data-name="Layer 2"><g id="Layer_1-2" data-name="Layer 1"><rect class="cls-1" width="297.14" height="217.76" rx="27.17"/><rect class="cls-2" x="10" y="10" width="277.14" height="197.76" rx="17.17"/><rect class="cls-3" x="27.45" y="36.13" width="242.24" height="145.5"/><path class="cls-1" d="M267.85,31.52H29.3a7.12,7.12,0,0,0-7.11,7.11v140.5a7.11,7.11,0,0,0,7.11,7.1H267.85a7.1,7.1,0,0,0,7.1-7.1V38.63A7.11,7.11,0,0,0,267.85,31.52ZM143.57,129.57a21.28,21.28,0,0,1,0-41.38Zm10-41.38a21.28,21.28,0,0,1,0,41.38ZM32.19,89.28H49.12v39.19H32.19Zm0,49.19H52a7.12,7.12,0,0,0,7.11-7.11v-45A7.12,7.12,0,0,0,52,79.28H32.19V41.52H143.57V76.84a32.43,32.43,0,0,0,0,64.08v35.31H32.19Zm121.38,37.76V140.92a32.43,32.43,0,0,0,0-64.08V41.52H265V79.28H245.13A7.12,7.12,0,0,0,238,86.39v45a7.12,7.12,0,0,0,7.11,7.11H265v37.76ZM265,89.28v39.19H248V89.28Z"/></g></g></svg>