<svg xmlns="http://www.w3.org/2000/svg" viewBox="0 0 298 298"><defs><style>.cls-1{fill:#ff8500;}</style></defs><title>promo</title><g id="Layer_2" data-name="Layer 2"><g id="Layer_1-2" data-name="Layer 1"><path class="cls-1" d="M254.36,43.64a149,149,0,1,0,0,210.72A149,149,0,0,0,254.36,43.64ZM86.74,184.38c-9-.29-24.77-2.17-29.24-20.55-4.41-18.15,7.23-29.84,18.24-33.58,8.68-3,8.29,1.06,9,3.77,1.1,4.35,8.49,39.48,9.44,43.11C95.14,180.94,95.71,184.67,86.74,184.38Zm56.68,38.31A117.35,117.35,0,0,1,132.1,227c-4.59,1.37-6.89,0-8.26-1.38s-14.54-25.75-16.52-29.22c-2.45-4.28-1.23-7.65.91-8.26a60.79,60.79,0,0,1,9.34-2.29c6-1.07,8.72-.31,10.09,1.68S139,208,142.5,213.82,145.25,221.93,143.42,222.69Zm81-41c-5-.89-25.92-6.39-54.51-7.46S117,179,110.09,180.08s-6.92-2.48-7.81-6.92-8.47-35.46-9-39.42c-.89-6,.53-8.17,4.26-9.23a457.08,457.08,0,0,0,52.91-17.4c22.88-9.19,46.7-27.88,51.67-32.67s8.34-.36,9.41,3.37,19.89,92.68,21,98.54S229.41,182.57,224.44,181.68Z"/></g></g></svg>