<?xml version="1.0" encoding="UTF-8"?>
<svg id="Layer_2" data-name="Layer 2" xmlns="http://www.w3.org/2000/svg" viewBox="0 0 450.48 469.17">
  <defs>
    <style>
      .cls-1 {
        fill: #fff;
      }
    </style>
  </defs>
  <g id="Layer_1-2" data-name="Layer 1">
    <g>
      <path class="cls-1" d="m132.44,140.78c-2.24-1.7-3.97-2.97-5.65-4.31-8.47-6.78-10.4-18.39-4.3-27.3,3.19-4.67,6.64-9.19,10.31-13.5,6.96-8.17,18.43-9.75,27.6-4.02,2.1,1.31,4.12,2.74,6.55,4.37,7.65-9.92,15.16-19.66,22.67-29.39,6.92-8.97,13.83-17.94,20.77-26.89,1.12-1.44,2.34-2.83,3.62-4.12,2.89-2.9,5.33-3.58,9.29-.62,40.84,30.48,81.88,60.7,122.87,90.97,5.7,4.21,6.08,5.28,1.67,11.15-9.7,12.92-19.63,25.66-29.47,38.48-5.07,6.6-10.14,13.2-15.57,20.27,1.5,1.22,2.82,2.39,4.23,3.43,43.73,32.16,87.43,64.37,131.26,96.41,7.58,5.54,13.13,11.67,12.04,21.86-.94,8.8-14.92,26.5-23.43,28.77-7.3,1.95-14.03.55-20.28-4.06-43.68-32.24-87.45-64.36-131.19-96.52-2.14-1.57-4.33-3.07-7.06-5.01-3.45,4.38-6.85,8.61-10.16,12.91-11.91,15.42-23.77,30.89-35.72,46.28-4.73,6.09-4.78,5.95-11.01,1.4-41.03-29.94-82.08-59.84-123.13-89.75-6.25-4.56-6.46-4.95-1.6-11.31,12.83-16.82,25.8-33.53,38.7-50.28,2.22-2.88,4.4-5.8,6.99-9.2Z"/>
      <path class="cls-1" d="m307.96,391.03c3.69.36,6.68.54,9.63.96,10.48,1.47,17.55,9.2,17.67,19.65.15,12.5.15,25,0,37.5-.12,10.95-8.16,19.22-19.05,19.9-1.99.12-4,.12-6,.12-95.36,0-190.72.01-286.09.02-11.89,0-19.34-4.04-22.55-12.87-1.16-3.19-1.43-6.83-1.49-10.28-.18-10.16-.06-20.34-.04-30.5.04-15.9,7.34-23.41,23.38-24.09,1.13-.05,2.26-.22,4.01-.4,0-4.92-.06-9.71.01-14.5.13-9.28,6.01-15.64,15.29-16.51,2.48-.23,4.99-.21,7.49-.21,78.52,0,157.05,0,235.57,0,2.17,0,4.34.03,6.5.19,9.57.71,15.47,6.98,15.64,16.67.08,4.64.01,9.28.01,14.35Z"/>
      <path class="cls-1" d="m236.39,0c3.28,1.42,6.97,2.28,9.79,4.34,40.34,29.48,80.58,59.08,120.78,88.74,8.62,6.36,9.64,16.81,2.77,23.79-3.11,3.16-5.71,3.89-9.81.83-36.43-27.2-73.04-54.15-109.6-81.18-8.97-6.63-17.86-13.38-26.97-19.82-2.95-2.09-3.25-4.11-1.85-7.12,2.47-5.32,8.12-8.83,14.9-9.57Z"/>
      <path class="cls-1" d="m194.98,333.9c-3.43-1.49-7.29-2.41-10.24-4.56-40.32-29.47-80.56-59.07-120.73-88.75-8.48-6.26-9.21-17.71-1.99-24.23,2.24-2.02,4.12-2.58,6.93-.52,46.35,33.92,92.77,67.76,139.25,101.5,2.61,1.89,2.79,3.66,1.75,6.25-2.3,5.71-7.96,9.42-14.97,10.31Z"/>
    </g>
  </g>
</svg>