<?xml version="1.0" encoding="UTF-8"?>
<!DOCTYPE svg PUBLIC "-//W3C//DTD SVG 1.1//EN" "http://www.w3.org/Graphics/SVG/1.1/DTD/svg11.dtd">
<!-- Creator: CorelDRAW 2020 (64 Bit) -->
<svg xmlns="http://www.w3.org/2000/svg" xml:space="preserve" width="72.9487mm" height="100mm" version="1.1" style="shape-rendering:geometricPrecision; text-rendering:geometricPrecision; image-rendering:optimizeQuality; fill-rule:evenodd; clip-rule:evenodd"
viewBox="0 0 1232.64 1689.73"
 xmlns:xlink="http://www.w3.org/1999/xlink"
 xmlns:xodm="http://www.corel.com/coreldraw/odm/2003">
 <defs>
  <style type="text/css">
   <![CDATA[
    .fil0 {fill:white}
   ]]>
  </style>
 </defs>
 <g id="Camada_x0020_1">
  <metadata id="CorelCorpID_0Corel-Layer"/>
  <g id="_1930639415088">
   <path class="fil0" d="M599.17 984.79l0 0zm404.71 -35.2c0,-45 27.87,-2.83 10.48,0 -0.21,0.04 -10.48,49.12 -10.48,0zm-404.71 35.2c13.91,-52.06 7.16,-28.54 35.19,-70.39 -104.42,8.68 -34.13,18.03 -105.58,70.39 -33.75,-126.47 -98.58,-14.63 -52.79,-211.16 122.64,0 81.02,31.15 140.78,52.79 55.41,-115.49 -9.91,-50.17 105.58,-105.58 5.96,71.74 9.04,71.6 70.38,87.98 -70.52,105.3 -91.61,107.7 -193.55,175.97zm-281.55 -87.99l0 -105.58c138.97,0 55.34,7.32 105.58,-17.59 -4.06,48.8 -6.62,68.94 -16.14,81.41l-34.91 24.75c-23.26,10.8 22.26,8.6 -54.53,17zm527.89 -263.94c49.95,94.37 238.47,215.82 93.5,151.18 -136.18,-60.76 -92.69,-3 -181.47,-45.6 15.36,-57.53 44.16,-76.24 87.98,-105.58zm-510.29 105.58c24.36,-46.04 67.46,-130.44 105.58,-158.37 17.73,66.42 49.33,100.95 99.92,128.82l58.45 29.54c-78.88,-1.76 -56.98,-16.19 -121.51,-14.12 -45.01,1.44 -67.9,14.12 -142.44,14.12zm-52.79 -193.55c-10.87,46.62 -9.55,34.99 -30.99,74.7 -37.98,70.22 -82.74,132.65 -21.8,259.64 -103.57,-8.63 -96.44,-28.92 -158.37,-70.39 15.98,-59.88 51.19,-96.17 92.09,-136.67 37.74,-37.35 89.69,-105.77 119.07,-127.28zm17.6 -17.61l-17.6 17.61 17.6 -17.61zm0 0c3.65,-44.08 0.18,-23.19 10.02,-60.34 1.44,-5.43 6.51,-21.82 8.31,-26.88 15.8,-44.04 4.78,-16.89 16.86,-35.93 0,86.37 7.78,73.73 -35.19,123.15zm35.19 -123.15l0 0zm299.13 -35.19c71.14,29.36 64.3,-45.18 123.18,35.19 -104.23,24.28 -89.83,13.74 -105.58,52.79 54.02,24.97 44.58,1.74 123.18,0 5.28,63.58 21.93,83.84 35.19,140.77 -68.09,45.6 -109.59,123.35 -209.25,88.16 -73.99,-26.1 -140.47,-94.48 -142.67,-193.74l105.58 0c-19.8,-74.15 -11.47,-30.87 -105.58,-52.79 36.68,-69.32 1.98,-42.36 87.98,-35.19 -14.16,-53.03 0.22,-38.64 -52.79,-52.79 9.04,-108.62 119.92,-240.89 228.76,-35.19 -64.33,5.34 -75.04,2.47 -87.99,52.79zm-351.92 475.09c-117.17,-85.86 89.26,-270.52 108.32,-454.92 11.4,-110.51 -7.15,-102.48 61.08,-220.28 73.61,-127.07 302.24,-208.79 429.24,76.58 36.15,81.27 64.51,253.07 87.61,352.28 -108.16,-79.25 -91.59,-303.69 -123.18,-369.52 -29.66,20.61 -35.19,2.52 -35.19,52.79 0,110.72 41.96,235.06 87.17,299.95 45.15,64.87 90.49,106.47 159.23,139.89l70.33 35.26c-161.03,0 -249.38,-115.01 -297.07,-248.42 -40.72,-113.86 -71.25,-349.84 -213.22,-349.84 -225.45,0 -133.41,279.01 -274.42,482.21 -55.33,79.73 -59.91,75.78 -59.91,204.03zm510.29 175.97c-8.46,-101.8 -38.92,-177.26 87.99,-211.16 64.59,43.27 52.32,67.73 83.46,146.1 47.81,120.17 22.12,55.84 22.12,188.23 18.98,-21.87 8.79,-6.68 29.4,-40.99 11.65,-19.34 20.72,-38.11 29.85,-59.06 68.94,-157.92 -42.73,-144.4 -34.38,-218.12 6.74,-59.39 35.26,-17.95 115.89,-16.17 -3.25,145.59 -52.79,362.35 -52.79,439.91 56.01,-41.04 61.58,-134.68 75.76,-223.38 5.76,-35.91 7.69,-91.24 15.68,-142.69 10.63,-68.59 6.61,-75.32 66.93,-91.45l0 -70.38c-221.9,-51.72 -192.89,-28 -235.98,-203.95 -30.59,-124.84 -90.88,-568.75 -390.22,-511.89 -188.31,35.77 -210.99,207.42 -309.5,360.83 -49.05,76.37 -14.99,97.17 -63.45,165.28 -44.98,63.18 -169.19,138.19 -195.58,261.94 -21.88,102.61 -48.51,129.28 -33.56,186.32 14.42,55.09 51.92,44.8 84.66,146.03 35.05,108.41 117.16,200.56 246.2,211.31l0 -35.19c-71.53,-16.67 -122.2,-48.61 -161.99,-101.95 -26.73,-35.86 -31.98,-59.92 -44.85,-95.92 -33.04,-92.45 -16.24,-33.53 -52.86,-89.16 -15.62,-23.75 -41.56,-61.81 -14.26,-109.06 47.65,-82.46 24.07,50.29 309.14,26.58 0,103.22 -32.65,197.82 52.79,228.74 -35.56,-152.68 -9.94,-92.92 17.6,-211.16l35.19 0c17.77,66.47 33.96,51.19 70.39,105.58 108.66,-52.13 141.96,-91.81 193.55,-105.58 16.63,71.3 4.71,53 52.79,70.39z"/>
   <path class="fil0" d="M704.75 1583.05c18.7,-18.7 66.75,27.93 19.59,9.14 -0.39,-0.17 -49.07,20.33 -19.59,-9.14zm87.98 17.6c-45.5,5.63 -5.37,-59.48 -0.56,-21.84l0.56 21.84zm-158.37 -35.2c30.41,-30.39 59.05,47.65 15.65,13.49 -1.52,-1.18 -41.53,12.38 -15.65,-13.49zm211.16 -17.59c0,-45.01 27.87,-2.83 10.47,0 -0.2,0.03 -10.47,49.11 -10.47,0zm-246.34 17.59c-30.18,3.76 -24.86,-51.92 -1.21,-23.47 0,0 0.63,1.53 0.65,1.64l0.56 21.82zm299.13 -52.79c-45.5,5.64 -5.37,-59.49 -0.56,-21.82l0.56 21.82zm-369.52 -35.19c30.41,-30.38 59.05,47.63 15.65,13.49 -1.52,-1.21 -41.53,12.39 -15.65,-13.49zm369.52 -52.79c0.95,-7.65 79.82,-31.54 23.48,1.2l-7.01 0.46c-6.73,-0.22 -21.36,37.78 -16.47,-1.66zm-387.11 0c-9.3,-50.28 42.69,6.61 13.87,2.87 -31.84,-4.14 -6.47,37.15 -13.87,-2.87zm193.55 -175.95l35.19 0c177.86,0 177.86,281.53 0,281.53l-35.19 0c-177.85,0 -177.85,-281.53 0,-281.53zm211.16 105.56c0,-45 27.84,-2.82 10.45,0 -0.21,0.04 -10.45,49.12 -10.45,0zm-387.12 17.6c-45.5,5.64 -5.37,-59.48 -0.57,-21.85l0.57 21.85zm351.93 -87.98c-9.28,-50.28 42.69,6.61 13.87,2.87 -31.84,-4.14 -6.47,37.15 -13.87,-2.87zm-351.93 0c4.49,-36.18 92.92,4.32 16.47,1.66 -6.73,-0.22 -21.36,37.77 -16.47,-1.66zm299.15 -52.79c0.93,-7.65 79.82,-31.52 23.47,1.2 -0.03,0 -1.81,0.45 -1.91,0.46 -15.82,0.36 -26.35,36.96 -21.56,-1.66zm-246.36 0c-9.3,-50.28 42.69,6.61 13.85,2.87 -31.82,-4.14 -6.45,37.15 -13.85,-2.87zm193.57 -35.19c-9.28,-50.27 42.69,6.61 13.87,2.87 -31.84,-4.14 -6.47,37.15 -13.87,-2.87zm-140.78 0c0.95,-7.65 79.85,-31.52 23.48,1.21 -0.03,0 -1.81,0.43 -1.91,0.43 -15.85,0.35 -26.35,36.97 -21.57,-1.64zm70.39 -17.6c18.7,-18.7 66.75,27.93 19.59,9.14 -0.39,-0.17 -49.07,20.33 -19.59,-9.14zm-105.58 -17.6l-17.6 17.6 -70.38 70.39c-11.33,48.55 -8.47,39.63 -35.2,70.38l0 140.77c17.99,19.43 17.6,-30.78 17.6,52.79l17.6 17.6 70.38 70.39 17.6 17.59c83.57,0 33.38,-0.38 52.79,17.6l140.77 0c19.43,-17.98 -30.78,-17.6 52.79,-17.6l17.6 -17.59 70.39 -70.39 17.59 -17.6c0,-83.57 -0.39,-33.36 17.6,-52.79l0 -140.77c-17.99,-19.41 -17.6,30.77 -17.6,-52.79l-17.59 -17.59 -70.39 -70.39 -17.6 -17.6c-83.57,0 -33.36,0.39 -52.79,-17.59l-140.77 0c-19.41,17.98 30.78,17.59 -52.79,17.59z"/>
   <path class="fil0" d="M475.99 1319.11c6.81,-81.72 -18.87,-30.78 35.2,-70.38 15.39,-57.99 10.1,-55.97 70.38,-70.39l17.6 -17.6c19.41,-17.98 -30.78,-17.59 52.79,-17.59 34.55,-21.92 97.33,-27.58 140.77,0 83.57,0 33.38,-0.39 52.79,17.59l17.6 17.6c57.99,15.39 55.95,10.1 70.39,70.39l17.59 17.59c17.99,19.41 17.6,-30.78 17.6,52.79 2.49,3.93 5.17,5.76 5.84,12.7l-5.84 128.07c0,83.59 0.39,33.38 -17.6,52.79l-17.59 17.6c-15.37,57.99 -10.12,55.95 -70.39,70.39l-17.6 17.59c-19.41,17.99 30.78,17.6 -52.79,17.6l-100.8 15.39c-39.66,-7.72 -18.81,-1.96 -39.97,-15.39 -83.57,0 -33.38,0.39 -52.79,-17.6l-17.6 -17.59c-57.99,-15.39 -55.95,-10.1 -70.38,-70.39l-17.6 -17.6c-17.98,-19.41 -17.6,30.8 -17.6,-52.79 -23.01,-36.27 -26.8,-98.54 0,-140.77zm-52.79 35.19c0,487.98 598.28,382.65 598.28,70.39 0,-490.82 -598.28,-379.17 -598.28,-70.39z"/>
   <path class="fil0" d="M687.15 1389.5c-56.79,77.5 -109.13,37 -55.48,90.65 47.62,47.63 29.77,5.27 46.34,-7.83 15.29,-12.1 2.01,-16.63 44.34,-47.63 77.5,56.8 37,109.15 90.65,55.46 24.35,-24.32 47.33,-7.53 -90.65,-125.85 -42.18,-30.88 -29.24,-35.69 -44.34,-47.62 -16.57,-13.07 1.31,-55.49 -46.34,-7.86 -53.65,53.67 -1.31,13.18 55.48,90.68z"/>
   <path class="fil0" d="M563.98 562.48c3.8,34.73 -7.2,11.51 10.02,43.1 73.64,134.93 198.6,-60.7 42.77,-60.7 -20.56,0 -48.64,12.53 -52.79,17.6z"/>
   <path class="fil0" d="M898.3 1055.16c-5.38,-8.04 -15.34,-30.1 -27.5,-42.88 -26.52,-27.79 -4.04,-13.45 -42.88,-27.5 16.24,60.83 9.55,54.14 70.38,70.38z"/>
   <polygon class="fil0" points="792.72,1019.98 792.72,1037.58 813.25,1022.9 "/>
  </g>
 </g>
</svg>
