<?xml version="1.0" encoding="UTF-8"?>
<!DOCTYPE svg PUBLIC "-//W3C//DTD SVG 1.1//EN" "http://www.w3.org/Graphics/SVG/1.1/DTD/svg11.dtd">
<!-- Creator: CorelDRAW 2020 (64 Bit) -->
<svg xmlns="http://www.w3.org/2000/svg" xml:space="preserve" width="121.053cm" height="100cm" version="1.1" style="shape-rendering:geometricPrecision; text-rendering:geometricPrecision; image-rendering:optimizeQuality; fill-rule:evenodd; clip-rule:evenodd"
viewBox="0 0 113474.93 93739.95"
 xmlns:xlink="http://www.w3.org/1999/xlink"
 xmlns:xodm="http://www.corel.com/coreldraw/odm/2003">
 <defs>
  <style type="text/css">
   <![CDATA[
    .fil0 {fill:white}
   ]]>
  </style>
 </defs>
 <g id="Camada_x0020_1">
  <metadata id="CorelCorpID_0Corel-Layer"/>
  <g id="_1930638537520">
   <path class="fil0" d="M13567.5 64137.75l0 0zm0 0c2458.87,-3672.7 5062.38,-5042.09 7604.5,-8429.16 5531.68,-7367.25 9440.07,-19374.42 20519.04,-27585.05 6442.18,-4772.58 18344.25,-4529.09 25657.39,-497.91 11225.17,6186.72 8234.05,6909.4 25157.92,6909.4 1790.3,-2673.23 2329.32,-4258.02 4934.39,-6166.43 4788.19,1278.86 7747.06,5719.51 11100.83,8634.15 -673.25,-56.71 -13043.05,-3505.17 -11995.2,3589.97 696.14,4708.07 1049.94,1239.32 6491.09,1111.33 10467.64,-247.66 10436.94,2983.32 10436.94,-8401.58 -10742.87,-5684.13 -10548.8,-12598.21 -22202.17,-13566.98 138.4,6185.68 2903.72,10857.33 -7160.18,9877.11 -6105.56,-594.69 -9597.2,-4120.15 -14586.74,-6631.57 -24868.12,-12522.77 -38687.44,6699.72 -49706.58,25205.78 -12093.01,20309.37 -19553.39,10182 -19818.74,22118.92 23972.18,1994.26 24746.89,-8236.65 38235.83,-17269.34 -2660.22,11418.72 -13318.28,11966.58 -14724.1,28559.55 -482.31,5683.09 1332.97,7609.18 2390.71,12144l8633.11 0c12802.16,-19118.95 -6050.41,-11448.9 20285.96,-31517.89 6160.71,-4695.58 4638.35,-3908.91 8082.65,-10417.69l9868.27 0c-502.6,6040 -2733.06,3917.23 2466.16,7400.55l3073.85 -6794.94c135.79,-229.97 343.91,-524.45 495.31,-738.29 148.8,-209.68 412.59,-462.01 572.84,-660.24 2186.76,-2696.12 2442.74,-1086.36 3258.55,-4141.48 -6208.57,-2979.16 -9422.38,594.17 -17267.26,-1234.12l0 -9866.71c-8516.56,709.15 -2584.26,3818.38 -7356.85,14846.36 -3739.82,8641.95 -18013.87,14505.58 -22072.62,22330.16 -4769.46,9192.42 1586.87,13743.36 -6341.25,15859.88 0,-27843.63 9788.14,-17956.64 13281.86,-33653.67 1413.1,-6353.21 1067.63,-8175.78 -946.92,-11982.19 -9024.88,2409.45 -14530.55,17743.84 -28368.6,20968.05z"/>
   <polygon class="fil0" points="9867.23,4933.87 43169.7,4933.87 43169.7,0 9867.23,0 "/>
   <polygon class="fil0" points="65371.87,74006.02 98673.31,74006.02 98673.31,69071.63 65371.87,69071.63 "/>
   <polygon class="fil0" points="17267.78,11100.83 43169.7,11100.83 43169.7,7400.55 17267.78,7400.55 "/>
   <polygon class="fil0" points="65371.87,81406.57 91272.24,81406.57 91272.24,77706.3 65371.87,77706.3 "/>
   <path class="fil0" d="M90040.2 48104.1l2712.25 -2220.58c-3022.86,-4036.9 549.42,-2237.75 -5178.93,-2713.81 457.33,5509.83 -1350.14,2281.45 2466.68,4934.39z"/>
  </g>
 </g>
</svg>
