<?xml version="1.0" encoding="UTF-8"?>
<!DOCTYPE svg PUBLIC "-//W3C//DTD SVG 1.1//EN" "http://www.w3.org/Graphics/SVG/1.1/DTD/svg11.dtd">
<!-- Creator: CorelDRAW 2020 (64 Bit) -->
<svg xmlns="http://www.w3.org/2000/svg" xml:space="preserve" width="73.6954cm" height="100cm" version="1.1" style="shape-rendering:geometricPrecision; text-rendering:geometricPrecision; image-rendering:optimizeQuality; fill-rule:evenodd; clip-rule:evenodd"
viewBox="0 0 43872.9 59532.75"
 xmlns:xlink="http://www.w3.org/1999/xlink"
 xmlns:xodm="http://www.corel.com/coreldraw/odm/2003">
 <defs>
  <style type="text/css">
   <![CDATA[
    .fil0 {fill:white}
   ]]>
  </style>
 </defs>
 <g id="Camada_x0020_1">
  <metadata id="CorelCorpID_0Corel-Layer"/>
  <path class="fil0" d="M27997.64 51472.32l23.81 3953.19 -11859.17 71.8 -24 -3953.19 11859.37 -71.8zm-287.02 -47436.88l24 3953.19 -11859.37 71.8 -23.81 -3953.19 11859.17 -71.8zm-6044.93 21779.3c255.47,-49.35 1410.5,175.15 1686.29,281.4 422.49,163.15 860.85,461.2 1195.48,778.79 3913.12,3714.94 -1642.16,9181.2 -5222.01,5782.89 -1609.07,-1527.39 -1804.73,-3896.67 -280.44,-5502.45 754.21,-794.66 1576.55,-1138.77 2620.68,-1340.63zm-9456.6 29706.57c-8941.22,54 -7899.99,1082.84 -7953.98,-7858.38 -31.93,-5270.79 -63.87,-10541.77 -95.61,-15812.36l10129.73 -61.35c1345.47,5473.23 8371.64,7595.17 12655,4029.83 1285.47,-1070.07 2282.19,-2486.56 2663.26,-4122.34l10129.92 -61.35c31.93,5270.59 63.67,10541.57 95.61,15812.36 54.19,8941.22 1082.84,7899.79 -7858.18,7953.98 -9.1,-1482.49 -18,-2964.79 -26.9,-4447.29 -26.51,-4381.68 -585.45,-3455.41 -9903.87,-3399.09 -1315.86,7.94 -8045.72,-137.41 -8740.13,206.31 -1410.11,698.67 -1129.87,1994.4 -1121.74,3312.39 8.9,1482.3 17.81,2964.79 26.9,4447.29zm24643.06 -51541.22c2073.36,-12.58 2721.71,627.64 2734.29,2701.2l126.96 21000.89 -10129.73 61.35c-847.11,-3446.31 -4256.65,-5837.08 -7694.64,-5816.37 -3449.02,20.9 -6819.86,2459.08 -7623.62,5908.88l-10129.92 61.35 -126.96 -21000.89c-12.39,-2032.91 668.28,-2721.71 2701.39,-2734.1l5188.15 -31.35 32.9 5435.49c11.23,1828.54 657.25,2466.82 2485.79,2455.79l14824.16 -89.8c1828.54,-11.03 2466.82,-657.06 2455.79,-2485.6l-32.9 -5435.49 5188.34 -31.35zm6552.58 825.24c-273.27,-1641 -1155.8,-2977.18 -2565.72,-3866.09 -1915.63,-1207.86 -3348.58,-910.59 -5498.77,-897.62l-25691.26 148.06c-3793.13,21.87 -7391.76,-523.13 -9194.94,3686.11 -739.5,1725.96 -356.3,10019.99 -341.59,12433.4 19.93,3307.35 47.8,36863.76 313.34,38461.41 252.76,1522.17 1310.44,3005.05 2608.1,3822.94 1916.21,1207.86 3348,910.59 5498.77,897.62l25691.26 -148.06c3793.13,-21.87 7391.76,523.13 9194.94,-3686.11 739.5,-1725.96 356.3,-10019.99 341.59,-12433.4l-194.31 -32118.82c-11.42,-1891.82 137.99,-4500.9 -161.41,-6299.44z"/>
 </g>
</svg>
