<?xml version="1.0" encoding="UTF-8"?>
<!DOCTYPE svg PUBLIC "-//W3C//DTD SVG 1.1//EN" "http://www.w3.org/Graphics/SVG/1.1/DTD/svg11.dtd">
<!-- Creator: CorelDRAW 2020 (64 Bit) -->
<svg xmlns="http://www.w3.org/2000/svg" xml:space="preserve" width="0.93784cm" height="1.00148cm" version="1.1" style="shape-rendering:geometricPrecision; text-rendering:geometricPrecision; image-rendering:optimizeQuality; fill-rule:evenodd; clip-rule:evenodd"
viewBox="0 0 777.67 830.44"
 xmlns:xlink="http://www.w3.org/1999/xlink"
 xmlns:xodm="http://www.corel.com/coreldraw/odm/2003">
 <defs>
  <style type="text/css">
   <![CDATA[
    .fil0 {fill:white}
   ]]>
  </style>
 </defs>
 <g id="Camada_x0020_1">
  <metadata id="CorelCorpID_0Corel-Layer"/>
  <path class="fil0" d="M302.17 672.1l-26.52 39.47 -118.42 -79.53 26.51 -39.48 118.43 79.54 0 0zm318.14 -473.7l-26.51 39.48 -118.43 -79.54 26.52 -39.48 118.42 79.54 0 0zm-207.49 175.69c2.88,1.24 12.84,11.29 14.87,14.2 3.09,4.49 5.44,10.41 6.62,15.84 13.78,63.43 -78.46,80.19 -91.06,22.17 -5.66,-26.08 8.42,-50.96 34.45,-56.62 12.88,-2.8 23.38,-0.66 35.13,4.4l0 0zm-295.07 231.43c-89.28,-59.96 -85.89,-42.69 -25.92,-131.97 35.35,-52.64 70.7,-105.28 106.05,-157.91l101.16 67.94c-23.66,63.54 31.86,132.18 98.59,125.72 20.03,-1.95 39.52,-9.29 54.38,-22.98l101.16 67.94c-35.35,52.63 -70.7,105.27 -106.05,157.9 -59.97,89.29 -42.69,85.89 -131.98,25.93 9.94,-14.8 19.88,-29.6 29.83,-44.41 29.39,-43.75 17.56,-38.33 -75.49,-100.82 -13.13,-8.82 -79.08,-55.81 -88.31,-57.09 -18.76,-2.59 -24.74,12.19 -33.57,25.36 -9.94,14.8 -19.88,29.6 -29.83,44.4l0 0zm593.85 -345.82c20.71,13.91 22.82,24.66 8.91,45.37l-140.85 209.71 -101.16 -67.94c14.9,-40 -2.83,-86.85 -37.17,-109.91 -34.44,-23.13 -84.46,-21.69 -115.8,7.18l-101.16 -67.94 140.85 -209.72c13.63,-20.3 25.06,-22.55 45.37,-8.91l51.81 34.79 -36.46 54.28c-12.26,18.26 -10.15,28.97 8.11,41.24l148.03 99.42c18.26,12.26 28.98,10.16 41.25,-8.1l36.45 -54.28 51.81 34.8zm59.58 52.55c8.39,-18.17 8.66,-37.43 0.65,-55.81 -10.88,-24.98 -27.14,-31.71 -48.61,-46.14l-256.5 -172.38c-37.87,-25.45 -69.98,-55.22 -116.39,-25.56 -19.04,12.16 -71.35,97.23 -87.53,121.34 -22.18,33.02 -248.98,366.93 -257.15,384.61 -7.79,16.85 -7.31,38.76 0.07,55.67 10.88,24.98 27.13,31.72 48.61,46.14l256.5 172.38c37.87,25.46 69.98,55.23 116.39,25.56 19.04,-12.16 71.35,-97.23 87.53,-121.34l215.41 -320.73c12.69,-18.9 31.83,-43.83 41.02,-63.74l0 0z"/>
 </g>
</svg>
