<?xml version="1.0" encoding="UTF-8"?>
<svg id="a" xmlns="http://www.w3.org/2000/svg" viewBox="0 0 768 768"><path d="M674.17,0C725.96,0,768,42.05,768,93.83V674.17c0,51.79-42.04,93.83-93.83,93.83h-159.7V478.63h99.9l19.01-123.93h-118.91v-80.43c0-33.9,16.61-66.95,69.87-66.95h54.06V101.81s-49.06-8.37-95.97-8.37c-97.93,0-161.94,59.35-161.94,166.81v94.46h-108.86v123.93h108.86v289.37H93.83c-51.79,0-93.83-42.04-93.83-93.83V93.83C0,42.05,42.04,0,93.83,0H674.17Z" fill="#83BF4F" fill-rule="evenodd"/></svg>