<?xml version="1.0" encoding="UTF-8"?>
<svg id="a" xmlns="http://www.w3.org/2000/svg" viewBox="0 0 768 768"><path d="M507.43,149.98h-246.87c-60.92,0-110.58,49.66-110.58,110.58v246.87c0,60.92,49.66,110.58,110.58,110.58h246.87c60.92,0,110.58-49.66,110.58-110.58v-246.87c0-60.92-49.66-110.58-110.58-110.58Zm-123.43,382.68c-82.02,0-148.66-66.63-148.66-148.66s66.64-148.66,148.66-148.66,148.66,66.63,148.66,148.66-66.64,148.66-148.66,148.66Zm152.94-267.33c-18.58,0-33.63-15.06-33.63-33.63s15.06-33.63,33.63-33.63,33.63,15.06,33.63,33.63-15.06,33.63-33.63,33.63Z" fill="#83BF4F"/><circle cx="384" cy="384" r="97.1" transform="translate(-159.06 384) rotate(-45)" fill="#83BF4F"/><path d="M672,0H96C43.01,0,0,43.01,0,96V672c0,52.99,43.01,96,96,96H672c52.99,0,96-43.01,96-96V96c0-52.99-43.01-96-96-96Zm-2.42,507.43c0,89.32-72.66,162.15-162.15,162.15h-246.87c-89.48,0-162.15-72.66-162.15-162.15v-246.87c0-89.48,72.66-162.15,162.15-162.15h246.87c89.48,0,162.15,72.66,162.15,162.15v246.87Z" fill="#83BF4F"/></svg>