<?xml version="1.0" encoding="utf-8"?>
<!-- Generator: Adobe Illustrator 16.0.0, SVG Export Plug-In . SVG Version: 6.00 Build 0)  -->
<!DOCTYPE svg PUBLIC "-//W3C//DTD SVG 1.1//EN" "http://www.w3.org/Graphics/SVG/1.1/DTD/svg11.dtd">
<svg version="1.1" id="Layer_1" xmlns="http://www.w3.org/2000/svg" xmlns:xlink="http://www.w3.org/1999/xlink" x="0px" y="0px"
	 width="100px" height="100px" viewBox="0 0 100 100" enable-background="new 0 0 100 100" xml:space="preserve">
<g>
	<g>
		<path fill="#FFFFFF" stroke="#FFFFFF" stroke-miterlimit="10" d="M70.872,98.766c-1.319,0-2.563-0.283-3.663-0.854
			c-1.764-0.917-2.918-2.515-3.167-4.386c-0.03-0.239,0.065-0.479,0.254-0.629c2.702-2.146,5.009-4.211,7.044-6.031
			c0.787-0.706,1.549-1.387,2.292-2.036c2.392-2.095,3.859-4.981,3.828-7.542c-0.022-1.754-0.751-3.278-2.106-4.407
			c-0.672-0.563-2.315-1.356-4.221-2.274c-4.107-1.981-9.734-4.698-12.47-8.268c-4.89-6.376-6.411-13.226-7.654-20.268
			c-0.063-0.374,0.185-0.73,0.558-0.796c0.375-0.065,0.731,0.185,0.799,0.557c1.258,7.131,2.684,13.533,7.39,19.671
			c2.535,3.309,7.992,5.941,11.979,7.866c2.064,0.999,3.697,1.786,4.502,2.455c1.674,1.395,2.572,3.278,2.599,5.448
			c0.036,2.949-1.608,6.242-4.296,8.592c-0.741,0.646-1.497,1.322-2.281,2.025c-1.968,1.762-4.188,3.75-6.785,5.829
			c0.282,1.271,1.112,2.318,2.373,2.974c1.721,0.893,3.989,0.906,6.289,0.082c-0.976-0.51-1.601-1.203-1.871-2.076
			c-0.769-2.471,1.525-5.523,3.871-8.182c1.672-1.92,2.791-3.582,3.524-5.225c0.155-0.348,0.562-0.503,0.907-0.348
			c0.345,0.152,0.5,0.559,0.348,0.906c-0.79,1.771-1.979,3.541-3.746,5.568c-1.158,1.316-4.236,4.803-3.593,6.87
			c0.251,0.808,1.11,1.397,2.56,1.761c0.277,0.068,0.481,0.303,0.516,0.585c0.033,0.284-0.112,0.558-0.364,0.689
			C74.452,98.281,72.596,98.766,70.872,98.766z"/>
	</g>
	<g>
		<path fill="#FFFFFF" stroke="#FFFFFF" stroke-miterlimit="10" d="M80.533,81.665c-0.084,0-0.168-0.017-0.252-0.049
			c-0.352-0.138-0.524-0.536-0.389-0.892c1.224-3.121,0.998-6.175-0.688-9.334c-0.973-1.822-2.477-2.609-5.2-4.037
			c-2.604-1.364-6.171-3.232-11.274-7.021c-7.551-5.601-9.272-12.044-9.932-17.029c-0.05-0.375,0.217-0.721,0.592-0.771
			c0.377-0.049,0.723,0.215,0.771,0.591c0.66,5.01,2.293,10.841,9.387,16.106c5.02,3.723,8.528,5.563,11.092,6.903
			c2.873,1.503,4.604,2.412,5.777,4.608c1.857,3.486,2.113,7.015,0.755,10.484C81.064,81.499,80.809,81.665,80.533,81.665z"/>
	</g>
	<g>
		<path fill="#FFFFFF" stroke="#FFFFFF" stroke-miterlimit="10" d="M80.284,82.26c-0.093,0-0.187-0.021-0.279-0.062
			c-0.347-0.153-0.504-0.562-0.348-0.906c0.084-0.187,0.163-0.374,0.235-0.563c0.137-0.354,0.534-0.529,0.89-0.392
			c0.354,0.138,0.528,0.537,0.392,0.892c-0.082,0.209-0.17,0.418-0.262,0.621C80.799,82.105,80.548,82.26,80.284,82.26z"/>
	</g>
	<g>
		<path fill="#FFFFFF" stroke="#FFFFFF" stroke-miterlimit="10" d="M35.476,52.036c-0.223,0-0.444-0.11-0.575-0.313
			c-0.208-0.316-0.118-0.744,0.201-0.951c0.311-0.217,0.735-0.139,0.953,0.172c0.216,0.311,0.138,0.74-0.17,0.957
			c-0.009,0.008-0.024,0.018-0.034,0.023C35.734,52,35.605,52.036,35.476,52.036z"/>
	</g>
	<g>
		<path fill="#FFFFFF" stroke="#FFFFFF" stroke-miterlimit="10" d="M26.229,48.628c-0.063,0-0.126-0.009-0.189-0.026
			c-0.057-0.016-0.11-0.035-0.164-0.054c-0.356-0.128-0.544-0.522-0.414-0.879c0.129-0.357,0.522-0.543,0.879-0.414
			c0.026,0.01,0.052,0.019,0.08,0.026c0.363,0.104,0.575,0.485,0.469,0.85C26.803,48.431,26.528,48.628,26.229,48.628z"/>
	</g>
	<g>
		<path fill="#FFFFFF" stroke="#FFFFFF" stroke-miterlimit="10" d="M26.044,48.564c-0.084,0-0.171-0.015-0.253-0.048
			c-0.066-0.027-0.131-0.057-0.194-0.089c-0.338-0.174-0.47-0.588-0.295-0.924c0.175-0.338,0.586-0.471,0.925-0.297
			c0.023,0.012,0.046,0.023,0.072,0.034c0.351,0.139,0.525,0.539,0.385,0.892C26.575,48.4,26.316,48.564,26.044,48.564z"/>
	</g>
	<g>
		<path fill="#FFFFFF" stroke="#FFFFFF" stroke-miterlimit="10" d="M26.435,49.605c-0.336,0-0.629-0.245-0.68-0.586
			c-0.018-0.128-0.026-0.262-0.024-0.41c0.006-0.375,0.313-0.676,0.687-0.676c0.004,0,0.008,0,0.012,0
			c0.38,0.006,0.682,0.32,0.676,0.699c-0.002,0.072,0.001,0.131,0.009,0.186c0.056,0.376-0.205,0.724-0.58,0.778
			C26.501,49.603,26.468,49.605,26.435,49.605z"/>
	</g>
	<g>
		<path fill="#FFFFFF" stroke="#FFFFFF" stroke-miterlimit="10" d="M26.517,49.91c-0.271,0-0.527-0.161-0.636-0.426
			c-0.059-0.144-0.1-0.296-0.123-0.457c-0.057-0.375,0.202-0.725,0.579-0.78c0.375-0.056,0.723,0.204,0.78,0.58
			c0.008,0.052,0.019,0.096,0.036,0.137c0.144,0.352-0.024,0.752-0.375,0.896C26.691,49.893,26.604,49.91,26.517,49.91z"/>
	</g>
	<g>
		<path fill="#FFFFFF" stroke="#FFFFFF" stroke-miterlimit="10" d="M26.427,49.144c-0.017,0-0.036-0.001-0.054-0.002
			c-0.379-0.029-0.662-0.36-0.633-0.738c0.005-0.056,0.01-0.112,0.018-0.168c0.041-0.377,0.382-0.647,0.759-0.606
			c0.377,0.042,0.647,0.382,0.605,0.758c-0.004,0.041-0.007,0.081-0.011,0.121C27.083,48.869,26.782,49.144,26.427,49.144z"/>
	</g>
	<g>
		<path fill="#FFFFFF" stroke="#FFFFFF" stroke-miterlimit="10" d="M26.459,48.846c-0.029,0-0.058-0.002-0.086-0.006
			c-0.376-0.046-0.643-0.39-0.598-0.767l0.021-0.162c0.047-0.376,0.395-0.646,0.766-0.596c0.377,0.047,0.644,0.39,0.598,0.766
			l-0.021,0.162C27.096,48.59,26.801,48.846,26.459,48.846z"/>
	</g>
	<g>
		<path fill="#FFFFFF" stroke="#FFFFFF" stroke-miterlimit="10" d="M26.439,49c-0.018,0-0.036-0.001-0.055-0.002
			c-0.378-0.03-0.66-0.362-0.629-0.741c0.002-0.02,0.005-0.053,0.008-0.074c0.064-0.374,0.419-0.626,0.795-0.559
			c0.363,0.063,0.61,0.399,0.564,0.761C27.086,48.736,26.788,49,26.439,49z"/>
	</g>
	<g>
		<path fill="#FFFFFF" stroke="#FFFFFF" stroke-miterlimit="10" d="M26.417,49.303c-0.378,0-0.687-0.301-0.687-0.681v-0.013
			c0-0.378,0.308-0.686,0.687-0.686c0.38,0,0.688,0.308,0.688,0.686C27.105,48.989,26.797,49.303,26.417,49.303z"/>
	</g>
	<g>
		<path fill="#FFFFFF" stroke="#FFFFFF" stroke-miterlimit="10" d="M26.426,49.147c-0.38,0-0.688-0.305-0.688-0.685v-0.005
			c0-0.38,0.307-0.688,0.688-0.688c0.38,0,0.687,0.308,0.687,0.688C27.112,48.836,26.806,49.147,26.426,49.147z"/>
	</g>
	<g>
		<path fill="#FFFFFF" stroke="#FFFFFF" stroke-miterlimit="10" d="M26.441,48.988c-0.025,0-0.052-0.001-0.078-0.005
			c-0.377-0.042-0.648-0.381-0.606-0.76l0.018-0.152c0.049-0.376,0.395-0.643,0.77-0.595c0.376,0.049,0.643,0.393,0.595,0.769
			l-0.017,0.133C27.083,48.729,26.786,48.988,26.441,48.988z"/>
	</g>
	<g>
		<path fill="#FFFFFF" stroke="#FFFFFF" stroke-miterlimit="10" d="M25.911,48.502c-0.104,0-0.208-0.022-0.308-0.072
			c-0.007-0.004-0.048-0.023-0.056-0.027c-0.333-0.182-0.456-0.599-0.274-0.932c0.179-0.327,0.585-0.452,0.915-0.283
			c0.009,0.004,0.026,0.012,0.03,0.014c0.339,0.17,0.477,0.582,0.307,0.922C26.406,48.364,26.163,48.502,25.911,48.502z"/>
	</g>
	<g>
		<path fill="#FFFFFF" stroke="#FFFFFF" stroke-miterlimit="10" d="M26.479,48.683c-0.038,0-0.073-0.002-0.109-0.008
			c-0.086-0.013-0.168-0.031-0.25-0.052c-0.367-0.094-0.59-0.469-0.495-0.835c0.093-0.369,0.467-0.589,0.835-0.496
			c0.042,0.01,0.083,0.02,0.126,0.027c0.374,0.059,0.63,0.411,0.572,0.787C27.103,48.442,26.812,48.683,26.479,48.683z"/>
	</g>
	<g>
		<path fill="#FFFFFF" stroke="#FFFFFF" stroke-miterlimit="10" d="M26.417,49.297c-0.006,0-0.012,0-0.02,0
			c-0.378-0.01-0.677-0.326-0.666-0.705c0-0.063,0.004-0.124,0.009-0.186c0.029-0.378,0.36-0.662,0.74-0.629
			c0.379,0.031,0.66,0.362,0.629,0.74c-0.003,0.037-0.004,0.075-0.007,0.111C27.094,49.002,26.788,49.297,26.417,49.297z"/>
	</g>
	<g>
		<path fill="#FFFFFF" stroke="#FFFFFF" stroke-miterlimit="10" d="M30.412,54.227c-0.285,0-0.553-0.037-0.78-0.131
			c-0.892-0.371-1.641-1.305-1.782-2.224c-0.028-0.174-0.038-0.339-0.047-0.5c-0.025-0.464-0.056-0.548-0.146-0.597
			c-0.088-0.047-0.226-0.096-0.37-0.146c-0.374-0.133-0.84-0.298-1.146-0.692c-0.109-0.139-0.198-0.294-0.265-0.456
			c-0.141-0.352,0.029-0.753,0.381-0.895c0.353-0.143,0.752,0.028,0.894,0.381c0.019,0.045,0.043,0.087,0.074,0.128
			c0.06,0.074,0.36,0.181,0.521,0.238c0.187,0.067,0.382,0.136,0.563,0.232c0.793,0.427,0.837,1.212,0.865,1.731
			c0.008,0.124,0.013,0.247,0.033,0.367c0.068,0.444,0.504,0.978,0.951,1.161c0.382,0.16,1.684-0.206,2.611-0.635
			c0.717-0.336,1.452-0.781,2.314-1.405c0.308-0.224,0.736-0.154,0.958,0.153c0.223,0.308,0.155,0.736-0.153,0.959
			c-0.934,0.676-1.739,1.164-2.542,1.537C33.011,53.591,31.564,54.227,30.412,54.227z"/>
	</g>
	<g>
		<path fill="#FFFFFF" stroke="#FFFFFF" stroke-miterlimit="10" d="M25.878,48.486c-0.11,0-0.215-0.025-0.308-0.071
			c-0.225-0.113-0.381-0.346-0.381-0.615c0-0.38,0.309-0.688,0.687-0.688c0.379,0,0.688,0.308,0.688,0.688
			C26.564,48.179,26.258,48.486,25.878,48.486z"/>
	</g>
	<g>
		<path fill="#FFFFFF" stroke="#FFFFFF" stroke-miterlimit="10" d="M25.622,50.345"/>
	</g>
	<g>
		<path fill="#FFFFFF" stroke="#FFFFFF" stroke-miterlimit="10" d="M36.935,58.667c-0.073,0-0.148-0.013-0.222-0.035
			c-0.359-0.124-0.552-0.514-0.429-0.873c0.744-2.175-0.497-4.687-1.025-5.759c-0.231-0.471-0.328-0.664-0.261-0.947
			c0.089-0.369,0.458-0.598,0.827-0.51c0.272,0.064,0.467,0.281,0.516,0.539c0.03,0.066,0.094,0.195,0.151,0.311
			c0.55,1.121,2.02,4.097,1.095,6.813C37.487,58.486,37.22,58.667,36.935,58.667z"/>
	</g>
	<g>
		<path fill="#FFFFFF" stroke="#FFFFFF" stroke-miterlimit="10" d="M26.104,48.589c-0.076,0-0.15-0.014-0.228-0.042
			c-0.032-0.011-0.065-0.023-0.098-0.037c-0.349-0.146-0.515-0.549-0.367-0.899c0.146-0.35,0.548-0.515,0.898-0.368
			c0.358,0.128,0.558,0.527,0.43,0.884C26.639,48.409,26.382,48.589,26.104,48.589z"/>
	</g>
	<g>
		<path fill="#FFFFFF" stroke="#FFFFFF" stroke-miterlimit="10" d="M26.435,49.614c-0.306,0-0.587-0.209-0.665-0.521
			c-0.007-0.024-0.012-0.058-0.016-0.083c-0.051-0.377,0.214-0.723,0.591-0.772c0.37-0.049,0.705,0.203,0.766,0.566
			c0.065,0.353-0.155,0.701-0.508,0.789C26.548,49.606,26.491,49.614,26.435,49.614z"/>
	</g>
	<g>
		<path fill="#FFFFFF" stroke="#FFFFFF" stroke-miterlimit="10" d="M26.292,48.645c-0.056,0-0.11-0.007-0.165-0.02l-0.078-0.021
			c-0.364-0.106-0.58-0.488-0.474-0.853c0.106-0.364,0.479-0.577,0.844-0.47l0.036,0.009c0.367,0.093,0.59,0.466,0.5,0.833
			C26.877,48.436,26.599,48.645,26.292,48.645z"/>
	</g>
	<g>
		<path fill="#FFFFFF" stroke="#FFFFFF" stroke-miterlimit="10" d="M26.435,49.605c-0.336,0-0.629-0.245-0.68-0.586
			c-0.018-0.128-0.026-0.262-0.024-0.41c0.006-0.375,0.313-0.676,0.687-0.676c0.004,0,0.008,0,0.012,0
			c0.38,0.006,0.682,0.32,0.676,0.699c-0.002,0.072,0.001,0.131,0.009,0.186c0.056,0.376-0.205,0.724-0.58,0.778
			C26.501,49.603,26.468,49.605,26.435,49.605z"/>
	</g>
	<g>
		<path fill="#FFFFFF" stroke="#FFFFFF" stroke-miterlimit="10" d="M26.479,48.683c-0.038,0-0.073-0.002-0.109-0.008
			c-0.086-0.013-0.168-0.031-0.25-0.052c-0.367-0.094-0.59-0.469-0.495-0.835c0.093-0.369,0.467-0.589,0.835-0.496
			c0.042,0.01,0.083,0.02,0.126,0.027c0.374,0.059,0.63,0.411,0.572,0.787C27.103,48.442,26.812,48.683,26.479,48.683z"/>
	</g>
	<g>
		<path fill="#FFFFFF" stroke="#FFFFFF" stroke-miterlimit="10" d="M26.417,49.297c-0.006,0-0.012,0-0.02,0
			c-0.378-0.01-0.677-0.326-0.666-0.705c0-0.063,0.004-0.124,0.009-0.186c0.029-0.378,0.36-0.662,0.74-0.629
			c0.379,0.031,0.66,0.362,0.629,0.74c-0.003,0.037-0.004,0.075-0.007,0.111C27.094,49.002,26.788,49.297,26.417,49.297z"/>
	</g>
	<g>
		<path fill="#FFFFFF" stroke="#FFFFFF" stroke-miterlimit="10" d="M26.229,48.628c-0.063,0-0.126-0.009-0.189-0.026
			c-0.057-0.016-0.11-0.035-0.164-0.054c-0.356-0.128-0.544-0.522-0.414-0.879c0.129-0.357,0.522-0.543,0.879-0.414
			c0.026,0.01,0.052,0.019,0.08,0.026c0.363,0.104,0.575,0.485,0.469,0.85C26.803,48.431,26.528,48.628,26.229,48.628z"/>
	</g>
	<g>
		<path fill="#FFFFFF" stroke="#FFFFFF" stroke-miterlimit="10" d="M26.044,48.564c-0.084,0-0.171-0.015-0.253-0.048
			c-0.066-0.027-0.131-0.057-0.194-0.089c-0.338-0.174-0.47-0.588-0.295-0.924c0.175-0.338,0.586-0.471,0.925-0.297
			c0.023,0.012,0.046,0.023,0.072,0.034c0.351,0.139,0.525,0.539,0.385,0.892C26.575,48.4,26.316,48.564,26.044,48.564z"/>
	</g>
	<g>
		<path fill="#FFFFFF" stroke="#FFFFFF" stroke-miterlimit="10" d="M25.622,51.031c-0.171,0-0.34-0.063-0.474-0.188
			c-0.275-0.261-0.286-0.697-0.026-0.972c0.32-0.336,0.593-0.676,0.81-1.011c0.121-0.194,0.338-0.325,0.585-0.325
			c0.38,0,0.687,0.307,0.687,0.687v0.001c0,0.133-0.039,0.263-0.111,0.374c-0.266,0.41-0.592,0.819-0.973,1.221
			C25.984,50.961,25.802,51.031,25.622,51.031z"/>
	</g>
	<g>
		<path fill="#FFFFFF" stroke="#FFFFFF" stroke-miterlimit="10" d="M26.288,48.645c-0.053,0-0.107-0.007-0.161-0.02l-0.078-0.021
			c-0.364-0.106-0.58-0.488-0.474-0.853c0.106-0.364,0.479-0.577,0.844-0.47c0.001,0,0.013,0.003,0.013,0.003
			c0.369,0.09,0.605,0.466,0.514,0.834C26.868,48.431,26.597,48.645,26.288,48.645z"/>
	</g>
	<g>
		<path fill="#FFFFFF" stroke="#FFFFFF" stroke-miterlimit="10" d="M26.108,48.589c-0.078,0-0.155-0.013-0.232-0.042
			c-0.031-0.011-0.062-0.022-0.093-0.036c-0.351-0.144-0.52-0.546-0.374-0.896c0.146-0.351,0.547-0.518,0.896-0.373l0.035,0.012
			c0.357,0.128,0.542,0.522,0.414,0.879C26.655,48.415,26.389,48.589,26.108,48.589z"/>
	</g>
	<g>
		<path fill="#FFFFFF" stroke="#FFFFFF" stroke-miterlimit="10" d="M25.911,48.502c-0.104,0-0.208-0.022-0.308-0.072
			c-0.007-0.004-0.048-0.023-0.056-0.027c-0.333-0.182-0.456-0.599-0.274-0.932c0.179-0.327,0.585-0.452,0.915-0.283
			c0.009,0.004,0.026,0.012,0.03,0.014c0.339,0.17,0.477,0.582,0.307,0.922C26.406,48.364,26.163,48.502,25.911,48.502z"/>
	</g>
	<g>
		<path fill="#FFFFFF" stroke="#FFFFFF" stroke-miterlimit="10" d="M26.441,48.988c-0.025,0-0.052-0.001-0.078-0.005
			c-0.377-0.042-0.648-0.381-0.606-0.76l0.018-0.152c0.049-0.376,0.395-0.643,0.77-0.595c0.376,0.049,0.643,0.393,0.595,0.769
			l-0.017,0.133C27.083,48.729,26.786,48.988,26.441,48.988z"/>
	</g>
	<g>
		<path fill="#FFFFFF" stroke="#FFFFFF" stroke-miterlimit="10" d="M26.435,49.614c-0.306,0-0.587-0.209-0.665-0.521
			c-0.007-0.024-0.012-0.058-0.016-0.083c-0.051-0.377,0.214-0.723,0.591-0.772c0.37-0.049,0.705,0.203,0.766,0.566
			c0.065,0.353-0.155,0.701-0.508,0.789C26.548,49.606,26.491,49.614,26.435,49.614z"/>
	</g>
	<g>
		<path fill="#FFFFFF" stroke="#FFFFFF" stroke-miterlimit="10" d="M26.517,49.91c-0.271,0-0.527-0.161-0.636-0.426
			c-0.059-0.144-0.1-0.296-0.123-0.457c-0.057-0.375,0.202-0.725,0.579-0.78c0.375-0.056,0.723,0.204,0.78,0.58
			c0.008,0.052,0.019,0.096,0.036,0.137c0.144,0.352-0.024,0.752-0.375,0.896C26.691,49.893,26.604,49.91,26.517,49.91z"/>
	</g>
	<g>
		<path fill="#FFFFFF" stroke="#FFFFFF" stroke-miterlimit="10" d="M26.417,49.308c-0.378,0-0.687-0.306-0.687-0.686
			s0.308-0.694,0.687-0.694c0.38,0,0.688,0.303,0.688,0.681v0.013C27.105,49.001,26.797,49.308,26.417,49.308z"/>
	</g>
	<g>
		<path fill="#FFFFFF" stroke="#FFFFFF" stroke-miterlimit="10" d="M8.629,71.089c-0.995,0-1.963-0.274-2.799-0.812
			c-0.252-0.162-0.371-0.469-0.291-0.76c0.08-0.289,0.338-0.492,0.639-0.504c1.303-0.046,2.143-0.332,2.5-0.85
			c0.656-0.947-0.033-2.98-0.762-5.135c-1.373-4.049-3.252-9.598,2.442-12.92c0.841-0.49,1.68-0.892,2.491-1.282
			c3.082-1.476,5.308-2.542,5.247-6.868c-0.028-1.947-1.175-3.535-2.385-5.215c-1.448-2.01-2.946-4.087-2.732-6.978
			c0.207-2.79,1.948-6.212,3.625-9.192c0.144-0.255,0.435-0.392,0.721-0.34c0.288,0.053,0.513,0.282,0.558,0.571
			c0.48,3.096,1.144,7.337,3.874,11.266c0.023,0.033,0.043,0.068,0.062,0.105l0.194,0.422c0.156,0.337,0.309,0.671,0.456,0.998
			l0.196,0.437c0.369,0.816,0.75,1.659,1.029,2.543c0.373,1.18,0.164,2.504-0.019,3.672c-0.028,0.176-0.057,0.348-0.08,0.515
			c-0.05,0.345-0.128,0.781-0.207,1.229c-0.085,0.475-0.174,0.962-0.229,1.358c0.379,0.265,1.506,0.656,1.896,0.744
			c0.534,0.093,0.646,0.661,0.687,0.874l0.01,0.048c0.104,0.39,0.054,0.763,0.012,1.093c-0.029,0.223-0.063,0.478-0.008,0.583
			c0.123,0.243,0.267,0.403,0.453,0.504c0.333,0.18,0.458,0.598,0.275,0.932c-0.179,0.333-0.598,0.458-0.931,0.276
			c-0.43-0.234-0.774-0.601-1.023-1.09c-0.245-0.483-0.18-0.983-0.128-1.383c0.028-0.213,0.057-0.436,0.022-0.567
			c-0.001-0.003-0.001-0.007-0.003-0.01c-0.845-0.224-2.786-0.86-2.653-1.954c0.056-0.463,0.163-1.067,0.268-1.65
			c0.077-0.431,0.154-0.85,0.2-1.183c0.027-0.173,0.055-0.351,0.083-0.532c0.162-1.018,0.343-2.172,0.068-3.043
			c-0.255-0.807-0.619-1.611-0.971-2.392l-0.2-0.443c-0.145-0.322-0.296-0.649-0.45-0.981l-0.17-0.369
			c-2.329-3.373-3.224-6.891-3.746-9.813c-1.252,2.371-2.349,4.857-2.498,6.874c-0.177,2.393,1.11,4.181,2.476,6.074
			c1.283,1.78,2.61,3.619,2.643,6c0.075,5.204-2.887,6.625-6.025,8.127c-0.787,0.378-1.601,0.768-2.393,1.23
			C6.327,54.057,7.865,58.59,9.22,62.592c0.88,2.598,1.641,4.84,0.593,6.355c-0.204,0.297-0.466,0.546-0.79,0.75
			c0.271-0.025,0.542-0.08,0.811-0.16c1.041-0.314,1.879-0.996,2.24-1.82c0.888-1.843,0.385-3.729-0.101-5.554
			c-0.607-2.285-1.236-4.646,1.222-6.349c1.515-1.049,3.301-1.635,5.026-2.201c2.075-0.68,4.221-1.385,6.008-2.902
			c0.331-0.277,0.63-0.557,0.897-0.838c0.262-0.276,0.698-0.287,0.972-0.025c0.276,0.261,0.288,0.695,0.026,0.97
			c-0.303,0.322-0.643,0.638-1.011,0.945c-1.987,1.688-4.264,2.436-6.463,3.156c-1.709,0.561-3.32,1.088-4.673,2.023
			c-1.587,1.099-1.306,2.494-0.676,4.865c0.524,1.971,1.119,4.205,0.022,6.48c-0.51,1.166-1.669,2.133-3.092,2.563
			C9.698,71.011,9.161,71.089,8.629,71.089z"/>
	</g>
	<g>
		<path fill="#FFFFFF" stroke="#FFFFFF" stroke-miterlimit="10" d="M26.439,49c-0.018,0-0.036-0.001-0.055-0.002
			c-0.378-0.03-0.66-0.362-0.629-0.741c0.002-0.02,0.005-0.053,0.008-0.074c0.064-0.374,0.419-0.626,0.795-0.559
			c0.363,0.063,0.61,0.399,0.564,0.761C27.086,48.736,26.788,49,26.439,49z"/>
	</g>
	<g>
		<path fill="#FFFFFF" stroke="#FFFFFF" stroke-miterlimit="10" d="M26.459,48.846c-0.029,0-0.058-0.002-0.086-0.006
			c-0.376-0.046-0.643-0.39-0.598-0.767l0.021-0.162c0.047-0.376,0.395-0.646,0.766-0.596c0.377,0.047,0.644,0.39,0.598,0.766
			l-0.021,0.162C27.096,48.59,26.801,48.846,26.459,48.846z"/>
	</g>
	<g>
		<path fill="#FFFFFF" stroke="#FFFFFF" stroke-miterlimit="10" d="M26.427,49.144c-0.017,0-0.036-0.001-0.054-0.002
			c-0.379-0.029-0.662-0.36-0.633-0.738c0.005-0.056,0.01-0.112,0.018-0.168c0.041-0.377,0.382-0.647,0.759-0.606
			c0.377,0.042,0.647,0.382,0.605,0.758c-0.004,0.041-0.007,0.081-0.011,0.121C27.083,48.869,26.782,49.144,26.427,49.144z"/>
	</g>
	<g>
		<path fill="#FFFFFF" stroke="#FFFFFF" stroke-miterlimit="10" d="M26.426,49.149c-0.38,0-0.688-0.307-0.688-0.688
			c0-0.379,0.307-0.69,0.688-0.69c0.38,0,0.687,0.306,0.687,0.686v0.005C27.112,48.842,26.806,49.149,26.426,49.149z"/>
	</g>
	<g>
		<path fill="#FFFFFF" stroke="#FFFFFF" stroke-miterlimit="10" d="M48.778,96.378c-0.227,0-0.438-0.11-0.568-0.3
			c-4.509-6.611-15.25-8.807-23.512-9.479l-2.434,0.607c-0.236,0.061-0.485-0.012-0.655-0.186c-0.171-0.17-0.238-0.422-0.175-0.656
			c0.481-1.836,0.028-3.446-0.453-5.152c-0.782-2.77-1.667-5.911,1.865-10.059c0.164-0.192,0.469-0.426,0.993-0.426
			c1.545,0,4.476,2.203,8.143,5.082c1.069,0.838,2.266,1.775,2.738,2.051c2.74-1.127,5.68-1.696,8.743-1.696
			c7.648,0,14.903,3.832,15.234,6.146c0.242,1.455-2.322,4.795-6.262,9.722c-1.381,1.728-2.574,3.219-3.077,4.022
			c-0.123,0.196-0.336,0.318-0.569,0.321C48.788,96.378,48.782,96.378,48.778,96.378z M24.642,85.219c0.018,0,0.036,0,0.054,0.002
			c8.247,0.658,18.953,2.815,24.063,9.286c0.637-0.873,1.568-2.038,2.604-3.333c2.125-2.658,6.084-7.605,5.978-8.654
			c-0.146-1.008-5.812-4.979-13.876-4.979c-2.964,0-5.805,0.567-8.439,1.687c-0.095,0.037-0.196,0.06-0.301,0.06c0,0,0,0-0.003,0
			c-0.49,0-1.077-0.425-3.586-2.394c-2.281-1.791-6.096-4.783-7.292-4.787c-2.999,3.56-2.289,6.072-1.539,8.734
			c0.421,1.498,0.858,3.039,0.663,4.774l1.509-0.376C24.529,85.227,24.586,85.219,24.642,85.219z"/>
	</g>
	<g>
		<path fill="#FFFFFF" stroke="#FFFFFF" stroke-miterlimit="10" d="M80.285,82.258c-0.016,0-0.03,0-0.046,0
			c-0.61-0.041-1.231-0.128-1.851-0.257c-0.339-0.069-0.57-0.383-0.543-0.726c0.024-0.346,0.305-0.616,0.647-0.635
			c0.629-0.031,1.247-0.14,1.839-0.322c0.361-0.109,0.746,0.096,0.857,0.457c0.084,0.275-0.015,0.563-0.223,0.731
			c0.004,0.036,0.004,0.073,0.002,0.108C80.945,81.98,80.645,82.258,80.285,82.258z"/>
	</g>
	<g>
		<path fill="#FFFFFF" stroke="#FFFFFF" stroke-miterlimit="10" d="M29.088,34.063"/>
	</g>
	<g>
		<path fill="#FFFFFF" stroke="#FFFFFF" stroke-miterlimit="10" d="M84.139,62.082c-0.072,0-0.147-0.014-0.221-0.038
			c-1.801-0.608-3.839-0.89-5.811-1.159c-0.979-0.135-1.908-0.262-2.781-0.426c-4.92-1.093-8.495-4.039-10.094-8.301
			c-0.861-2.07-1.308-3.971-1.7-5.647c-0.798-3.4-1.425-6.086-5.017-9.023c-3.723-2.979-7.754-3.191-12.426-3.437
			c-1.17-0.068-2.533-0.043-3.977-0.017c-3.948,0.074-8.423,0.159-11.388-1.619C15.631,24.03,16.201,21.308,16.476,20
			c0.007-0.03,0.012-0.057,0.017-0.083c-0.068-0.316,0.093-0.648,0.403-0.78c0.35-0.149,0.752,0.014,0.901,0.364
			c0.125,0.295,0.071,0.565,0.024,0.781c-0.081,0.386-0.218,1.033,1.212,2.55c1.992,2.112,6.156,4.936,12.381,8.394
			c2.646,1.587,6.909,1.506,10.674,1.436c1.47-0.028,2.858-0.054,4.08,0.018c4.698,0.247,9.139,0.481,13.213,3.74
			c3.959,3.238,4.666,6.269,5.49,9.778c0.398,1.704,0.811,3.466,1.641,5.456c1.438,3.835,4.661,6.476,9.09,7.459
			c0.82,0.152,1.729,0.277,2.692,0.408c2.036,0.281,4.14,0.57,6.063,1.223c0.358,0.122,0.552,0.512,0.433,0.871
			C84.691,61.9,84.425,62.082,84.139,62.082z"/>
	</g>
	<g>
		<path fill="#FFFFFF" stroke="#FFFFFF" stroke-miterlimit="10" d="M85.496,62.629c-0.1,0-0.201-0.023-0.297-0.068
			c-0.057-0.026-0.113-0.053-0.17-0.078l-0.04-0.019c-0.347-0.155-0.5-0.563-0.345-0.909c0.156-0.346,0.564-0.498,0.91-0.344
			l0.038,0.02c0.067,0.028,0.136,0.061,0.202,0.093c0.342,0.163,0.484,0.573,0.319,0.917C85.997,62.484,85.753,62.629,85.496,62.629
			z"/>
	</g>
	<g>
		<path fill="#FFFFFF" stroke="#FFFFFF" stroke-miterlimit="10" d="M47.959,40.788c-0.079,0-0.157-0.014-0.234-0.042
			c-0.741-0.271-2.919-0.594-9.104-0.594c-1.895,0-3.525-2.103-5.251-4.329c-1.353-1.746-2.753-3.551-4.226-4.298
			c-0.338-0.172-0.472-0.585-0.3-0.924c0.172-0.338,0.585-0.473,0.923-0.301c1.747,0.888,3.242,2.817,4.688,4.682
			c1.447,1.867,2.942,3.797,4.166,3.797c5.2,0,8.332,0.222,9.576,0.677c0.355,0.131,0.538,0.526,0.408,0.882
			C48.503,40.615,48.24,40.788,47.959,40.788z"/>
	</g>
	<g>
		<path fill="#FFFFFF" stroke="#FFFFFF" stroke-miterlimit="10" d="M53.48,43.902c-0.148,0-0.303-0.049-0.429-0.15
			c-0.532-0.426-1.114-0.836-1.728-1.216c-0.323-0.2-0.424-0.625-0.223-0.946c0.198-0.323,0.621-0.423,0.943-0.223
			c0.662,0.409,1.289,0.851,1.865,1.312c0.295,0.237,0.344,0.67,0.105,0.966C53.883,43.814,53.686,43.902,53.48,43.902z"/>
	</g>
	<g>
		<path fill="#FFFFFF" stroke="#FFFFFF" stroke-miterlimit="10" d="M85.885,73.07c-0.313,0-0.596-0.215-0.67-0.53
			c-0.29-1.248-0.969-2.379-2.023-3.364c-1.698-1.585-4.187-2.124-7.065-2.749c-5.888-1.276-13.217-2.866-17.562-14.612
			c-1.328-3.589-3.027-6.077-5.512-8.063c-0.298-0.236-0.344-0.669-0.107-0.966c0.238-0.296,0.672-0.344,0.967-0.107
			c2.652,2.123,4.542,4.873,5.941,8.659c4.084,11.039,10.713,12.479,16.562,13.746c2.952,0.641,5.739,1.244,7.714,3.089
			c1.26,1.173,2.074,2.539,2.426,4.056c0.086,0.371-0.145,0.74-0.513,0.826C85.986,73.064,85.936,73.07,85.885,73.07z"/>
	</g>
	<g>
		<path fill="#FFFFFF" stroke="#FFFFFF" stroke-miterlimit="10" d="M51.688,42.637c-0.123,0-0.25-0.033-0.361-0.102
			c-1.26-0.782-2.719-1.479-4.333-2.07c-0.357-0.13-0.539-0.524-0.41-0.881c0.131-0.356,0.525-0.539,0.88-0.409
			c1.705,0.625,3.247,1.361,4.584,2.192c0.324,0.2,0.424,0.623,0.225,0.947C52.141,42.522,51.914,42.637,51.688,42.637z"/>
	</g>
	<g>
		<path fill="#FFFFFF" stroke="#FFFFFF" stroke-miterlimit="10" d="M81.033,82.283c-0.262,0-0.525-0.008-0.795-0.025
			c-0.377-0.025-0.664-0.352-0.639-0.732c0.023-0.377,0.352-0.664,0.729-0.64c4.962,0.326,8.405-2.94,9.174-5.247
			c0.62-1.861,1.149-3.873,0.812-5.961c-0.06-0.373,0.194-0.728,0.569-0.787c0.37-0.06,0.728,0.193,0.788,0.568
			c0.385,2.382-0.188,4.586-0.863,6.614C89.922,78.734,86.341,82.282,81.033,82.283z"/>
	</g>
	<g>
		<path fill="#FFFFFF" stroke="#FFFFFF" stroke-miterlimit="10" d="M85.991,73.664c-0.339,0-0.634-0.251-0.679-0.596
			c-0.026-0.185-0.061-0.361-0.099-0.528c-0.086-0.369,0.144-0.739,0.513-0.825s0.739,0.143,0.825,0.514
			c0.05,0.209,0.091,0.43,0.121,0.655c0.052,0.375-0.213,0.722-0.589,0.773C86.053,73.661,86.021,73.664,85.991,73.664z"/>
	</g>
	<g>
		<path fill="#FFFFFF" stroke="#FFFFFF" stroke-miterlimit="10" d="M90.52,68.482c-0.276,0-0.537-0.17-0.644-0.443
			c-0.459-1.212-1.21-2.425-2.296-3.709c-0.327-0.387-0.704-0.73-1.155-1.053c-0.311-0.221-0.382-0.648-0.159-0.959
			c0.219-0.309,0.646-0.381,0.957-0.159c0.537,0.385,1.01,0.815,1.406,1.284c1.189,1.404,2.018,2.75,2.532,4.108
			c0.135,0.354-0.043,0.751-0.399,0.888C90.682,68.468,90.6,68.482,90.52,68.482z"/>
	</g>
	<g>
		<path fill="#FFFFFF" stroke="#FFFFFF" stroke-miterlimit="10" d="M85.271,62.525c-0.096,0-0.19-0.021-0.282-0.063
			c-0.332-0.15-0.693-0.29-1.071-0.42c-0.359-0.12-0.552-0.511-0.432-0.87c0.123-0.358,0.511-0.553,0.871-0.431
			c0.422,0.143,0.824,0.3,1.197,0.468c0.346,0.156,0.497,0.563,0.344,0.909C85.784,62.375,85.533,62.525,85.271,62.525z"/>
	</g>
	<g>
		<path fill="#FFFFFF" stroke="#FFFFFF" stroke-miterlimit="10" d="M86.822,63.406c-0.137,0-0.276-0.042-0.397-0.129
			c-0.372-0.264-0.78-0.506-1.225-0.719c-0.343-0.162-0.487-0.572-0.323-0.916c0.165-0.342,0.574-0.484,0.917-0.322
			c0.515,0.246,0.996,0.529,1.429,0.84c0.311,0.22,0.381,0.648,0.162,0.958C87.248,63.307,87.038,63.406,86.822,63.406z"/>
	</g>
	<g>
		<path fill="#FFFFFF" stroke="#FFFFFF" stroke-miterlimit="10" d="M80.533,81.665c-0.295,0-0.567-0.19-0.657-0.487
			c-0.11-0.363,0.095-0.746,0.457-0.857c3.269-0.995,5.408-4.113,4.979-7.25c-0.053-0.377,0.209-0.723,0.586-0.774
			c0.373-0.051,0.723,0.211,0.774,0.589c0.521,3.799-2.032,7.561-5.94,8.751C80.666,81.654,80.6,81.665,80.533,81.665z"/>
	</g>
	<g>
		<path fill="#FFFFFF" stroke="#FFFFFF" stroke-miterlimit="10" d="M68.132,41.781c-0.313,0-0.595-0.215-0.67-0.533
			c-0.293-1.274-0.403-2.548-0.515-3.779c-0.148-1.693-0.289-3.292-0.862-4.898c-0.524-1.431-1.569-2.644-3.188-3.703
			c-0.318-0.208-0.407-0.633-0.199-0.951c0.205-0.317,0.633-0.406,0.949-0.198c1.853,1.209,3.104,2.685,3.729,4.385
			c0.637,1.777,0.791,3.54,0.941,5.244c0.109,1.24,0.213,2.41,0.484,3.593c0.086,0.369-0.144,0.738-0.514,0.824
			C68.234,41.775,68.184,41.781,68.132,41.781z"/>
	</g>
	<g>
		<path fill="#FFFFFF" stroke="#FFFFFF" stroke-miterlimit="10" d="M86.822,63.406c-0.37,0-0.674-0.295-0.686-0.666
			c-0.13-4.213-3.611-7.397-10.646-9.743c-3.501-1.166-6.088-6.864-7.334-9.602c-0.292-0.682-0.518-1.38-0.695-2.148
			c-0.083-0.37,0.146-0.739,0.518-0.824c0.371-0.084,0.739,0.146,0.822,0.517c0.159,0.687,0.358,1.309,0.612,1.901
			c1.067,2.347,3.58,7.875,6.514,8.853c7.644,2.549,11.435,6.148,11.582,11.006c0.013,0.378-0.286,0.695-0.666,0.708
			C86.838,63.406,86.83,63.406,86.822,63.406z"/>
	</g>
	<g>
		<path fill="#FFFFFF" stroke="#FFFFFF" stroke-miterlimit="10" d="M61.357,21.154c-0.131,0-0.262-0.036-0.379-0.115
			c-0.438-0.292-0.881-0.612-1.313-0.952c-0.3-0.235-0.351-0.666-0.116-0.965c0.233-0.298,0.667-0.35,0.965-0.116
			c0.404,0.318,0.817,0.617,1.227,0.889c0.314,0.21,0.4,0.637,0.191,0.953C61.799,21.047,61.58,21.154,61.357,21.154z"/>
	</g>
	<g>
		<path fill="#FFFFFF" stroke="#FFFFFF" stroke-miterlimit="10" d="M85.991,73.664c-0.276,0-0.536-0.169-0.642-0.443
			c-0.136-0.354,0.043-0.753,0.397-0.887c1.928-0.732,3.519-1.813,4.726-3.214c0.25-0.288,0.682-0.319,0.969-0.07
			c0.287,0.247,0.32,0.681,0.072,0.97c-1.357,1.572-3.136,2.785-5.277,3.601C86.156,73.648,86.074,73.664,85.991,73.664z"/>
	</g>
	<g>
		<path fill="#FFFFFF" stroke="#FFFFFF" stroke-miterlimit="10" d="M73.793,46.552c-0.318,0-0.604-0.224-0.671-0.55
			c-0.168-0.821-0.263-1.736-0.287-2.797c-0.012-0.379,0.289-0.694,0.669-0.703c0.387-0.019,0.695,0.29,0.703,0.669
			c0.023,0.993,0.107,1.806,0.261,2.557c0.076,0.372-0.163,0.734-0.534,0.811C73.887,46.547,73.841,46.552,73.793,46.552z"/>
	</g>
	<g>
		<path fill="#FFFFFF" stroke="#FFFFFF" stroke-miterlimit="10" d="M73.52,43.875c-0.371,0-0.678-0.297-0.685-0.67
			c-0.03-1.213,0.03-2.505,0.095-3.874c0.062-1.313,0.127-2.671,0.127-4.17c0-4.13-5.58-10.992-9.507-12.707
			c-0.88-0.384-1.72-0.845-2.571-1.414c-0.314-0.21-0.402-0.637-0.191-0.953c0.211-0.317,0.639-0.402,0.954-0.191
			c0.784,0.522,1.557,0.948,2.358,1.298c4.319,1.888,10.33,9.277,10.33,13.967c0,1.532-0.063,2.906-0.127,4.235
			c-0.063,1.344-0.123,2.613-0.096,3.776c0.011,0.378-0.29,0.695-0.67,0.704C73.533,43.875,73.523,43.875,73.52,43.875z"/>
	</g>
	<g>
		<path fill="#FFFFFF" stroke="#FFFFFF" stroke-miterlimit="10" d="M80.609,47.459c-0.166,0-0.334-0.06-0.465-0.181
			c-0.289-0.264-0.541-0.551-0.754-0.852c-0.221-0.311-0.145-0.739,0.166-0.958c0.31-0.219,0.739-0.143,0.957,0.166
			c0.157,0.224,0.342,0.432,0.561,0.631c0.277,0.257,0.297,0.692,0.041,0.971C80.979,47.385,80.795,47.459,80.609,47.459z"/>
	</g>
	<g>
		<path fill="#FFFFFF" stroke="#FFFFFF" stroke-miterlimit="10" d="M85.887,73.07c-0.234,0-0.463-0.118-0.592-0.334
			c-0.195-0.323-0.09-0.746,0.234-0.941c1.978-1.189,3.455-2.646,4.389-4.332c0.184-0.333,0.602-0.452,0.934-0.27
			c0.334,0.186,0.453,0.604,0.27,0.935c-1.051,1.899-2.695,3.529-4.883,4.845C86.128,73.039,86.005,73.07,85.887,73.07z"/>
	</g>
	<g>
		<path fill="#FFFFFF" stroke="#FFFFFF" stroke-miterlimit="10" d="M90.994,70.255c-0.159,0-0.317-0.054-0.448-0.165
			c-0.287-0.248-0.319-0.683-0.073-0.97c3.408-3.948,3.15-9.757,1.133-13.453c-1.988-3.647-4.994-5.003-7.646-6.2
			c-1.444-0.652-2.812-1.268-3.813-2.188c-0.28-0.257-0.301-0.69-0.045-0.971c0.258-0.28,0.693-0.299,0.974-0.042
			c0.841,0.771,2.051,1.316,3.45,1.948c2.707,1.222,6.078,2.742,8.287,6.795c2.174,3.985,2.694,10.384-1.297,15.011
			C91.38,70.175,91.188,70.255,90.994,70.255z"/>
	</g>
	<g>
		<path fill="#FFFFFF" stroke="#FFFFFF" stroke-miterlimit="10" d="M82.975,74.491c-0.3,0-0.574-0.2-0.66-0.498
			c-0.097-0.341,0.08-0.699,0.41-0.829c1.014-0.396,1.955-0.857,2.805-1.369c0.326-0.195,0.748-0.092,0.943,0.234
			c0.103,0.17,0.123,0.363,0.073,0.539c0.035,0.05,0.067,0.104,0.089,0.162c0.135,0.355-0.043,0.752-0.396,0.889
			c-0.978,0.369-2.033,0.66-3.139,0.859C83.057,74.486,83.018,74.491,82.975,74.491z"/>
	</g>
	<g>
		<path fill="#FFFFFF" stroke="#FFFFFF" stroke-miterlimit="10" d="M90.518,68.482c-0.11,0-0.227-0.026-0.332-0.086
			c-0.33-0.185-0.451-0.603-0.268-0.935c1.654-2.991,1.406-6.503-0.632-8.95c-1.144-1.373-2.97-1.945-5.082-2.605
			c-2.386-0.747-5.093-1.596-7.511-3.825c-1.961-1.813-3.1-3.745-3.571-6.079c-0.077-0.372,0.163-0.734,0.536-0.811
			c0.371-0.075,0.732,0.165,0.81,0.536c0.421,2.066,1.396,3.713,3.16,5.343c2.19,2.021,4.63,2.785,6.987,3.523
			c2.223,0.696,4.322,1.354,5.728,3.038c2.404,2.886,2.709,7.007,0.777,10.495C90.994,68.355,90.762,68.482,90.518,68.482z"/>
	</g>
	<g>
		<path fill="#FFFFFF" stroke="#FFFFFF" stroke-miterlimit="10" d="M79.953,46.718c-0.215,0-0.43-0.102-0.563-0.292
			c-0.468-0.667-0.75-1.416-0.856-2.288c-0.195-2.122,0.329-3.45,0.884-4.855c0.514-1.293,1.04-2.628,1.162-4.844
			c0.277-4.986-1.609-11.642-12.178-15.039c-3.545-1.14-5.305-3.666-7.17-6.338c-2.096-3.008-4.476-6.418-9.983-8.729
			C41.665,0.314,28.681,4.01,22.146,9.741c-2.426,2.128-3.909,4.431-4.359,6.711c1.297-2.587,3.349-4.785,6.057-6.464
			c5.468-3.391,13.439-4.512,20.309-2.853c5.674,1.368,9.003,4.744,12.223,8.007c1.375,1.396,2.676,2.714,4.138,3.864
			c0.301,0.234,0.353,0.667,0.118,0.965c-0.235,0.298-0.669,0.35-0.966,0.116c-1.531-1.204-2.924-2.615-4.27-3.98
			c-3.086-3.126-6.274-6.359-11.567-7.637c-6.532-1.577-14.091-0.522-19.262,2.686c-3.565,2.211-5.808,5.248-6.667,9.024
			c-0.071,0.307-0.342,0.527-0.656,0.534c-0.005,0-0.01,0-0.016,0c-0.309,0-0.581-0.207-0.662-0.506
			c-1.052-3.853,0.607-7.938,4.672-11.501c6.995-6.135,20.332-9.922,30.542-5.643c5.878,2.466,8.375,6.05,10.578,9.21
			c1.803,2.586,3.359,4.819,6.463,5.817C80.824,21.95,82.2,30.038,81.951,34.515c-0.135,2.438-0.729,3.944-1.253,5.273
			c-0.537,1.357-0.96,2.429-0.8,4.202c0.078,0.622,0.281,1.167,0.615,1.646c0.219,0.311,0.145,0.739-0.166,0.957
			C80.229,46.677,80.09,46.718,79.953,46.718z"/>
	</g>
	<g>
		<path fill="#FFFFFF" stroke="#FFFFFF" stroke-miterlimit="10" d="M61.357,21.154c-0.148,0-0.299-0.048-0.426-0.147
			c-0.399-0.316-0.811-0.614-1.222-0.887c-0.317-0.209-0.401-0.636-0.194-0.952c0.211-0.316,0.639-0.402,0.953-0.193
			c0.442,0.293,0.887,0.614,1.313,0.953c0.3,0.235,0.35,0.667,0.114,0.966C61.764,21.065,61.561,21.154,61.357,21.154z"/>
	</g>
	<g>
		<path fill="#FFFFFF" stroke="#FFFFFF" stroke-miterlimit="10" d="M63.273,28.979c-0.225,0-0.443-0.11-0.576-0.311
			c-0.122-0.185-0.244-0.367-0.372-0.546c-2.916-4.081-10.802-6.466-22.806-6.894c-5.938-0.283-15.636-2.745-18.046-8.366
			c-0.136-0.316-0.017-0.683,0.277-0.861l2.566-1.539c0.051-0.03,0.105-0.054,0.162-0.071c7.606-2.208,15.78-3.822,24.705,2.669
			c2.451,1.783,4.481,2.638,6.444,3.466c1.628,0.686,3.167,1.334,4.844,2.448c0.315,0.209,0.403,0.637,0.192,0.953
			c-0.21,0.316-0.636,0.402-0.954,0.192c-1.568-1.042-3.049-1.666-4.615-2.326c-2.035-0.859-4.14-1.745-6.72-3.621
			c-8.396-6.108-15.875-4.673-23.428-2.486l-1.947,1.169c2.557,4.634,11.402,6.753,16.579,7c12.617,0.45,20.648,2.964,23.865,7.468
			c0.142,0.195,0.273,0.394,0.404,0.593c0.207,0.318,0.117,0.744-0.199,0.951C63.532,28.943,63.402,28.979,63.273,28.979z"/>
	</g>
	<g>
		<path fill="#FFFFFF" stroke="#FFFFFF" stroke-miterlimit="10" d="M68.133,41.781c-0.229,0-0.453-0.115-0.586-0.327
			c-0.676-1.1-1.176-2.3-1.482-3.566c-0.006-0.022-0.01-0.043-0.014-0.065c-0.074-0.526-0.809-5.253-3.354-9.155
			c-0.209-0.317-0.119-0.744,0.199-0.951c0.316-0.208,0.744-0.118,0.951,0.2c2.659,4.076,3.455,8.977,3.56,9.678
			c0.272,1.115,0.714,2.171,1.312,3.138c0.198,0.324,0.098,0.746-0.226,0.946C68.38,41.748,68.257,41.781,68.133,41.781z"/>
	</g>
	<g>
		<path fill="#FFFFFF" stroke="#FFFFFF" stroke-miterlimit="10" d="M29.088,34.063"/>
	</g>
	<g>
		<path fill="#FFFFFF" stroke="#FFFFFF" stroke-miterlimit="10" d="M35.729,38.128"/>
	</g>
	<g>
		<path fill="#FFFFFF" stroke="#FFFFFF" stroke-miterlimit="10" d="M44.854,65.668c-0.023,0-0.047,0-0.072-0.004
			c-0.376-0.039-0.651-0.377-0.613-0.755c0.031-0.291,0.067-0.583,0.11-0.876c0.056-0.375,0.408-0.633,0.781-0.577
			c0.375,0.056,0.636,0.405,0.579,0.78c-0.04,0.271-0.074,0.543-0.103,0.814C45.501,65.404,45.202,65.668,44.854,65.668z"/>
	</g>
	<g>
		<path fill="#FFFFFF" stroke="#FFFFFF" stroke-miterlimit="10" d="M48.623,65.35c-0.021,0-0.041,0-0.059-0.002
			c-0.379-0.031-0.661-0.363-0.628-0.742c0.287-3.345,1.463-6.866,2.324-9.438c0.214-0.638,0.406-1.214,0.561-1.713
			c1.568-5.302,0.218-9.711-4.021-13.097c-0.297-0.238-0.346-0.669-0.107-0.965c0.236-0.297,0.669-0.345,0.964-0.108
			c4.654,3.716,6.201,8.753,4.478,14.569c-0.157,0.513-0.353,1.1-0.569,1.75c-0.838,2.506-1.987,5.938-2.257,9.119
			C49.276,65.079,48.976,65.35,48.623,65.35z"/>
	</g>
	<g>
		<path fill="#FFFFFF" stroke="#FFFFFF" stroke-miterlimit="10" d="M55.1,76.79c-4.924,0-10.354-3.399-10.953-8.771
			c-0.098-0.992-0.091-2.006,0.023-3.109c0.038-0.377,0.37-0.652,0.754-0.612c0.376,0.039,0.654,0.378,0.613,0.755
			c-0.104,1.01-0.112,1.934-0.023,2.821c0.526,4.733,5.739,7.772,10.087,7.528c1.648-0.092,5.482-0.84,5.482-5.799
			c0-1.188-0.947-2.119-1.76-2.555c-0.213-0.115-0.428-0.203-0.639-0.266c0.41,0.615,0.592,1.554,0.443,2.585
			c-0.003,0.017-0.005,0.034-0.009,0.052c-0.367,1.646-1.688,3.055-3.536,3.764c-1.766,0.676-3.577,0.541-4.843-0.363
			c-2.054-1.543-3.011-4.063-2.854-7.502c0.018-0.379,0.345-0.674,0.717-0.656c0.38,0.02,0.674,0.339,0.658,0.719
			c-0.139,3,0.611,5.071,2.292,6.331c0.861,0.616,2.223,0.692,3.537,0.188c1.385-0.531,2.41-1.584,2.682-2.754
			c0.138-1.006-0.174-1.568-0.324-1.707c-0.066,0.063-0.203,0.242-0.332,0.69c-0.092,0.319-0.393,0.525-0.725,0.497
			c-0.33-0.031-0.591-0.293-0.619-0.622c-0.129-1.42,0.52-2.073,0.92-2.339c0.82-0.542,2.076-0.477,3.281,0.172
			c1.198,0.646,2.484,1.975,2.484,3.766c0,4.191-2.6,6.939-6.782,7.17C55.486,76.785,55.293,76.79,55.1,76.79z"/>
	</g>
	<g>
		<path fill="#FFFFFF" stroke="#FFFFFF" stroke-miterlimit="10" d="M48.576,66.035c-0.01,0-0.02,0-0.03,0
			c-0.38-0.018-0.673-0.34-0.656-0.717c0.01-0.237,0.026-0.477,0.048-0.715c0.031-0.379,0.364-0.658,0.744-0.625
			c0.378,0.031,0.657,0.365,0.625,0.744c-0.019,0.221-0.032,0.438-0.042,0.655C49.245,65.747,48.941,66.035,48.576,66.035z"/>
	</g>
	<g>
		<path fill="#FFFFFF" stroke="#FFFFFF" stroke-miterlimit="10" d="M44.959,64.822c-0.033,0-0.066-0.002-0.101-0.008
			c-0.375-0.055-0.634-0.403-0.578-0.781c0.288-1.936,0.854-3.874,1.4-5.749c0.962-3.295,1.956-6.702,1.459-10.178
			c-0.602-3.922-4.347-5.952-8.805-8.019c-0.347-0.159-0.495-0.569-0.337-0.912c0.16-0.344,0.569-0.494,0.913-0.334
			c4.648,2.153,8.881,4.466,9.588,9.063c0.542,3.776-0.497,7.329-1.497,10.765c-0.56,1.916-1.087,3.724-1.362,5.567
			C45.59,64.578,45.296,64.822,44.959,64.822z"/>
	</g>
	<g>
		<path fill="#FFFFFF" stroke="#FFFFFF" stroke-miterlimit="10" d="M38.622,39.464"/>
	</g>
	<g>
		<path fill="#FFFFFF" stroke="#FFFFFF" stroke-miterlimit="10" d="M35.729,38.128"/>
	</g>
	<g>
		<path fill="#FFFFFF" stroke="#FFFFFF" stroke-miterlimit="10" d="M48.576,66.035c-0.321,0-0.606-0.223-0.673-0.547
			c-0.04-0.188,0.004-0.373,0.101-0.521c-0.036-0.072-0.059-0.156-0.067-0.242c-0.034-0.379,0.247-0.713,0.623-0.746
			c1.404-0.123,2.747-0.59,3.883-1.348c0.308-0.205,0.722-0.131,0.938,0.167c0.219,0.3,0.159,0.716-0.13,0.944
			c-1.528,1.203-3.053,1.969-4.536,2.277C48.669,66.031,48.623,66.035,48.576,66.035z"/>
	</g>
	<g>
		<path fill="#FFFFFF" stroke="#FFFFFF" stroke-miterlimit="10" d="M35.729,38.128"/>
	</g>
	<g>
		<path fill="#FFFFFF" stroke="#FFFFFF" stroke-miterlimit="10" d="M44.959,64.822c-0.094,0-0.187-0.02-0.28-0.059
			c-0.533-0.236-0.998-0.535-1.38-0.883c-2.213-2.013-2.273-7.947-1.925-9.863c1.574-8.611-0.884-12.023-3.203-14.035
			c-0.286-0.249-0.317-0.683-0.068-0.97c0.249-0.287,0.683-0.318,0.97-0.069c3.852,3.342,4.979,8.066,3.656,15.318
			c-0.399,2.182-0.051,7.195,1.495,8.603c0.274,0.25,0.615,0.465,1.016,0.644c0.346,0.154,0.502,0.559,0.349,0.906
			C45.474,64.67,45.224,64.822,44.959,64.822z"/>
	</g>
</g>
</svg>
