<svg id="Layer_1" data-name="Layer 1" xmlns="http://www.w3.org/2000/svg" viewBox="0 0 71.46 100"><defs><style>.cls-1{fill:#fff;}</style></defs><path class="cls-1" d="M48.37,0H51a9.89,9.89,0,0,1,5.87,4.28,33.31,33.31,0,0,1,3.46-.84,6.64,6.64,0,0,1,7.33,8.87c-.33,1-.88,1.88-1.25,2.84-1.33,3.5-2.62,7-3.9,10.42a1.44,1.44,0,0,0,.17.22c.94.54,1.86,1.1,2.8,1.61,9.65,5.24,15.34,13.33,17.42,24.06a205.34,205.34,0,0,1,2.81,24.6c.24,3.34.37,6.69.54,10v1.44c-.07.38-.18.76-.23,1.14a12.48,12.48,0,0,1-12.51,11.1c-1.48,0-3,0-4.43,0-3,.06-6,.14-9,.21H26.06c-.22-.07-.44-.17-.66-.22a12.19,12.19,0,0,1-10-9.23c-.25-.91-.38-1.85-.57-2.78V84.41c.15-2.62.2-5.26.45-7.87.77-7.94,1.33-15.91,2.5-23.8C19.23,42.65,24,34.38,32.89,28.9l4.32-2.66c-.25-.39-.45-.72-.67-1-1.93-3-4-5.9-5.77-9A6.6,6.6,0,0,1,35.31,6.09a43.29,43.29,0,0,1,5.12-.37c.38,0,1-.16,1.09-.42A9.69,9.69,0,0,1,48.37,0Zm7.4,28.53C58,22.6,60.21,16.86,62.33,11.09a2.22,2.22,0,0,0,0-1.85,2.31,2.31,0,0,0-1.86-.3A16.42,16.42,0,0,0,57.51,10c-2.44,1-3.3.71-4.54-1.59A10,10,0,0,0,51.32,6.1a2.77,2.77,0,0,0-3.44-.17,2.74,2.74,0,0,0-1.36,3.2c.65,2.27,1.32,4.53,1.94,6.8a2.75,2.75,0,0,1-1.85,3.51,2.78,2.78,0,0,1-3.46-2c-.32-1-.57-2-.85-3-1-3.7-1-3.7-4.9-3.34-2.3.21-2.83,1-1.67,3,1.83,3.13,3.79,6.2,5.75,9.25a1.79,1.79,0,0,0,1.28.58c1.91.06,3.83,0,5.75,0a3,3,0,0,1,3.07,3,3,3,0,0,1-3.08,3,14.79,14.79,0,0,1-2.4,0c-3.32-.46-6.05.79-8.85,2.45C29.67,37,25,43.37,23.34,52a197,197,0,0,0-3,35.54c0,4.22,3.13,7,7.4,7l45-.13c5.27,0,8.2-3,8-8.25-.21-5.7-.49-11.41-1-17.1-.52-6.2-1-12.43-2.62-18.48-1.35-5.13-3.39-9.91-7.48-13.53A44.75,44.75,0,0,0,57.53,29.4C57,29.16,56.4,28.84,55.77,28.53Z" transform="translate(-14.79)"/><path class="cls-1" d="M60.12,100c3-.07,6-.15,9-.21,1.47,0,3,0,4.43,0A12.48,12.48,0,0,0,86,88.67c0-.38.16-.76.23-1.14V100Z" transform="translate(-14.79)"/><path class="cls-1" d="M14.79,87.77c.19.93.32,1.87.57,2.78a12.19,12.19,0,0,0,10,9.23c.22,0,.44.15.66.22H14.79Z" transform="translate(-14.79)"/><path class="cls-1" d="M38.36,70.87c-.38,3.58.68,6.53,3.71,8.42a24.45,24.45,0,0,0,5.58,2.39c1.06.33,1.4.74,1.31,1.79s0,2.06,0,3.13h3.84c0-1.23.06-2.38,0-3.53,0-.86.27-1.13,1.09-1.33a24,24,0,0,0,4.07-1.36,7.82,7.82,0,0,0,3.85-3.8,9.81,9.81,0,0,0-4.21-13.26c-1.12-.61-2.31-1.11-3.45-1.67-1.83-.89-3.7-1.72-5.47-2.71-1.94-1.07-2.58-3.06-1.92-5.4.55-1.94,1.89-2.87,4.16-2.87A4.21,4.21,0,0,1,55.31,54c.14.5.15,1,.32,1.52.1.27.41.64.64.65,2.06.05,4.12,0,6.24,0a9.63,9.63,0,0,0-1.15-5.67c-1.75-3.22-4.79-4.52-8.21-5.23V40.19H49.34c0,1.4,0,2.71,0,4a.93.93,0,0,1-.81,1.09,28.87,28.87,0,0,0-3.3,1.07,9.18,9.18,0,0,0-5.85,8.36,8.85,8.85,0,0,0,4.36,8.5c1.32.82,2.76,1.44,4.15,2.13,1.9.94,3.87,1.75,5.7,2.8a4.66,4.66,0,0,1,.82,7.16c-1.77,1.58-3.93,1.44-6,.83a4.47,4.47,0,0,1-3.13-3.89c-.08-.46-.14-.93-.22-1.39Z" transform="translate(-14.79)"/><path class="cls-1" d="M38.36,70.87h6.7c.08.46.14.93.22,1.39a4.47,4.47,0,0,0,3.13,3.89c2.08.61,4.24.75,6-.83a4.66,4.66,0,0,0-.82-7.16c-1.83-1-3.8-1.86-5.7-2.8-1.39-.69-2.83-1.31-4.15-2.13a8.85,8.85,0,0,1-4.36-8.5,9.18,9.18,0,0,1,5.85-8.36,28.87,28.87,0,0,1,3.3-1.07.93.93,0,0,0,.81-1.09c-.05-1.31,0-2.62,0-4h3.81v5.06c3.42.71,6.46,2,8.21,5.23a9.63,9.63,0,0,1,1.15,5.67c-2.12,0-4.18,0-6.24,0-.23,0-.54-.38-.64-.65-.17-.49-.18-1-.32-1.52a4.21,4.21,0,0,0-4.43-3.28c-2.27,0-3.61.93-4.16,2.87-.66,2.34,0,4.33,1.92,5.4,1.77,1,3.64,1.82,5.47,2.71,1.14.56,2.33,1.06,3.45,1.67a9.81,9.81,0,0,1,4.21,13.26,7.82,7.82,0,0,1-3.85,3.8,24,24,0,0,1-4.07,1.36c-.82.2-1.14.47-1.09,1.33.08,1.15,0,2.3,0,3.53H48.94c0-1.07-.07-2.11,0-3.13s-.25-1.46-1.31-1.79a24.45,24.45,0,0,1-5.58-2.39C39,77.4,38,74.45,38.36,70.87Z" transform="translate(-14.79)"/></svg>