<?xml version="1.0" encoding="utf-8"?>
<!-- Generator: Adobe Illustrator 16.0.0, SVG Export Plug-In . SVG Version: 6.00 Build 0)  -->
<!DOCTYPE svg PUBLIC "-//W3C//DTD SVG 1.1//EN" "http://www.w3.org/Graphics/SVG/1.1/DTD/svg11.dtd">
<svg version="1.1" id="Layer_1" xmlns="http://www.w3.org/2000/svg" xmlns:xlink="http://www.w3.org/1999/xlink" x="0px" y="0px"
	 width="100px" height="100px" viewBox="0 0 100 100" enable-background="new 0 0 100 100" xml:space="preserve">
<g>
	<path fill="#FFFFFF" d="M98.637,42.509c-0.002-0.009-0.002-0.019-0.003-0.027c-0.921-5.978-2.934-11.69-5.985-16.982
		c-0.433-0.753-0.893-1.488-1.363-2.213C83.547,11.385,70.87,3.256,56.837,1.291c-0.136-0.019-0.264-0.047-0.399-0.065
		C54.244,0.938,52.077,0.792,50,0.792c-3.761,0-7.549,0.442-11.259,1.315c-0.774,0.182-1.54,0.393-2.303,0.612
		C22.982,6.599,11.563,16.268,5.525,28.998c-0.05,0.105-0.106,0.207-0.157,0.313c-2.633,5.657-4.144,11.683-4.493,17.91
		c-0.038,0.697-0.058,1.34-0.069,1.967C0.8,49.459,0.792,49.736,0.792,50c0,12.863,4.92,24.934,13.862,34.168
		c0.335,0.346,0.662,0.695,1.007,1.033c4.65,4.537,10.053,8.059,16.061,10.473c0.149,0.059,0.302,0.109,0.451,0.168
		c5.705,2.227,11.699,3.365,17.827,3.365c7.537,0,14.777-1.682,21.532-4.984c0.097-0.051,0.198-0.09,0.296-0.137
		c5.706-2.838,10.752-6.705,14.997-11.494c0.396-0.449,0.776-0.906,1.155-1.367C95.229,72.424,99.208,61.408,99.208,50
		C99.208,47.493,99.016,44.973,98.637,42.509z M93.762,40.872l-5.77,5.297l-9.627-5.808l1.928-11.106l8.664-1.126
		C91.221,32.144,92.834,36.417,93.762,40.872z M79.354,68.52l-12.106,1.621l-7.298-9.69l3.71-12.049l11.989-4.42l10.358,6.248
		L79.354,68.52z M61.189,83.834H41.438l-5.102-10.889l7.366-9.807h12.634l7.465,9.911L61.189,83.834z M21.045,71.277l-4.937-17.799
		l8.038-8.087l12.045,3.147l3.884,11.933L32.544,70.5L21.045,71.277z M75.943,27.991L73.889,39.83l-11.74,4.329l-10.06-6.88
		l-0.628-13.34l9.102-8.029L75.943,27.991z M59.197,47.595l-3.401,11.04H44.211l-3.599-11.056l9.28-6.349L59.197,47.595z
		 M86.268,23.939l-7.031,0.915L61.249,10.725l-2.082-4.452C70.018,8.563,79.75,14.918,86.268,23.939z M40.362,6.368
		C43.547,5.664,46.784,5.294,50,5.294c1.241,0,2.521,0.063,3.82,0.178l3.438,7.348l-8.431,7.439l-10.015-5.176L40.362,6.368z
		 M46.975,24.368l0.61,12.986l-10.057,6.882L25.08,40.982L20.33,30.28l15.369-11.74L46.975,24.368z M35.549,7.725l-1.081,6.091
		l-17.96,13.718l-5.536,0.738C16.351,18.673,25.192,11.293,35.549,7.725z M8.611,33.128l7.607-1.013l4.562,10.277l-7.945,7.995
		l-7.39-3.856C5.802,41.908,6.855,37.411,8.611,33.128z M5.332,51.551l6.513,3.396l5.159,18.604l-1.16,5.242
		C9.346,71.129,5.675,61.639,5.332,51.551z M31.269,90.574c-4.288-1.984-8.201-4.629-11.68-7.869l1.532-6.92l11.218-0.76
		l4.784,10.207L31.269,90.574z M50,94.705c-4.811,0-9.531-0.775-14.07-2.291l4.472-4.08h20.921l5.387,3.107
		C61.4,93.598,55.799,94.705,50,94.705z M71.648,89.092l-6.23-3.59l2.646-10.928l11.172-1.498l3.426,7.383
		C79.441,83.912,75.753,86.813,71.648,89.092z M85.854,76.645l-2.615-5.639l7.844-21.563l3.464-3.179
		c0.103,1.242,0.16,2.49,0.16,3.736C94.706,59.631,91.584,68.957,85.854,76.645z"/>
</g>
</svg>
