<?xml version="1.0" encoding="UTF-8"?>
<svg id="a" xmlns="http://www.w3.org/2000/svg" viewBox="0 0 768 768"><path d="M672,0H96C43.01,0,0,43.01,0,96V672c0,52.99,43.01,96,96,96H672c52.99,0,96-43.01,96-96V96c0-52.99-43.01-96-96-96Zm-26.92,189.22l-85.83,404.76c-6.48,28.57-23.36,35.68-47.36,22.22l-130.77-96.37-63.1,60.69c-6.98,6.98-12.82,12.82-26.28,12.82l9.4-133.18,242.37-219.01c10.54-9.4-2.29-14.6-16.38-5.21L227.5,424.62l-128.99-40.37c-28.06-8.76-28.57-28.06,5.84-41.52l504.55-194.38c23.36-8.76,43.8,5.21,36.18,40.88Z" fill="#83BF4F"/></svg>