<?xml version="1.0" encoding="UTF-8"?>
<svg id="a" xmlns="http://www.w3.org/2000/svg" viewBox="0 0 768 768"><path d="M672,0H96C43.01,0,0,43.01,0,96V672c0,52.99,43.01,96,96,96H672c52.99,0,96-43.01,96-96V96c0-52.99-43.01-96-96-96Zm-97.15,286.27c.19,4.22,.19,8.45,.19,12.67,0,129.98-99.07,280.13-280.13,280.13-55.49,0-107.33-16.32-150.72-43.97,7.68,.96,15.55,1.34,23.42,1.34,46.08,0,88.51-15.74,122.3-42.24-43.01-.77-79.49-29.18-91.97-68.35,5.95,1.15,12.1,1.73,18.43,1.73,9.02,0,17.66-1.15,25.92-3.46-44.93-9.02-78.91-48.96-78.91-96.58v-1.34c13.25,7.3,28.42,11.71,44.54,12.29-26.3-17.66-43.78-47.81-43.78-81.98,0-18.05,4.8-34.94,13.25-49.54,48.58,59.52,121.15,98.88,202.94,102.91-1.54-7.3-2.5-14.78-2.5-22.46,0-54.34,44.16-98.5,98.5-98.5,28.22,0,53.76,11.9,71.81,31.1,22.46-4.42,43.58-12.48,62.59-23.81-7.49,23.04-23.04,42.43-43.39,54.53,19.97-2.5,38.98-7.68,56.64-15.55-13.25,19.78-29.95,37.25-49.15,51.07Z" fill="#83BF4F"/></svg>