<?xml version="1.0" encoding="utf-8"?>
<!-- Generator: Adobe Illustrator 16.0.0, SVG Export Plug-In . SVG Version: 6.00 Build 0)  -->
<!DOCTYPE svg PUBLIC "-//W3C//DTD SVG 1.1//EN" "http://www.w3.org/Graphics/SVG/1.1/DTD/svg11.dtd">
<svg version="1.1" id="Layer_1" xmlns="http://www.w3.org/2000/svg" xmlns:xlink="http://www.w3.org/1999/xlink" x="0px" y="0px"
	 width="100px" height="100px" viewBox="0 0 100 100" enable-background="new 0 0 100 100" xml:space="preserve">
<g>
	<g>
		<path fill="#FFFFFF" stroke="#FFFFFF" stroke-width="3" stroke-miterlimit="10" d="M69.96,97.365
			c-14.612,0-26.503-11.889-26.503-26.5c0-14.612,11.891-26.501,26.503-26.501c14.613,0,26.502,11.889,26.502,26.501
			C96.462,85.477,84.573,97.365,69.96,97.365z M69.96,45.713c-13.87,0-25.155,11.284-25.155,25.152
			c0,13.867,11.285,25.15,25.155,25.15c13.869,0,25.153-11.283,25.153-25.15C95.113,56.997,83.829,45.713,69.96,45.713z"/>
	</g>
	<g>
		<path fill="#FFFFFF" stroke="#FFFFFF" stroke-width="3" stroke-miterlimit="10" d="M69.96,87.975
			c-0.372,0-0.674-0.304-0.674-0.677c0-0.372,0.302-0.674,0.674-0.674c8.69,0,15.761-7.069,15.761-15.759
			c0-0.372,0.303-0.674,0.676-0.674c0.371,0,0.674,0.302,0.674,0.674C87.07,80.299,79.395,87.975,69.96,87.975z"/>
	</g>
	<g>
		<path fill="#FFFFFF" stroke="#FFFFFF" stroke-width="3" stroke-miterlimit="10" d="M30.042,87.975
			c-0.372,0-0.674-0.304-0.674-0.677c0-0.372,0.302-0.674,0.674-0.674c3.244,0,6.358-0.976,9.008-2.823
			c0.306-0.215,0.725-0.141,0.938,0.167c0.214,0.306,0.138,0.726-0.166,0.939C36.945,86.913,33.563,87.975,30.042,87.975z"/>
	</g>
	<g>
		<path fill="#FFFFFF" stroke="#FFFFFF" stroke-width="3" stroke-miterlimit="10" d="M30.31,97.906
			c-14.761,0-26.771-12.01-26.771-26.771c0-14.763,12.011-26.771,26.771-26.771c6.086,0,11.82,1.989,16.584,5.754
			c0.292,0.23,0.343,0.655,0.11,0.948c-0.23,0.291-0.655,0.341-0.948,0.108c-4.523-3.573-9.968-5.462-15.746-5.462
			c-14.019,0-25.421,11.405-25.421,25.423c0,14.017,11.402,25.421,25.421,25.421c5.564,0,10.847-1.764,15.28-5.102
			c0.297-0.225,0.72-0.165,0.943,0.134c0.224,0.298,0.165,0.72-0.133,0.944C41.732,96.048,36.169,97.906,30.31,97.906z"/>
	</g>
	<g>
		<path fill="#FFFFFF" stroke="#FFFFFF" stroke-width="3" stroke-miterlimit="10" d="M68.764,59.141c-0.002,0-0.002,0-0.002,0
			c-0.371-0.002-0.675-0.308-0.671-0.68c0.005-1.638-0.563-3.847-1.218-6.406c-1.275-4.972-2.861-11.16-1.924-18.417
			c0.662-5.109,2.55-10.088,5.609-14.8c0.205-0.312,0.619-0.4,0.937-0.198c0.312,0.203,0.397,0.622,0.194,0.934
			c-2.99,4.604-4.756,9.261-5.402,14.237c-0.906,7,0.646,13.05,1.893,17.909c0.68,2.649,1.268,4.938,1.26,6.747
			C69.438,58.837,69.135,59.141,68.764,59.141z"/>
	</g>
	<g>
		<path fill="#FFFFFF" stroke="#FFFFFF" stroke-width="3" stroke-miterlimit="10" d="M31.274,57.448
			c-0.086,0-0.172-0.017-0.257-0.052c-0.344-0.143-0.51-0.537-0.366-0.881c3.435-8.363,8.405-16.606,13.994-23.212
			c5.992-7.083,12.314-11.909,18.28-13.951c9.155-3.136,18.491-3.169,25.362-3.169c0.079,0,0.154,0,0.232,0h0.225
			c0.371,0,0.672,0.301,0.672,0.674s-0.301,0.674-0.672,0.674H88.52c-6.801-0.001-16.109,0-25.158,3.098
			c-11.313,3.875-24.251,18.844-31.464,36.4C31.791,57.29,31.539,57.448,31.274,57.448z"/>
	</g>
	<g>
		<path fill="#FFFFFF" stroke="#FFFFFF" stroke-width="3" stroke-miterlimit="10" d="M37.089,34.5c-0.044,0-0.093-0.004-0.138-0.015
			C23.18,31.564,12.81,20.568,12.377,20.101l-0.403-0.43l0.372-0.457C12.9,18.539,26.055,2.667,43.229,2.109
			c9.964-0.322,18.968,4.667,24.781,8.911c0.301,0.22,0.364,0.642,0.146,0.943c-0.219,0.301-0.643,0.366-0.943,0.147
			c-5.64-4.12-14.387-8.964-23.938-8.654c-14.96,0.487-27.179,13.529-29.489,16.155c2.079,2.076,11.613,11.042,23.445,13.553
			c0.365,0.077,0.598,0.436,0.521,0.8C37.682,34.282,37.402,34.5,37.089,34.5z"/>
	</g>
</g>
</svg>
