<?xml version="1.0" encoding="UTF-8"?>
<svg id="a" xmlns="http://www.w3.org/2000/svg" viewBox="0 0 768 768"><path d="M672,0H96C43.01,0,0,43.01,0,96V672c0,52.99,43.01,96,96,96H672c52.99,0,96-43.01,96-96V96c0-52.99-43.01-96-96-96Zm-5.91,406.75c0,48.71-5.64,97.4-5.64,97.4,0,0-5.52,41.48-22.42,59.72-21.46,23.95-45.5,24.09-56.52,25.5-78.96,6.05-197.51,6.26-197.51,6.26,0,0-146.7-1.43-191.83-6.05-12.56-2.5-40.72-1.78-62.2-25.73-16.91-18.24-22.42-59.72-22.42-59.72,0,0-5.64-48.68-5.64-97.4v-45.64c0-48.69,5.64-97.39,5.64-97.39,0,0,5.52-41.5,22.42-59.77,21.48-23.95,45.5-24.09,56.52-25.45,78.94-6.12,197.36-6.12,197.36-6.12h.26s118.43,0,197.38,6.12c11.02,1.36,35.06,1.5,56.52,25.45,16.91,18.27,22.42,59.77,22.42,59.77,0,0,5.64,48.69,5.64,97.4v45.64Z" fill="#83BF4F"/><polygon points="313.54 489.82 489.9 384 313.54 278.18 313.54 489.82" fill="#83BF4F"/></svg>