<svg width="16" height="22" viewBox="0 0 16 22" fill="none" xmlns="http://www.w3.org/2000/svg">
<path fill-rule="evenodd" clip-rule="evenodd" d="M7.11087 22.0002C6.99687 22.0002 6.88187 21.9802 6.76887 21.9392C6.33687 21.7822 6.06687 21.3502 6.11687 20.8932L6.88487 13.8002H0.999871C0.630871 13.8002 0.291871 13.5972 0.117871 13.2712C-0.056129 12.9452 -0.0361289 12.5512 0.168871 12.2442L8.05687 0.444184C8.31287 0.0611839 8.79687 -0.0978211 9.22987 0.0611839C9.66287 0.218184 9.93187 0.650184 9.88187 1.10718L9.11387 8.20018H14.9999C15.3689 8.20018 15.7079 8.40317 15.8819 8.72917C16.0549 9.05517 16.0359 9.44917 15.8309 9.75617L7.94187 21.5562C7.75287 21.8402 7.43687 22.0002 7.11087 22.0002Z" fill="#F3D113"/>
</svg>
