<svg width="24" height="24" viewBox="0 0 24 24" fill="none" xmlns="http://www.w3.org/2000/svg">
<path d="M13.3054 2.36302L14.3284 4.61205C14.3715 4.70673 14.4351 4.78863 14.5139 4.85069C14.5926 4.91275 14.6841 4.95311 14.7804 4.96829L17.0679 5.32894C17.1787 5.34641 17.2828 5.39718 17.3684 5.47551C17.4541 5.55383 17.5178 5.65659 17.5524 5.77215C17.587 5.88772 17.5911 6.01149 17.5643 6.12946C17.5374 6.24743 17.4807 6.35491 17.4005 6.43972L15.7453 8.19035C15.6756 8.26405 15.6234 8.35503 15.5934 8.45544C15.5633 8.55586 15.5562 8.6627 15.5726 8.76677L15.9634 11.2387C15.9823 11.3585 15.97 11.4816 15.9278 11.5941C15.8856 11.7067 15.8152 11.8042 15.7246 11.8756C15.634 11.947 15.5268 11.9895 15.4151 11.9983C15.3034 12.0071 15.1917 11.9817 15.0925 11.9252L13.0465 10.7581C12.9604 10.709 12.8645 10.6833 12.7672 10.6833C12.6699 10.6833 12.574 10.709 12.4879 10.7581L10.4419 11.9252C10.3428 11.9817 10.231 12.0071 10.1193 11.9983C10.0076 11.9895 9.9004 11.9471 9.80979 11.8756C9.71919 11.8042 9.64881 11.7067 9.60661 11.5941C9.56441 11.4816 9.55208 11.3585 9.57102 11.2387L9.96177 8.76677C9.97822 8.6627 9.97111 8.55586 9.94104 8.45544C9.91096 8.35503 9.85884 8.26405 9.78916 8.19035L8.13389 6.43972C8.05369 6.35491 7.99697 6.24743 7.97013 6.12946C7.94329 6.01149 7.9474 5.88772 7.98201 5.77216C8.01662 5.65659 8.08034 5.55383 8.16596 5.47551C8.25159 5.39718 8.3557 5.34641 8.46653 5.32894L10.754 4.96829C10.8504 4.95311 10.9418 4.91275 11.0205 4.85069C11.0993 4.78863 11.1629 4.70673 11.206 4.61205L12.229 2.36302C12.2785 2.25405 12.3552 2.1623 12.4503 2.09815C12.5454 2.034 12.6552 2 12.7672 2C12.8792 2 12.989 2.034 13.0841 2.09815C13.1792 2.1623 13.2559 2.25405 13.3054 2.36302Z" fill="#2572E4"/>
<path d="M7.094 11.6193L8.11701 13.8683C8.16008 13.963 8.22372 14.0449 8.30244 14.1069C8.38117 14.169 8.47263 14.2094 8.56893 14.2245L10.8564 14.5852C10.9673 14.6027 11.0714 14.6534 11.157 14.7318C11.2426 14.8101 11.3064 14.9128 11.341 15.0284C11.3756 15.144 11.3797 15.2677 11.3529 15.3857C11.326 15.5037 11.2693 15.6112 11.1891 15.696L9.53383 17.4466C9.46414 17.5203 9.41202 17.6113 9.38195 17.7117C9.35188 17.8121 9.34476 17.919 9.36121 18.023L9.75196 20.4949C9.7709 20.6147 9.75857 20.7378 9.71637 20.8504C9.67417 20.963 9.60379 21.0605 9.51319 21.1319C9.42258 21.2033 9.31537 21.2458 9.20366 21.2546C9.09196 21.2633 8.98023 21.238 8.8811 21.1814L6.83508 20.0144C6.74894 19.9652 6.65309 19.9396 6.55578 19.9396C6.45846 19.9396 6.36261 19.9652 6.27648 20.0144L4.23046 21.1815C4.13133 21.238 4.01959 21.2633 3.90789 21.2546C3.79619 21.2458 3.68897 21.2033 3.59837 21.1319C3.50776 21.0605 3.43738 20.963 3.39518 20.8504C3.35299 20.7378 3.34066 20.6147 3.35959 20.4949L3.75035 18.023C3.7668 17.919 3.75968 17.8121 3.72961 17.7117C3.69954 17.6113 3.64741 17.5203 3.57773 17.4466L1.92247 15.696C1.84227 15.6112 1.78554 15.5037 1.7587 15.3857C1.73186 15.2677 1.73598 15.144 1.77059 15.0284C1.80519 14.9128 1.86891 14.8101 1.95454 14.7318C2.04016 14.6534 2.14427 14.6027 2.2551 14.5852L4.54262 14.2245C4.63892 14.2094 4.73038 14.169 4.80911 14.1069C4.88783 14.0449 4.95147 13.963 4.99454 13.8683L6.01755 11.6193C6.06711 11.5103 6.14379 11.4186 6.2389 11.3544C6.33402 11.2903 6.44378 11.2563 6.55578 11.2563C6.66777 11.2563 6.77753 11.2903 6.87265 11.3544C6.96776 11.4186 7.04444 11.5103 7.094 11.6193Z" fill="#2572E4"/>
<path d="M18.3646 11.6193L19.3876 13.8683C19.4306 13.963 19.4943 14.0449 19.573 14.1069C19.6517 14.169 19.7432 14.2094 19.8395 14.2245L22.127 14.5852C22.2378 14.6027 22.3419 14.6534 22.4276 14.7318C22.5132 14.8101 22.5769 14.9128 22.6115 15.0284C22.6461 15.144 22.6502 15.2677 22.6234 15.3857C22.5966 15.5037 22.5398 15.6112 22.4596 15.696L20.8044 17.4466C20.7347 17.5203 20.6826 17.6113 20.6525 17.7117C20.6224 17.8121 20.6153 17.919 20.6318 18.023L21.0225 20.4949C21.0414 20.6147 21.0291 20.7378 20.9869 20.8504C20.9447 20.963 20.8743 21.0605 20.7837 21.1319C20.6931 21.2033 20.5859 21.2458 20.4742 21.2546C20.3625 21.2633 20.2508 21.238 20.1516 21.1814L18.1056 20.0144C18.0195 19.9652 17.9236 19.9396 17.8263 19.9396C17.729 19.9396 17.6332 19.9652 17.547 20.0144L15.501 21.1815C15.4019 21.238 15.2901 21.2633 15.1784 21.2546C15.0667 21.2458 14.9595 21.2033 14.8689 21.1319C14.7783 21.0605 14.7079 20.963 14.6657 20.8504C14.6235 20.7378 14.6112 20.6147 14.6301 20.4949L15.0209 18.023C15.0373 17.919 15.0302 17.8121 15.0002 17.7117C14.9701 17.6113 14.918 17.5203 14.8483 17.4466L13.193 15.696C13.1128 15.6112 13.0561 15.5037 13.0293 15.3857C13.0024 15.2677 13.0065 15.144 13.0411 15.0284C13.0757 14.9128 13.1395 14.8101 13.2251 14.7318C13.3107 14.6534 13.4148 14.6027 13.5257 14.5852L15.8132 14.2245C15.9095 14.2094 16.0009 14.169 16.0797 14.1069C16.1584 14.0449 16.222 13.963 16.2651 13.8683L17.2881 11.6193C17.3377 11.5103 17.4143 11.4186 17.5095 11.3544C17.6046 11.2903 17.7143 11.2563 17.8263 11.2563C17.9383 11.2563 18.0481 11.2903 18.1432 11.3544C18.2383 11.4186 18.315 11.5103 18.3646 11.6193Z" fill="#2572E4"/>
</svg>
