<svg id="Camada_1" data-name="Camada 1" xmlns="http://www.w3.org/2000/svg" viewBox="0 0 39 39" width="39" height="39"><title>bilhar</title><g class="nc-icon-wrapper" fill="#999999"><path d="M21.49 24.91A10.35 10.35 0 0 0 12 16.33a11.82 11.82 0 0 0-3.65.29C3.85 17.88.51 22.31.75 26.71a15.54 15.54 0 0 0 .06 1.66c0 .29.11.58.18.87a10.48 10.48 0 0 0 20.5-4.33zm-7 .8a4.91 4.91 0 0 1-3.31 1.17 4.78 4.78 0 0 1-3.68-1.51 3.53 3.53 0 0 1-.08-5A5 5 0 0 1 12 18.8a4.75 4.75 0 0 1 3 1.57 3.64 3.64 0 0 1-.48 5.34z"/><path d="M38.48 26.72a9.75 9.75 0 0 0-.13-2.09 10.51 10.51 0 0 0-13.65-7.81 10.23 10.23 0 0 0-4.3 2.75c-.17.18-.21.33-.06.53a4.73 4.73 0 0 1 .28.44 11.28 11.28 0 0 1 1.7 4.33 17 17 0 0 1 .08 2.37 8.72 8.72 0 0 1-.54 3.12 14.31 14.31 0 0 1-1.51 3 .37.37 0 0 0 .06.54 10.23 10.23 0 0 0 10.3 3 10.22 10.22 0 0 0 7.77-10.18zm-6.68-1.39a5.33 5.33 0 0 1-7.24.25 3.7 3.7 0 0 1 .44-5.87 5.57 5.57 0 0 1 3.35-1 4.79 4.79 0 0 1 3.76 2 3.68 3.68 0 0 1-.31 4.62z"/><path d="M26.8 5.67A9.47 9.47 0 0 0 18.28.94a9.43 9.43 0 0 0-1.6.07 8.71 8.71 0 0 0-4.09 1.81 9.35 9.35 0 0 0-3.35 4.6 10 10 0 0 0 .68 7.9.24.24 0 0 0 .24.14h1.23a10.56 10.56 0 0 1 4.36.95 13 13 0 0 1 3.63 2.51c.28.26.21.25.47 0a12 12 0 0 1 6.81-3.41.24.24 0 0 0 .2-.17A10.63 10.63 0 0 0 28 11.58a9 9 0 0 0-1.2-5.91zm-7.44 4.24a5.1 5.1 0 0 1-4.1 1.83 3.71 3.71 0 0 1-3.43-5.11 5.36 5.36 0 0 1 3.6-3.33 4.14 4.14 0 0 1 4.51 1.36 3.65 3.65 0 0 1 .65 2.24 4.08 4.08 0 0 1-1.23 3.01z"/><path d="M13.32 21.24a2.3 2.3 0 0 0-2-1.94 2 2 0 0 0-2.07 1 2.56 2.56 0 0 0-.1 2.46 1.94 1.94 0 0 0 2.06 1.11 2.09 2.09 0 0 0 1-.52 5 5 0 0 1-.32 1.41.85.85 0 0 1-.59.53.81.81 0 0 1-.94-.53c-.06-.11-.1-.22-.26-.19a3.81 3.81 0 0 1-.75.07c-.24 0-.3.08-.24.31a1.75 1.75 0 0 0 1.31 1.37 2.39 2.39 0 0 0 2.93-1.87 7.62 7.62 0 0 0-.03-3.21zm-1.82 1.57a.75.75 0 0 1-.92-.06 1.68 1.68 0 0 1-.06-2.21.88.88 0 0 1 1.31.39 2.1 2.1 0 0 1 .14.94.93.93 0 0 1-.47.94z"/><path d="M30.6 23.81a2.17 2.17 0 0 1-2.6 2.07 2 2 0 0 1-1-.65c-.08-.08-.09-.15 0-.21l.76-.52a.12.12 0 0 1 .17 0l.18.15a.78.78 0 0 0 1 .13.9.9 0 0 0 .42-1 1.82 1.82 0 0 0-.39-.8.92.92 0 0 0-1.6.1 1.25 1.25 0 0 1-.94.62c-.14 0-.22 0-.26-.14-.27-.95-.55-1.89-.83-2.83 0-.11 0-.15.09-.2.83-.42 1.66-.86 2.51-1.24a.19.19 0 0 1 .29.09l.32.57c.08.14.05.22-.1.29-.54.26-1.06.54-1.6.8a.24.24 0 0 0-.15.33c.06.21.11.41.15.62s.11.18.24.07a2.31 2.31 0 0 1 .88-.52 2 2 0 0 1 2.25 1.11 2.44 2.44 0 0 1 .21 1.16z"/><path d="M18.52 9.94a2.76 2.76 0 0 1-1.5.82 2.4 2.4 0 0 1-1.77-.64c-.07-.07-.07-.11 0-.18a4 4 0 0 1 .69-.6.28.28 0 0 1 .29 0l.37.17a.81.81 0 0 0 1-.11 1 1 0 0 0 .29-1.09 1.44 1.44 0 0 0-.78-.84.89.89 0 0 0-1 .19c-.38.31-.3.23-.5-.1s-.31-.59.07-.89a.71.71 0 0 0 .16-.77.73.73 0 0 0-.9-.58.82.82 0 0 0-.62 1.06c.08.24 0 .37-.19.47s-.46.2-.69.3-.16 0-.19-.08a1.89 1.89 0 0 1 .42-2.17 2.07 2.07 0 0 1 2.28-.66 1.51 1.51 0 0 1 1 2c-.08.26-.07.27.21.28h.37A1.61 1.61 0 0 1 19.07 8v.7a1.54 1.54 0 0 1-.55 1.24z"/></g></svg>