<svg xmlns="http://www.w3.org/2000/svg" viewBox="0 0 253.13 64.38"><title>boleto preto</title><g id="Layer_2" data-name="Layer 2"><g id="Layer_1-2" data-name="Layer 1"><path d="M0,31.36c0-9.94,0-19.88,0-29.83C0,.25.39-.1,1.59,0a18,18,0,0,0,3,0C5.62,0,5.93.3,5.93,1.31c0,6.87,0,13.74,0,20.61V62.73c0,1.75,0,0-1.79,0-1.09,0-2.19.09-3.27,0-.29,0-.69.31-.77,0-.13-.49,0,.53,0,0Z"/><path d="M42,.05V62.73c-1.79,0-3.51.1-5.23,0-.22,0-.55.42-.55,0,0-6,0-32.38,0-38.4,0-7.64,0-15.28,0-22.92,0-1,.25-1.45,1.35-1.39C38.91.11,40.36.05,42,.05Z"/><path d="M75.6,62.73H70c0-.35-.1.31-.1,0,0-13.77,0-47.68,0-61.45,0-.93.22-1.32,1.22-1.26,1.25.09,2.5,0,3.75,0,.66,0,.94.2.94.91,0,14.09,0,47.69,0,61.78C75.71,62.81,75.66,62.55,75.6,62.73Z"/><path d="M84.8,62.73a1.09,1.09,0,0,1-.45,0c-3.65.25-3.65,3.58-3.65,0,0-13,0-48.36,0-61.32,0-1,.21-1.49,1.32-1.38.91.09,1.83,0,2.8,0Z"/><path d="M51.79,62.73h-4c0-.36-.09.31-.09,0,0-13.7,0-47.51,0-61.22,0-1.27.42-1.61,1.59-1.49a24.35,24.35,0,0,0,2.57,0Z"/><path d="M16.27,62.73H12.13V1.65c0-1.61,0-1.61,1.67-1.6,2.47,0,2.47,0,2.47,2.5V62.73Z"/><path d="M26.13.05V62.73H22.05c0-13.49,0-47.81,0-61.31,0-1.14.35-1.5,1.44-1.39C24.3.11,25.15.05,26.13.05Z"/><path d="M87.33,62.73V.22c1.68-.39,1.8-.29,1.8,1.31v61.2C89.13,64.26,89,63.08,87.33,62.73Z"/><path d="M29.43,62.73h0c0-13.65,0-47.76,0-61.41,0-.66-.11-1.28.92-1.3s1,.68,1,1.35c0,13.57,0,47.79,0,61.36C31.31,64.41,31.32,63,29.43,62.73Z"/><path d="M65.18.25V62.73c-1.62.49-1.82,1.54-1.82,0V1.53C63.36-.1,63.45-.17,65.18.25Z"/><path d="M56.11.09h1.7V62.73h-1.7Z"/><path d="M115.94,16.06l1.41.66c2,.94,3.34,2.39,3.4,4.69a5.34,5.34,0,0,1-3.33,5.37A19,19,0,0,1,111.49,28c-3.51.21-7,.07-10.55.16-1.27,0-1.82-.27-1.81-1.7.07-6.46.05-12.92,0-19.38,0-1.22.34-1.71,1.63-1.69,3.58.08,7.17,0,10.74.1a12.32,12.32,0,0,1,4.45,1c4.21,1.87,4.54,6.17.79,8.86C116.55,15.52,116.37,15.69,115.94,16.06Zm-13.07,1.32c0,2.74,0,5,0,7.19,0,.32.47.9.7.89,3.64-.12,7.29-.15,10.89-.58,1.64-.2,2.44-1.78,2.39-3.49a3,3,0,0,0-2.6-3.15C110.58,17.8,106.83,17.66,102.87,17.38ZM103,14.7c3.45,0,6.64.13,9.82,0a2.83,2.83,0,0,0,2.82-2.87c.09-1.71-.78-3.07-2.36-3.26-3.39-.4-6.82-.44-10.28-.62Z"/><path d="M159.56,20.69a4.65,4.65,0,0,0,2.14,4.4c2.75,1.9,7.28,1.49,9.13-1.32.48-.73,2.26-.6,3.87-1A6.72,6.72,0,0,1,170,27.85a13.7,13.7,0,0,1-8.7,0c-3.59-1.13-5.4-3.8-5.46-7.68s1.81-6.82,5.26-8.07a12.07,12.07,0,0,1,9,.1,7.62,7.62,0,0,1,4.8,6.62c.15,1.33-.27,1.81-1.67,1.77-3.77-.08-7.55,0-11.32,0C161.11,20.58,160.37,20.65,159.56,20.69Zm.16-2.38c3.49,0,6.82,0,10.14,0a6.8,6.8,0,0,0,1.1-.17c-.12-2.67-2.06-4.42-5-4.53C162.38,13.47,160.1,15.09,159.72,18.31Z"/><path d="M134.37,28.71c-4.86-.2-8.17-2-9.47-5.46-2.07-5.47.92-10.72,6.66-11.66a12.33,12.33,0,0,1,8,1c3.3,1.76,4.43,4.6,4.17,8.17a7.16,7.16,0,0,1-5,6.81C137.35,28.07,135.84,28.34,134.37,28.71ZM128,20c0,3.88,2.25,6.22,6,6.24,4.1,0,6.29-2.25,6.28-6.5,0-3.83-2.3-6.15-6-6.14C130.17,13.62,127.94,15.92,128,20Z"/><path d="M200,28.47c-8.65.06-12.9-5.64-10.13-12.27l.15-.35c1.93-4.09,9.14-5.88,14-3.48a8.56,8.56,0,0,1,3.58,12C205.66,27.59,202.41,28.31,200,28.47Zm-7.23-8.65c0,4,2.27,6.43,6,6.43,4.08,0,6.27-2.28,6.25-6.55,0-3.87-2.31-6.11-6.27-6.1C195,13.61,192.74,15.94,192.73,19.82Z"/><path d="M187.09,28.2a28.3,28.3,0,0,1-4.32,0c-1.94-.3-2.75-1.47-2.8-3.75-.07-2.94-.06-5.89,0-8.83,0-1.1-.08-1.86-1.5-1.82-.36,0-.75-.71-1.12-1.09.42-.33.83-.9,1.27-.92,1-.06,1.53-.42,1.32-1.38-.54-2.56,1-3.52,3.44-4.29,0,1.18.08,2.29,0,3.38-.17,1.71.4,2.54,2.22,2.25a5.38,5.38,0,0,1,1.23.14c.56,3.18-2.36,1.3-3.39,2.58,0,3,0,6.33,0,9.64a1.59,1.59,0,0,0,1.87,1.7C187,25.67,187.43,26.46,187.09,28.2Z"/><path d="M151.27,28c-3.33.45-3.33.45-3.33-2.6,0-6,0-12,0-18,0-1.31.25-1.92,1.78-1.95s1.72.72,1.71,2c0,6.26,0,12.53,0,18.79C151.39,26.76,151.31,27.38,151.27,28Z"/><path d="M116.34,45.57a3.53,3.53,0,0,0,.64.32c2.12.83,3.58,2.22,3.73,4.61A5.28,5.28,0,0,1,117.55,56a16.5,16.5,0,0,1-5.71,1.35c-3.7.22-7.42.06-11.13.13-1.14,0-1.58-.37-1.58-1.54,0-6.59,0-13.18.07-19.76,0-.48.7-1.37,1.06-1.36,4.84.1,9.71.1,14.52.61,3,.32,5.13,3.26,4.43,5.7C118.76,42.66,117.41,44,116.34,45.57ZM108.23,55a55.74,55.74,0,0,0,6.22-.87,3.45,3.45,0,0,0,.15-6.53,11.3,11.3,0,0,0-3-.62c-2-.11-4.09-.1-6.14-.1-2.57,0-2.57,0-2.57,2.63C102.9,54.78,102.9,54.78,108.23,55Zm-5.34-11c3.4,0,6.58.18,9.73-.06a3.05,3.05,0,0,0,3.06-3.29,3.33,3.33,0,0,0-3.27-3.16c-2.73-.21-5.48-.2-8.22-.17-.43,0-1.21.61-1.24,1C102.83,40.23,102.89,42.14,102.89,44Z"/><path d="M207.61,57.29c-1.34.16-3,.76-3.68-1.63a15.1,15.1,0,0,1-3.56,1.4,27.74,27.74,0,0,1-7,.31,4.33,4.33,0,0,1-4.16-4.27c0-1.93,1.48-3.72,3.9-4.38a37.55,37.55,0,0,1,4.34-.77c1.52-.23,3.06-.32,4.56-.61.6-.12,1.55-.6,1.58-1a3.32,3.32,0,0,0-.69-2.27c-1.69-1.88-7.28-1.6-8.86.32-1.39,1.7-1.39,1.7-4,1.07a4.63,4.63,0,0,1,3.2-3.83,16.61,16.61,0,0,1,10.38-.51c2.36.59,3.41,1.94,3.54,4.38.08,1.47,0,2.94.05,4.42C207.32,52.35,207.47,54.75,207.61,57.29Zm-4.17-7.94c-2.69.41-5.39.77-8.06,1.26-1.33.25-2.48,1-2.38,2.54a2.46,2.46,0,0,0,2.62,2.32,16.26,16.26,0,0,0,5.39-.73C203.27,53.93,204,52,203.44,49.35Z"/><path d="M125.14,46.14c.5-2.83,1.85-3.93,3.6-4.58a16.06,16.06,0,0,1,10.18-.34c2.53.71,3.34,1.78,3.46,4.41.11,2.43,0,4.86.13,7.29.06,1.38.29,2.74.45,4.17-2,.78-2.86.53-3.91-1.38a12.91,12.91,0,0,1-3.26,1.3,35,35,0,0,1-7.72.21,4.08,4.08,0,0,1-3.6-3.92,4.3,4.3,0,0,1,3.2-4.28,23.91,23.91,0,0,1,4.28-1c1.7-.28,3.44-.35,5.13-.67.65-.12,1.74-.73,1.72-1.06a3.82,3.82,0,0,0-1-2.48c-2.26-1.9-7.05-1-9,1.19C128.11,45.74,126.65,45.71,125.14,46.14Zm13.51,3.13c-3,.53-5.88.92-8.7,1.65a2.86,2.86,0,0,0-1.69,2.15,2.83,2.83,0,0,0,1.75,2.1,13,13,0,0,0,5,0C138.06,54.57,139.11,52.73,138.65,49.27Z"/><path d="M253.12,49.59c.14,6.19-5.55,8.46-10.53,8.16-5.91-.35-9.15-3.84-8.8-9.52.31-4.92,4.46-7.91,10.55-7.6C250,40.91,253.4,44.39,253.12,49.59Zm-9.76-6.71c-3.68,0-6,2.38-6,6.18,0,4,2.36,6.51,6.15,6.49s6.13-2.42,6.15-6.3S247.29,42.87,243.36,42.88Z"/><path d="M150.93,41.12l.31,1.56c.26,0,.48,0,.6-.12A9.77,9.77,0,0,1,161,41.11c2.43.69,3.75,2.08,3.83,4.64.13,3.76,0,7.54,0,11.45-.52.07-1,.13-1.49.21-1.48.23-2.06-.29-2-1.87.12-2.75.06-5.51,0-8.26s-1.28-4.13-4-4.29c-3.09-.19-5.51,1.31-5.71,3.85-.23,2.93-.23,5.89-.17,8.83,0,1.35-.44,1.79-1.75,1.8S147.94,57,148,55.68c.08-4,0-8.07,0-12.1C148,40.83,148,40.83,150.93,41.12Z"/><path d="M186.71,45.77c-1.72.36-3,.32-4.17-1.29-2.06-2.73-7.09-2-8.88,1-1.26,2.12-1.08,6.23.34,8.05a6,6,0,0,0,6.8,1.63,5.65,5.65,0,0,0,2.35-1.81c1.39-1.9,1.32-2,3.76-1.47.43,3.2-3.91,5.67-7.18,5.89-5.79.39-9.88-2.4-10.39-7.23-.59-5.65,2.22-9.15,7.95-9.85C181.42,40.17,186.47,41.82,186.71,45.77Z"/><path d="M215.56,41.12l.52,1.67c3.21-2.52,5.07-2.79,7.62-1.16-.21,1.53-.74,2.3-2.61,1.95-2.75-.51-4.37.71-4.65,3.47a74.9,74.9,0,0,0-.24,8.61c0,1.55-.65,1.78-1.95,1.8s-1.58-.56-1.56-1.74c.05-4.09,0-8.18,0-12.27C212.7,40.83,212.71,40.83,215.56,41.12Z"/><path d="M229.48,41.22V57.14c-3.22.68-3.35.58-3.34-2.57V43.66C226.14,40.71,226.21,40.66,229.48,41.22Z"/><path d="M203.37,34.92c-1.84,1.49-2.63,4.63-6,3.81C198.41,34.92,199.26,34.35,203.37,34.92Z"/><path d="M229.52,34.56V38a12.61,12.61,0,0,1-3.2-.63c-.29-.13-.3-1.9,0-2.07A11.55,11.55,0,0,1,229.52,34.56Z"/></g></g></svg>