<svg xmlns="http://www.w3.org/2000/svg" viewBox="0 0 266 266"><title>boleto preto 300x300</title><g id="Layer_2" data-name="Layer 2"><g id="Layer_1-2" data-name="Layer 1"><path d="M244.48,266h-223A21.54,21.54,0,0,1,0,244.48v-223A21.54,21.54,0,0,1,21.52,0h223A21.54,21.54,0,0,1,266,21.52v223A21.54,21.54,0,0,1,244.48,266ZM21.52,3A18.54,18.54,0,0,0,3,21.52v223A18.54,18.54,0,0,0,21.52,263h223A18.54,18.54,0,0,0,263,244.48v-223A18.54,18.54,0,0,0,244.48,3Z"/><path d="M35.94,109c0-21.46.05-42.92-.07-64.39,0-2.76.85-3.51,3.43-3.26a37.47,37.47,0,0,0,6.53,0c2.17-.17,2.84.59,2.83,2.77-.08,14.83,0,29.66,0,44.5q0,42.13,0,84.28c0,3.78,0,3.78-3.87,3.78-2.35,0-4.72.09-7.06-.11A2.54,2.54,0,0,1,36,175a13.55,13.55,0,0,1-.1-3.38Z"/><path d="M126.41,41.43v94.11c-3.86,0-7.58.09-11.29-.12-.46,0-1.19-1.68-1.19-2.59-.08-13-.05-26-.05-39,0-16.49.05-33,0-49.46,0-2.26.53-3.14,2.9-3C119.85,41.57,123,41.43,126.41,41.43Z"/><path d="M199,135.35h-12.2c-.07-.76-.2-1.43-.2-2.1q0-44.58,0-89.17c0-2,.48-2.85,2.64-2.7,2.69.18,5.4.08,8.1,0,1.41,0,2,.44,2,2q-.06,45.63-.06,91.26A3.37,3.37,0,0,1,199,135.35Z"/><path d="M218.9,135.25a6.75,6.75,0,0,1-1,.28c-7.86.52-7.86.52-7.86-7.21q0-42-.06-83.95c0-2.23.46-3.22,2.86-3,2,.19,3.95,0,6,0Z"/><path d="M147.65,135.43H139c-.08-.79-.2-1.45-.2-2.11,0-29.57,0-59.15-.09-88.72,0-2.74.91-3.49,3.44-3.22a53.6,53.6,0,0,0,5.54,0Z"/><path d="M71,135.39H62v-2.85q0-43.83,0-87.65c0-3.47,0-3.47,3.61-3.46,5.32,0,5.32,0,5.32,5.4v88.56Z"/><path d="M92.26,41.43v93.93H83.45v-3.58c0-29.13,0-58.25-.06-87.38,0-2.47.76-3.24,3.12-3C88.31,41.57,90.14,41.43,92.26,41.43Z"/><path d="M224.36,176.31V41.8c3.64-.83,3.9-.61,3.89,2.84q0,64.48,0,129C228.24,176.92,228.06,177.06,224.36,176.31Z"/><path d="M56.7,207a6.29,6.29,0,0,0,.86.44c2.89,1.13,4.89,3,5.08,6.27a7.2,7.2,0,0,1-4.29,7.44A23,23,0,0,1,50.56,223c-5,.3-10.1.08-15.15.17-1.56,0-2.16-.5-2.15-2.1.05-9,0-17.94.09-26.91,0-.65.95-1.86,1.44-1.85,6.6.14,13.23.13,19.78.84,4.06.43,7,4.43,6,7.75C60,203,58.15,204.77,56.7,207ZM45.64,219.81a76.55,76.55,0,0,0,8.48-1.18,4.69,4.69,0,0,0,.2-8.89,14.85,14.85,0,0,0-4-.85c-2.79-.15-5.58-.13-8.37-.14-3.49,0-3.49,0-3.5,3.58C38.39,219.5,38.39,219.5,45.64,219.81Zm-7.26-14.94c4.63,0,9,.25,13.25-.08a4.14,4.14,0,0,0,4.16-4.48,4.52,4.52,0,0,0-4.44-4.3c-3.72-.29-7.47-.28-11.2-.24-.59,0-1.66.84-1.69,1.34C38.29,199.69,38.38,202.28,38.38,204.87Z"/><path d="M86.51,166.76l1.93.91c2.71,1.28,4.54,3.24,4.63,6.38a7.26,7.26,0,0,1-4.54,7.31,25.39,25.39,0,0,1-8.07,1.7c-4.78.29-9.59.1-14.38.22-1.73,0-2.47-.37-2.45-2.3.09-8.81.06-17.61,0-26.41,0-1.66.47-2.33,2.22-2.29,4.88.1,9.77-.07,14.64.13a16.7,16.7,0,0,1,6.05,1.34c5.74,2.56,6.18,8.41,1.08,12.08C87.35,166,87.1,166.26,86.51,166.76Zm-17.79,1.8c0,3.73,0,6.77,0,9.8,0,.43.64,1.22,1,1.21,4.94-.17,9.91-.2,14.82-.8,2.23-.27,3.33-2.42,3.25-4.75s-1.39-4-3.53-4.28C79.21,169.14,74.11,168.94,68.72,168.56Zm.2-3.64c4.7,0,9,.16,13.38-.07a3.88,3.88,0,0,0,3.84-3.92c.12-2.32-1.07-4.18-3.22-4.44-4.61-.55-9.29-.59-14-.84Z"/><path d="M99.39,135.25v-2.69q0-44.19,0-88.39c0-1.42-.24-2.75,2-2.81,2.46-.06,2.09,1.47,2.09,2.93q0,43.93,0,87.87C103.44,135.79,103.46,135.79,99.39,135.25Z"/><path d="M176.54,41.86v93.23c-3.49,1-3.92.75-3.92-2.56V44.64C172.62,41.12,172.82,41,176.54,41.86Z"/><path d="M157,41.53h3.67v93.89H157Z"/><path d="M181,222.91c-1.83.22-4.06,1.05-5-2.21-1.67.69-3.2,1.69-4.84,1.91a37.92,37.92,0,0,1-9.5.41c-3.67-.45-5.63-2.91-5.67-5.81,0-2.63,2-5.06,5.31-6a53.36,53.36,0,0,1,5.91-1.06c2.07-.3,4.17-.43,6.22-.83.81-.16,2.1-.81,2.14-1.32a4.52,4.52,0,0,0-.94-3.09c-2.3-2.56-9.91-2.18-12.06.44-1.9,2.31-1.9,2.31-5.46,1.45a6.28,6.28,0,0,1,4.35-5.21,22.59,22.59,0,0,1,14.14-.69c3.21.8,4.64,2.64,4.82,6,.11,2,0,4,.07,6C180.6,216.19,180.81,219.45,181,222.91Zm-5.69-10.8c-3.65.56-7.33,1-11,1.71-1.81.34-3.38,1.32-3.24,3.46a3.36,3.36,0,0,0,3.57,3.16,22,22,0,0,0,7.33-1C175.08,218.34,176.05,215.67,175.31,212.11Z"/><path d="M68.68,207.74c.67-3.86,2.52-5.36,4.9-6.24A21.85,21.85,0,0,1,87.44,201c3.45,1,4.55,2.42,4.71,6,.15,3.31.06,6.63.19,9.94.08,1.87.4,3.73.62,5.68-2.74,1-3.91.72-5.33-1.88-1.46.6-2.91,1.6-4.45,1.76a48.09,48.09,0,0,1-10.51.3,5.55,5.55,0,0,1-4.9-5.35c-.1-2.58,1.37-4.75,4.36-5.83A32.64,32.64,0,0,1,78,210.33c2.31-.38,4.68-.47,7-.91.88-.17,2.36-1,2.33-1.44a5.25,5.25,0,0,0-1.38-3.39c-3.09-2.58-9.61-1.38-12.31,1.63C72.72,207.19,70.74,207.15,68.68,207.74ZM87.08,212c-4.06.73-8,1.26-11.85,2.25a3,3,0,0,0,.08,5.79,17.85,17.85,0,0,0,6.87.05C86.28,219.22,87.7,216.7,87.08,212Z"/><path d="M145.93,173.07a6.34,6.34,0,0,0,2.9,6c3.75,2.59,9.92,2,12.44-1.8.65-1,3.08-.83,5.28-1.33a9.18,9.18,0,0,1-6.48,6.88,18.66,18.66,0,0,1-11.84,0c-4.89-1.55-7.36-5.18-7.44-10.47s2.47-9.28,7.16-11a16.47,16.47,0,0,1,12.25.14,10.36,10.36,0,0,1,6.55,9c.21,1.82-.37,2.47-2.27,2.42-5.14-.12-10.29,0-15.43,0C148,172.92,147,173,145.93,173.07Zm.22-3.24c4.75,0,9.27,0,13.8,0a9.35,9.35,0,0,0,1.5-.22c-.16-3.64-2.81-6-6.74-6.17C149.76,163.24,146.66,165.44,146.15,169.83Z"/><path d="M111.61,184c-6.61-.27-11.12-2.77-12.89-7.43-2.82-7.45,1.25-14.6,9.08-15.89,3.77-.62,7.46-.48,10.94,1.37,4.49,2.39,6,6.26,5.68,11.13-.33,4.53-2.48,7.75-6.81,9.27C115.67,183.12,113.62,183.49,111.61,184Zm-8.72-11.87c0,5.29,3.06,8.49,8.1,8.51,5.59,0,8.57-3.07,8.55-8.85,0-5.21-3.13-8.38-8.22-8.36C105.9,163.43,102.86,166.57,102.89,172.12Z"/><path d="M201,183.67c-11.79.08-17.58-7.69-13.8-16.71l.2-.48c2.64-5.57,12.45-8,19-4.74a11.64,11.64,0,0,1,4.87,16.31C208.71,182.47,204.29,183.45,201,183.67Zm-9.84-11.78c0,5.43,3.08,8.75,8.14,8.76,5.56,0,8.53-3.11,8.51-8.92,0-5.28-3.14-8.33-8.54-8.31C194.14,163.43,191.11,166.6,191.11,171.89Z"/><path d="M243,212.43c.19,8.42-7.56,11.52-14.33,11.12-8.05-.48-12.47-5.24-12-13,.42-6.7,6.07-10.77,14.36-10.35C238.72,200.61,243.36,205.35,243,212.43Zm-13.29-9.14c-5,0-8.17,3.24-8.21,8.42,0,5.43,3.21,8.86,8.38,8.84s8.34-3.3,8.37-8.59S235,203.27,229.69,203.29Z"/><path d="M103.8,200.89l.43,2.14c.35-.07.64,0,.82-.18,3.78-2.89,8-3.23,12.4-2,3.31.94,5.1,2.83,5.22,6.32.18,5.13,0,10.27,0,15.6-.71.1-1.37.17-2,.28-2,.31-2.8-.39-2.7-2.55.17-3.74.09-7.5,0-11.25s-1.74-5.62-5.5-5.84c-4.2-.26-7.5,1.79-7.77,5.25-.32,4-.31,8-.24,12,0,1.85-.59,2.44-2.38,2.45s-2.41-.61-2.38-2.44c.11-5.49.06-11,.06-16.48C99.82,200.51,99.81,200.51,103.8,200.89Z"/><path d="M152.54,207.23c-2.34.48-4,.44-5.68-1.75-2.82-3.73-9.66-2.78-12.1,1.33-1.71,2.89-1.48,8.49.46,11a8.24,8.24,0,0,0,9.26,2.23,7.67,7.67,0,0,0,3.21-2.47c1.89-2.59,1.79-2.66,5.12-2,.58,4.35-5.33,7.72-9.78,8-7.89.53-13.45-3.27-14.15-9.85-.81-7.7,3-12.46,10.82-13.42C145.33,199.6,152.2,201.84,152.54,207.23Z"/><path d="M183.42,183.3a38.44,38.44,0,0,1-5.88-.06c-2.65-.41-3.75-2-3.82-5.11-.09-4-.08-8,0-12,0-1.49-.11-2.54-2-2.48-.49,0-1-1-1.53-1.49.58-.44,1.14-1.21,1.74-1.25,1.33-.08,2.07-.57,1.79-1.88-.74-3.48,1.39-4.79,4.69-5.83,0,1.6.11,3.11,0,4.59-.22,2.33.54,3.46,3,3.07A7.29,7.29,0,0,1,183,161c.76,4.33-3.21,1.77-4.62,3.51,0,4.11,0,8.62,0,13.13A2.17,2.17,0,0,0,181,180C183.26,179.85,183.87,180.93,183.42,183.3Z"/><path d="M191.83,200.9l.7,2.27c4.38-3.43,6.91-3.8,10.38-1.58-.29,2.08-1,3.14-3.55,2.66-3.74-.7-6,1-6.33,4.73a99.56,99.56,0,0,0-.33,11.72c0,2.1-.89,2.42-2.65,2.45s-2.16-.76-2.14-2.37c.08-5.57,0-11.14,0-16.71C187.94,200.5,187.94,200.5,191.83,200.9Z"/><path d="M134.63,183c-4.53.62-4.54.61-4.54-3.54,0-8.18,0-16.36,0-24.54,0-1.8.34-2.62,2.42-2.66s2.35,1,2.34,2.7c-.06,8.52,0,17.05,0,25.58C134.79,181.34,134.68,182.18,134.63,183Z"/><path d="M210.79,201v21.68c-4.39.92-4.56.79-4.56-3.5q0-7.43,0-14.86C206.24,200.33,206.33,200.26,210.79,201Z"/><path d="M175.23,192.45c-2.52,2-3.59,6.31-8.19,5.18C168.46,192.46,169.63,191.68,175.23,192.45Z"/><path d="M210.85,192v4.61a17.54,17.54,0,0,1-4.37-.86c-.39-.18-.41-2.58,0-2.81C207.66,192.28,209.16,192.28,210.85,192Z"/></g></g></svg>