<svg xmlns="http://www.w3.org/2000/svg" viewBox="0 0 266 266"><defs><style>.cls-1{fill:none;stroke:#fff;stroke-miterlimit:10;stroke-width:3px;}.cls-2{fill:#fff;}</style></defs><title>boleto branco 300x300</title><g id="Layer_2" data-name="Layer 2"><g id="Layer_1-2" data-name="Layer 1"><rect class="cls-1" x="1.5" y="1.5" width="263" height="263" rx="20.02"/><path class="cls-2" d="M35.94,109.56c0-21.47.05-42.93-.07-64.39,0-2.76.85-3.51,3.43-3.26a37.48,37.48,0,0,0,6.53,0c2.17-.16,2.84.59,2.83,2.77-.08,14.83,0,29.67,0,44.5q0,42.13,0,84.28c0,3.78,0,3.78-3.87,3.78-2.35,0-4.72.09-7.06-.11A2.53,2.53,0,0,1,36,175.5a13.57,13.57,0,0,1-.1-3.38Z"/><path class="cls-2" d="M126.41,42v94.11c-3.86,0-7.58.1-11.29-.12-.46,0-1.19-1.68-1.19-2.58-.08-13-.05-26-.05-39,0-16.49.05-33,0-49.47,0-2.26.53-3.13,2.9-3C119.85,42.1,123,42,126.41,42Z"/><path class="cls-2" d="M199,135.88h-12.2c-.07-.76-.2-1.43-.2-2.1q0-44.58,0-89.16c0-2,.48-2.85,2.64-2.71,2.69.18,5.4.09,8.1,0,1.41,0,2,.43,2,2q-.06,45.61-.06,91.25A3,3,0,0,1,199,135.88Z"/><path class="cls-2" d="M218.9,135.79a6.39,6.39,0,0,1-1,.27c-7.86.53-7.86.52-7.86-7.21q0-42-.06-83.95c0-2.22.46-3.22,2.86-3,2,.2,3.95,0,6,0Z"/><path class="cls-2" d="M147.65,136H139c-.08-.79-.2-1.45-.2-2.11,0-29.58,0-59.15-.09-88.73,0-2.74.91-3.49,3.44-3.22a50.94,50.94,0,0,0,5.54,0Z"/><path class="cls-2" d="M71,135.92H62v-2.85q0-43.81,0-87.65c0-3.46,0-3.46,3.61-3.46C71,42,71,42,71,47.37v88.55Z"/><path class="cls-2" d="M92.26,42v93.93H83.45v-3.58c0-29.12,0-58.25-.06-87.37,0-2.48.76-3.25,3.12-3C88.31,42.1,90.14,42,92.26,42Z"/><path class="cls-2" d="M224.36,176.85V42.34c3.64-.84,3.9-.62,3.89,2.83q0,64.5,0,129C228.24,177.45,228.06,177.59,224.36,176.85Z"/><path class="cls-2" d="M56.7,207.49a5.19,5.19,0,0,0,.86.44c2.89,1.13,4.89,3,5.08,6.27a7.2,7.2,0,0,1-4.29,7.44,22.75,22.75,0,0,1-7.79,1.84c-5,.3-10.1.08-15.15.17-1.56,0-2.16-.5-2.15-2.1.05-9,0-17.94.09-26.91,0-.65.95-1.86,1.44-1.85,6.6.14,13.23.14,19.78.84,4.06.43,7,4.43,6,7.76C60,203.52,58.15,205.3,56.7,207.49ZM45.64,220.34a79,79,0,0,0,8.48-1.17,4.7,4.7,0,0,0,.2-8.9,14.47,14.47,0,0,0-4-.84c-2.79-.16-5.58-.14-8.37-.15-3.49,0-3.49,0-3.5,3.58C38.39,220,38.39,220,45.64,220.34Zm-7.26-14.93c4.63,0,9,.24,13.25-.09a4.14,4.14,0,0,0,4.16-4.48,4.52,4.52,0,0,0-4.44-4.3c-3.72-.29-7.47-.28-11.2-.23-.59,0-1.66.83-1.69,1.34C38.29,200.22,38.38,202.81,38.38,205.41Z"/><path class="cls-2" d="M86.51,167.29l1.93.91c2.71,1.28,4.54,3.25,4.63,6.38a7.25,7.25,0,0,1-4.54,7.31,25.12,25.12,0,0,1-8.07,1.7c-4.78.3-9.59.1-14.38.22-1.73.05-2.47-.36-2.45-2.3.09-8.8.06-17.6,0-26.41,0-1.66.47-2.33,2.22-2.29,4.88.1,9.77-.07,14.64.13a16.71,16.71,0,0,1,6.05,1.35c5.74,2.55,6.18,8.41,1.08,12.07C87.35,166.56,87.1,166.79,86.51,167.29ZM68.72,169.1c0,3.72,0,6.76,0,9.79,0,.43.64,1.22,1,1.21,4.94-.17,9.91-.2,14.82-.79,2.23-.27,3.33-2.43,3.25-4.76s-1.39-4-3.53-4.28C79.21,169.67,74.11,169.48,68.72,169.1Zm.2-3.65c4.7,0,9,.17,13.38-.07a3.88,3.88,0,0,0,3.84-3.92c.12-2.32-1.07-4.18-3.22-4.43-4.61-.55-9.29-.6-14-.85Z"/><path class="cls-2" d="M99.39,135.79v-2.7q0-44.19,0-88.39c0-1.42-.24-2.75,2-2.81,2.46-.06,2.09,1.48,2.09,2.93q0,43.93,0,87.88C103.44,136.32,103.46,136.32,99.39,135.79Z"/><path class="cls-2" d="M176.54,42.4v93.22c-3.49,1-3.92.76-3.92-2.55V45.17C172.62,41.65,172.82,41.5,176.54,42.4Z"/><path class="cls-2" d="M157,42.06h3.67V136H157Z"/><path class="cls-2" d="M181,223.45c-1.83.21-4.06,1-5-2.22-1.67.69-3.2,1.7-4.84,1.91a38.4,38.4,0,0,1-9.5.42c-3.67-.45-5.63-2.91-5.67-5.81,0-2.63,2-5.07,5.31-6a51.11,51.11,0,0,1,5.91-1.05c2.07-.31,4.17-.43,6.22-.84.81-.16,2.1-.81,2.14-1.32a4.53,4.53,0,0,0-.94-3.09c-2.3-2.55-9.91-2.18-12.06.45-1.9,2.31-1.9,2.31-5.46,1.45a6.28,6.28,0,0,1,4.35-5.22,22.59,22.59,0,0,1,14.14-.69c3.21.81,4.64,2.64,4.82,6,.11,2,0,4,.07,6C180.6,216.72,180.81,220,181,223.45Zm-5.69-10.81c-3.65.56-7.33,1.05-11,1.72-1.81.33-3.38,1.31-3.24,3.45a3.36,3.36,0,0,0,3.57,3.16,22,22,0,0,0,7.33-1C175.08,218.87,176.05,216.2,175.31,212.64Z"/><path class="cls-2" d="M68.68,208.27c.67-3.86,2.52-5.36,4.9-6.24a21.92,21.92,0,0,1,13.86-.47c3.45,1,4.55,2.43,4.71,6,.15,3.3.06,6.62.19,9.93.08,1.87.4,3.74.62,5.68-2.74,1.06-3.91.72-5.33-1.88-1.46.6-2.91,1.6-4.45,1.76a48.09,48.09,0,0,1-10.51.3,5.54,5.54,0,0,1-4.9-5.35c-.1-2.57,1.37-4.75,4.36-5.83A32.64,32.64,0,0,1,78,210.86c2.31-.38,4.68-.47,7-.91.88-.17,2.36-1,2.33-1.44a5.22,5.22,0,0,0-1.38-3.38c-3.09-2.59-9.61-1.38-12.31,1.63C72.72,207.72,70.74,207.68,68.68,208.27Zm18.4,4.26c-4.06.72-8,1.26-11.85,2.24a3.89,3.89,0,0,0-2.3,2.93,3.85,3.85,0,0,0,2.38,2.86,17.85,17.85,0,0,0,6.87.05C86.28,219.75,87.7,217.24,87.08,212.53Z"/><path class="cls-2" d="M145.93,173.61a6.33,6.33,0,0,0,2.9,6c3.75,2.59,9.92,2,12.44-1.8.65-1,3.08-.82,5.28-1.32a9.19,9.19,0,0,1-6.48,6.88,18.73,18.73,0,0,1-11.84,0c-4.89-1.55-7.36-5.18-7.44-10.47s2.47-9.28,7.16-11a16.47,16.47,0,0,1,12.25.13c3.94,1.64,6.06,4.75,6.55,9,.21,1.81-.37,2.46-2.27,2.42-5.14-.12-10.29-.06-15.43,0C148,173.45,147,173.55,145.93,173.61Zm.22-3.24c4.75,0,9.27,0,13.8,0a9.36,9.36,0,0,0,1.5-.23c-.16-3.63-2.81-6-6.74-6.17C149.76,163.77,146.66,166,146.15,170.37Z"/><path class="cls-2" d="M111.61,184.53c-6.61-.28-11.12-2.78-12.89-7.44-2.82-7.44,1.25-14.59,9.08-15.88a16.7,16.7,0,0,1,10.94,1.37c4.49,2.38,6,6.26,5.68,11.12-.33,4.53-2.48,7.75-6.81,9.27C115.67,183.65,113.62,184,111.61,184.53Zm-8.72-11.87c0,5.29,3.06,8.48,8.1,8.5,5.59,0,8.57-3.06,8.55-8.85,0-5.21-3.13-8.37-8.22-8.36C105.9,164,102.86,167.11,102.89,172.66Z"/><path class="cls-2" d="M201,184.2c-11.79.08-17.58-7.69-13.8-16.71l.2-.48c2.64-5.56,12.45-8,19-4.74a11.66,11.66,0,0,1,4.87,16.32C208.71,183,204.29,184,201,184.2Zm-9.84-11.78c0,5.44,3.08,8.75,8.14,8.76,5.56,0,8.53-3.11,8.51-8.92,0-5.28-3.14-8.32-8.54-8.31C194.14,164,191.11,167.14,191.11,172.42Z"/><path class="cls-2" d="M243,213c.19,8.43-7.56,11.52-14.33,11.12-8.05-.48-12.47-5.24-12-13,.42-6.7,6.07-10.77,14.36-10.35C238.72,201.15,243.36,205.88,243,213Zm-13.29-9.14c-5,0-8.17,3.25-8.21,8.42,0,5.43,3.21,8.86,8.38,8.84s8.34-3.3,8.37-8.58S235,203.81,229.69,203.82Z"/><path class="cls-2" d="M103.8,201.43l.43,2.13c.35-.07.64,0,.82-.17,3.78-2.89,8-3.24,12.4-2,3.31,1,5.1,2.83,5.22,6.32.18,5.13,0,10.27,0,15.6l-2,.28c-2,.32-2.8-.39-2.7-2.55.17-3.74.09-7.49,0-11.24s-1.74-5.62-5.5-5.85c-4.2-.26-7.5,1.79-7.77,5.25-.32,4-.31,8-.24,12,0,1.85-.59,2.44-2.38,2.45s-2.41-.61-2.38-2.43c.11-5.5.06-11,.06-16.49C99.82,201,99.81,201,103.8,201.43Z"/><path class="cls-2" d="M152.54,207.76c-2.34.49-4,.44-5.68-1.75-2.82-3.73-9.66-2.78-12.1,1.34-1.71,2.88-1.48,8.48.46,11a8.22,8.22,0,0,0,9.26,2.23,7.67,7.67,0,0,0,3.21-2.47c1.89-2.58,1.79-2.66,5.12-2,.58,4.35-5.33,7.71-9.78,8-7.89.53-13.45-3.26-14.15-9.85-.81-7.69,3-12.46,10.82-13.42C145.33,200.13,152.2,202.37,152.54,207.76Z"/><path class="cls-2" d="M183.42,183.83a38.44,38.44,0,0,1-5.88-.06c-2.65-.41-3.75-2-3.82-5.1-.09-4-.08-8,0-12,0-1.5-.11-2.55-2-2.49-.49,0-1-1-1.53-1.48.58-.44,1.14-1.22,1.74-1.26,1.33-.08,2.07-.57,1.79-1.88-.74-3.48,1.39-4.79,4.69-5.83,0,1.61.11,3.11,0,4.59-.22,2.33.54,3.47,3,3.08a6.7,6.7,0,0,1,1.67.18c.76,4.33-3.21,1.78-4.62,3.51,0,4.11,0,8.62,0,13.13a2.17,2.17,0,0,0,2.55,2.32C183.26,180.38,183.87,181.47,183.42,183.83Z"/><path class="cls-2" d="M191.83,201.43l.7,2.28c4.38-3.43,6.91-3.81,10.38-1.58-.29,2.07-1,3.13-3.55,2.65-3.74-.7-6,1-6.33,4.73a99.62,99.62,0,0,0-.33,11.72c0,2.11-.89,2.42-2.65,2.45s-2.16-.76-2.14-2.37c.08-5.57,0-11.14,0-16.71C187.94,201,187.94,201,191.83,201.43Z"/><path class="cls-2" d="M134.63,183.5c-4.53.61-4.54.61-4.54-3.54,0-8.19,0-16.37,0-24.55,0-1.79.34-2.62,2.42-2.65s2.35,1,2.34,2.69c-.06,8.53,0,17.06,0,25.59C134.79,181.88,134.68,182.71,134.63,183.5Z"/><path class="cls-2" d="M210.79,201.57v21.67c-4.39.93-4.56.79-4.56-3.49q0-7.44,0-14.87C206.24,200.86,206.33,200.8,210.79,201.57Z"/><path class="cls-2" d="M175.23,193c-2.52,2-3.59,6.31-8.19,5.19C168.46,193,169.63,192.21,175.23,193Z"/><path class="cls-2" d="M210.85,192.5v4.61a17.54,17.54,0,0,1-4.37-.86c-.39-.18-.41-2.58,0-2.81C207.66,192.81,209.16,192.81,210.85,192.5Z"/></g></g></svg>