<svg xmlns="http://www.w3.org/2000/svg" viewBox="0 0 266 266"><defs><style>.cls-1{fill:#939598;}.cls-2{fill:#32bcad;}</style></defs><title>pix cor 300x300</title><g id="Layer_2" data-name="Layer 2"><g id="Layer_1-2" data-name="Layer 1"><path d="M244.48,266h-223A21.54,21.54,0,0,1,0,244.48v-223A21.54,21.54,0,0,1,21.52,0h223A21.54,21.54,0,0,1,266,21.52v223A21.54,21.54,0,0,1,244.48,266ZM21.52,3A18.54,18.54,0,0,0,3,21.52v223A18.54,18.54,0,0,0,21.52,263h223A18.54,18.54,0,0,0,263,244.48v-223A18.54,18.54,0,0,0,244.48,3Z"/><g id="g964"><g id="g966"><g id="g972"><g id="path974"><path class="cls-1" d="M113.53,168.2a1.38,1.38,0,0,1-1.38-1.38V122.1a16.29,16.29,0,0,1,16.27-16.27l13.21,0a16.28,16.28,0,0,1,16.22,16.25v9.52a16.29,16.29,0,0,1-16.27,16.27H122.92a1.38,1.38,0,1,1,0-2.75h18.66a13.54,13.54,0,0,0,13.52-13.52V122.1a13.53,13.53,0,0,0-13.48-13.5l-13.2,0A13.54,13.54,0,0,0,114.9,122.1v44.72A1.37,1.37,0,0,1,113.53,168.2Z"/></g></g><g id="g976"><g id="path978"><path class="cls-1" d="M172,148.09a1.37,1.37,0,0,1-1.37-1.37V113.31a4.74,4.74,0,0,0-4.74-4.73h-5.73a1.38,1.38,0,0,1,0-2.76h5.73a7.5,7.5,0,0,1,7.49,7.49v33.41A1.37,1.37,0,0,1,172,148.09Z"/></g></g><g id="g980"><g id="path982"><path class="cls-2" d="M170.78,102l-2.6-2.59a1.65,1.65,0,0,1,0-2.34l2.59-2.59a1.65,1.65,0,0,1,2.34,0l2.6,2.59a1.67,1.67,0,0,1,0,2.34l-2.6,2.59a1.64,1.64,0,0,1-2.33,0"/></g></g><g id="g984"><g id="path986"><path class="cls-1" d="M212.86,126.35a5.74,5.74,0,0,1-4.09-1.7l-13.28-13.28a9.57,9.57,0,0,0-6.82-2.82H183a1.38,1.38,0,0,1,0-2.76h5.68a12.35,12.35,0,0,1,8.77,3.63l13.28,13.29a3,3,0,0,0,4.28,0l13.24-13.24a12.31,12.31,0,0,1,8.77-3.63h4.61a1.38,1.38,0,1,1,0,2.75H237a9.58,9.58,0,0,0-6.82,2.83L217,124.65A5.71,5.71,0,0,1,212.86,126.35Z"/></g></g><g id="g988"><g id="path990"><path class="cls-1" d="M188.67,147.8H183a1.38,1.38,0,0,1,0-2.75h5.68a9.54,9.54,0,0,0,6.82-2.83l13.28-13.28a5.78,5.78,0,0,1,8.18,0l13.24,13.24A9.57,9.57,0,0,0,237,145h4.61a1.38,1.38,0,1,1,0,2.75H237a12.31,12.31,0,0,1-8.77-3.63L215,130.89a3,3,0,0,0-4.28,0l-13.28,13.28A12.35,12.35,0,0,1,188.67,147.8Z"/></g></g><g id="g992"><g id="path994"><path class="cls-2" d="M79.66,154.91a10.6,10.6,0,0,1-7.54-3.12l-10.9-10.9a2.07,2.07,0,0,0-2.87,0L47.42,151.83A10.64,10.64,0,0,1,39.87,155H37.72l13.8,13.8a11,11,0,0,0,15.61,0L81,154.91Z"/></g></g><g id="g996"><g id="path998"><path class="cls-2" d="M39.87,116.36a10.61,10.61,0,0,1,7.55,3.13l10.93,10.94a2,2,0,0,0,2.87,0l10.9-10.9a10.57,10.57,0,0,1,7.54-3.13H81L67.13,102.56a11,11,0,0,0-15.61,0l-13.8,13.8Z"/></g></g><g id="g1000"><g id="path1002"><path class="cls-2" d="M92.43,127.85l-8.37-8.36a1.63,1.63,0,0,1-.59.12H79.66a7.53,7.53,0,0,0-5.28,2.19L63.49,132.69a5.25,5.25,0,0,1-7.4,0L45.15,121.76a7.51,7.51,0,0,0-5.28-2.19H35.19a1.74,1.74,0,0,1-.56-.11l-8.4,8.39a11,11,0,0,0,0,15.61l8.4,8.4a1.51,1.51,0,0,1,.56-.11h4.68a7.51,7.51,0,0,0,5.28-2.19l10.94-10.94a5.37,5.37,0,0,1,7.4,0l10.89,10.9a7.53,7.53,0,0,0,5.28,2.19h3.81a1.45,1.45,0,0,1,.59.12l8.37-8.37a11,11,0,0,0,0-15.61"/></g></g><g id="g1004"><g id="path1006"><path class="cls-1" d="M124.88,163a9.91,9.91,0,0,0-2,.31v2.73a4.79,4.79,0,0,0,1.6.26c1.36,0,2-.46,2-1.66s-.53-1.64-1.56-1.64m-2.51,5.06v-5.39h.38l0,.24a10.52,10.52,0,0,1,2.13-.35,2.12,2.12,0,0,1,1.4.41,2,2,0,0,1,.61,1.67,1.86,1.86,0,0,1-.87,1.73,3.4,3.4,0,0,1-1.59.35,5.54,5.54,0,0,1-1.64-.25v1.59Z"/></g></g><g id="g1008"><g id="path1010"><path class="cls-1" d="M130.36,163c-1.36,0-2,.43-2,1.64s.6,1.68,2,1.68,2-.42,2-1.62-.6-1.7-2-1.7m1.76,3.32a2.94,2.94,0,0,1-1.76.42,3,3,0,0,1-1.76-.42,1.88,1.88,0,0,1-.7-1.65,1.93,1.93,0,0,1,.7-1.67,3.9,3.9,0,0,1,3.52,0,2.32,2.32,0,0,1,0,3.32"/></g></g><g id="g1012"><g id="path1014"><path class="cls-1" d="M138.59,166.64l-1.52-3.28h0l-1.5,3.28h-.42l-1.62-3.95H134l1.35,3.31h0l1.47-3.31h.42l1.51,3.31h0l1.32-3.31h.49L139,166.64Z"/></g></g><g id="g1016"><g id="path1018"><path class="cls-1" d="M143.57,163c-1.26,0-1.69.56-1.77,1.37h3.55c0-.9-.5-1.37-1.78-1.37m0,3.74a2.37,2.37,0,0,1-1.64-.43,2.06,2.06,0,0,1-.62-1.64A2,2,0,0,1,142,163a2.64,2.64,0,0,1,1.53-.4,2.76,2.76,0,0,1,1.58.39,2,2,0,0,1,.68,1.81h-4c0,.82.28,1.54,1.81,1.54a11.89,11.89,0,0,0,2-.23v.41a11.94,11.94,0,0,1-2.08.24"/></g></g><g id="g1020"><g id="path1022"><path class="cls-1" d="M147.15,166.64v-3.95h.38l0,.24a6.94,6.94,0,0,1,2-.35h.05V163h-.11a6.28,6.28,0,0,0-1.85.31v3.31Z"/></g></g><g id="g1024"><g id="path1026"><path class="cls-1" d="M152.26,163c-1.27,0-1.7.56-1.77,1.37H154c0-.9-.5-1.37-1.77-1.37m0,3.74a2.38,2.38,0,0,1-1.64-.43,2.41,2.41,0,0,1,.12-3.33,2.69,2.69,0,0,1,1.54-.4,2.77,2.77,0,0,1,1.58.39,2,2,0,0,1,.68,1.81h-4.05c0,.82.28,1.54,1.81,1.54a11.67,11.67,0,0,0,2-.23v.41a11.72,11.72,0,0,1-2.08.24"/></g></g><g id="g1028"><g id="path1030"><path class="cls-1" d="M159.56,163.27A4.7,4.7,0,0,0,158,163c-1.37,0-2,.46-2,1.67s.53,1.64,1.56,1.64a9.82,9.82,0,0,0,2-.31Zm.09,3.37,0-.24a10.61,10.61,0,0,1-2.13.34,2.11,2.11,0,0,1-1.4-.4,2.05,2.05,0,0,1-.62-1.67,1.86,1.86,0,0,1,.88-1.73,3.26,3.26,0,0,1,1.59-.36,6.14,6.14,0,0,1,1.63.25V161H160v5.61Z"/></g></g><g id="g1032"><g id="path1034"><path class="cls-1" d="M166.78,163a9.82,9.82,0,0,0-2,.31v2.72a4.51,4.51,0,0,0,1.59.27c1.37,0,2-.46,2-1.66s-.53-1.64-1.56-1.64m1.18,3.37a3.36,3.36,0,0,1-1.58.35,5.75,5.75,0,0,1-1.77-.29l0,.19h-.32V161h.47v1.88a11.09,11.09,0,0,1,2.08-.33,2.12,2.12,0,0,1,1.4.41,2.05,2.05,0,0,1,.62,1.67,1.87,1.87,0,0,1-.88,1.73"/></g></g><g id="g1036"><g id="path1038"><path class="cls-1" d="M169.45,168.15v-.43c.22,0,.43,0,.58,0a1.2,1.2,0,0,0,1.24-.81l.15-.31-2.07-3.95h.53l1.77,3.41h0l1.68-3.41h.52l-2.21,4.43a1.62,1.62,0,0,1-1.65,1.07,5.66,5.66,0,0,1-.57,0"/></g></g><g id="g1040"><g id="path1042"><path class="cls-1" d="M180.23,164.39H178.7v1.38h1.54c1.06,0,1.45-.12,1.45-.7s-.54-.68-1.46-.68m-.28-2.25H178.7v1.41H180c1,0,1.45-.12,1.45-.71s-.52-.7-1.46-.7m2.38,4.12a4.55,4.55,0,0,1-2.49.38h-2.33v-5.35h2.28a4.33,4.33,0,0,1,2.27.34,1.13,1.13,0,0,1,.55,1.06,1.18,1.18,0,0,1-.85,1.19v0c.69.16,1.14.51,1.14,1.27a1.15,1.15,0,0,1-.57,1.08"/></g></g><g id="g1044"><g id="path1046"><path class="cls-1" d="M187.57,165c-.46,0-.93-.06-1.42-.06-.81,0-1.09.16-1.09.53s.24.53.85.53a7.92,7.92,0,0,0,1.66-.24Zm.23,1.66,0-.24a9.18,9.18,0,0,1-2.14.34,2.06,2.06,0,0,1-1.19-.28,1.23,1.23,0,0,1,.22-2,3.74,3.74,0,0,1,1.48-.21c.41,0,1,0,1.43.06v-.07c0-.62-.41-.82-1.52-.82-.43,0-1,0-1.45.07v-.8c.56,0,1.18-.08,1.7-.08a3.36,3.36,0,0,1,1.83.37,1.46,1.46,0,0,1,.54,1.35v2.34Z"/></g></g><g id="g1048"><g id="path1050"><path class="cls-1" d="M193.82,166.64v-2.18c0-.72-.37-1-1-1a7.08,7.08,0,0,0-1.61.25v2.91h-1.1v-3.95H191l0,.25a9.15,9.15,0,0,1,2.11-.36,1.91,1.91,0,0,1,1.35.41,1.5,1.5,0,0,1,.43,1.23v2.42Z"/></g></g><g id="g1052"><g id="path1054"><path class="cls-1" d="M198,166.74a2.23,2.23,0,0,1-1.46-.41,2,2,0,0,1-.63-1.67,1.92,1.92,0,0,1,.8-1.69,3.17,3.17,0,0,1,1.74-.39,13.57,13.57,0,0,1,1.39.08v.84c-.4,0-.88-.07-1.26-.07-1,0-1.54.33-1.54,1.24s.37,1.22,1.23,1.22a9.2,9.2,0,0,0,1.65-.21v.81a9.44,9.44,0,0,1-1.92.25"/></g></g><g id="g1056"><g id="path1058"><path class="cls-1" d="M203.2,163.41c-1,0-1.51.33-1.51,1.23s.45,1.28,1.51,1.28,1.49-.32,1.49-1.22-.45-1.29-1.49-1.29m1.89,2.92a3.32,3.32,0,0,1-1.89.41,3.37,3.37,0,0,1-1.9-.41,2.24,2.24,0,0,1,0-3.33,4.49,4.49,0,0,1,3.79,0,2.26,2.26,0,0,1,0,3.33"/></g></g><g id="g1060"><g id="path1062"><path class="cls-1" d="M212.18,166.74a2.94,2.94,0,0,1-1.92-.55,2.75,2.75,0,0,1-.84-2.23,2.63,2.63,0,0,1,1.09-2.28,4.1,4.1,0,0,1,2.26-.5c.6,0,1.21,0,1.87.09v1c-.57,0-1.27-.09-1.82-.09-1.52,0-2.17.58-2.17,1.82s.6,1.82,1.72,1.82a12.39,12.39,0,0,0,2.39-.32v.95a13.69,13.69,0,0,1-2.58.33"/></g></g><g id="g1064"><g id="path1066"><path class="cls-1" d="M218,163.28c-.91,0-1.26.33-1.33.93h2.65c0-.64-.4-.93-1.32-.93m-.16,3.46a2.53,2.53,0,0,1-1.67-.43,2,2,0,0,1-.64-1.65,2,2,0,0,1,.75-1.66,2.87,2.87,0,0,1,1.72-.42,3,3,0,0,1,1.71.4c.64.45.69,1.13.7,2h-3.75c0,.6.34,1,1.45,1a13.11,13.11,0,0,0,2.1-.21v.78a15.48,15.48,0,0,1-2.37.25"/></g></g><g id="g1068"><g id="path1070"><path class="cls-1" d="M225.3,166.64v-2.18c0-.72-.37-1-1-1a7.25,7.25,0,0,0-1.61.25v2.91h-1.1v-3.95h.9l0,.25a9.15,9.15,0,0,1,2.11-.36A1.92,1.92,0,0,1,226,163a1.53,1.53,0,0,1,.43,1.23v2.42Z"/></g></g><g id="g1072"><g id="path1074"><path class="cls-1" d="M229.52,166.74a1.42,1.42,0,0,1-1.28-.56A2.07,2.07,0,0,1,228,165v-1.48h-.79v-.82H228l.12-1.19h1v1.19h1.55v.82h-1.55v1.27a1.83,1.83,0,0,0,.11.75c.11.26.37.36.72.36a6.11,6.11,0,0,0,.78-.07v.78a6.13,6.13,0,0,1-1.14.14"/></g></g><g id="g1076"><g id="path1078"><path class="cls-1" d="M231.68,166.64v-3.95h.89l0,.25a7,7,0,0,1,2-.36h.14v.94h-.39a6.15,6.15,0,0,0-1.54.2v2.92Z"/></g></g><g id="g1080"><g id="path1082"><path class="cls-1" d="M238.71,165c-.46,0-.93-.06-1.42-.06-.81,0-1.09.16-1.09.53s.24.53.85.53a7.92,7.92,0,0,0,1.66-.24Zm.23,1.66,0-.24a9.18,9.18,0,0,1-2.14.34,2.06,2.06,0,0,1-1.19-.28,1.23,1.23,0,0,1,.22-2,3.74,3.74,0,0,1,1.48-.21c.41,0,1,0,1.43.06v-.07c0-.62-.41-.82-1.52-.82-.42,0-.95,0-1.45.07v-.8c.56,0,1.18-.08,1.7-.08a3.34,3.34,0,0,1,1.83.37,1.46,1.46,0,0,1,.54,1.35v2.34Z"/></g></g><g id="path1084"><path class="cls-1" d="M241.23,161h1.1v5.61h-1.1Z"/></g></g></g></g></g></svg>