<svg xmlns="http://www.w3.org/2000/svg" viewBox="0 0 220 77.97"><defs><style>.cls-1{fill:#fff;}</style></defs><title>pix branco</title><g id="Layer_2" data-name="Layer 2"><g id="Layer_1-2" data-name="Layer 1"><g id="g964"><g id="g966"><g id="g972"><g id="path974"><path class="cls-1" d="M90.53,74.18a1.37,1.37,0,0,1-1.38-1.37V28.09a16.29,16.29,0,0,1,16.27-16.27l13.21,0a16.27,16.27,0,0,1,16.22,16.25v9.52a16.29,16.29,0,0,1-16.27,16.27H99.92a1.38,1.38,0,1,1,0-2.75h18.66A13.54,13.54,0,0,0,132.1,37.61V28.09a13.52,13.52,0,0,0-13.48-13.5l-13.2,0A13.54,13.54,0,0,0,91.9,28.09V72.81A1.37,1.37,0,0,1,90.53,74.18Z"/></g></g><g id="g976"><g id="path978"><path class="cls-1" d="M149,54.08a1.37,1.37,0,0,1-1.37-1.38V19.3a4.75,4.75,0,0,0-4.74-4.74h-5.73a1.38,1.38,0,0,1,0-2.75h5.73a7.5,7.5,0,0,1,7.49,7.49V52.7A1.38,1.38,0,0,1,149,54.08Z"/></g></g><g id="g980"><g id="path982"><path class="cls-1" d="M147.78,8l-2.6-2.6a1.64,1.64,0,0,1,0-2.33l2.59-2.6a1.67,1.67,0,0,1,2.34,0l2.6,2.6a1.65,1.65,0,0,1,0,2.33L150.11,8a1.64,1.64,0,0,1-2.33,0"/></g></g><g id="g984"><g id="path986"><path class="cls-1" d="M189.86,32.34a5.78,5.78,0,0,1-4.09-1.7L172.49,17.36a9.58,9.58,0,0,0-6.82-2.83H160a1.38,1.38,0,0,1,0-2.75h5.68a12.35,12.35,0,0,1,8.77,3.63l13.28,13.28a3,3,0,0,0,4.28,0l13.24-13.23A12.31,12.31,0,0,1,214,11.83h4.61a1.38,1.38,0,1,1,0,2.75H214a9.58,9.58,0,0,0-6.82,2.83L194,30.64A5.75,5.75,0,0,1,189.86,32.34Z"/></g></g><g id="g988"><g id="path990"><path class="cls-1" d="M165.67,53.79H160A1.38,1.38,0,0,1,160,51h5.68a9.58,9.58,0,0,0,6.82-2.83l13.28-13.28a5.78,5.78,0,0,1,8.18,0l13.24,13.23A9.58,9.58,0,0,0,214,51h4.61a1.38,1.38,0,1,1,0,2.75H214a12.31,12.31,0,0,1-8.77-3.63L192,36.87a3,3,0,0,0-4.28,0L174.44,50.16A12.35,12.35,0,0,1,165.67,53.79Z"/></g></g><g id="g992"><g id="path994"><path class="cls-1" d="M56.66,60.9a10.57,10.57,0,0,1-7.54-3.13L38.22,46.88a2.07,2.07,0,0,0-2.87,0L24.42,57.81a10.61,10.61,0,0,1-7.55,3.13H14.72l13.8,13.8a11,11,0,0,0,15.61,0L58,60.9Z"/></g></g><g id="g996"><g id="path998"><path class="cls-1" d="M16.87,22.35a10.61,10.61,0,0,1,7.55,3.13L35.35,36.42a2,2,0,0,0,2.87,0l10.9-10.9a10.57,10.57,0,0,1,7.54-3.13H58L44.13,8.55a11,11,0,0,0-15.61,0l-13.8,13.8Z"/></g></g><g id="g1000"><g id="path1002"><path class="cls-1" d="M69.43,33.84l-8.37-8.36a1.63,1.63,0,0,1-.59.12H56.66a7.52,7.52,0,0,0-5.28,2.18L40.49,38.68a5.24,5.24,0,0,1-7.4,0L22.15,27.74a7.5,7.5,0,0,0-5.28-2.18H12.19a1.52,1.52,0,0,1-.56-.12l-8.4,8.4a11,11,0,0,0,0,15.61l8.4,8.4a1.52,1.52,0,0,1,.56-.12h4.68a7.5,7.5,0,0,0,5.28-2.18L33.09,44.61a5.35,5.35,0,0,1,7.4,0l10.89,10.9a7.53,7.53,0,0,0,5.28,2.19h3.81a1.63,1.63,0,0,1,.59.11l8.37-8.36a11,11,0,0,0,0-15.61"/></g></g><g id="g1004"><g id="path1006"><path class="cls-1" d="M101.88,69a9.91,9.91,0,0,0-2,.31V72a4.8,4.8,0,0,0,1.6.27c1.36,0,2-.46,2-1.66S102.91,69,101.88,69m-2.51,5.06V68.68h.38l0,.23a10.5,10.5,0,0,1,2.13-.34,2.12,2.12,0,0,1,1.4.41,2,2,0,0,1,.61,1.67,1.87,1.87,0,0,1-.87,1.73,3.4,3.4,0,0,1-1.59.35,5.54,5.54,0,0,1-1.64-.25v1.59Z"/></g></g><g id="g1008"><g id="path1010"><path class="cls-1" d="M107.36,69c-1.36,0-2,.43-2,1.63s.6,1.69,2,1.69,2-.42,2-1.62-.6-1.7-2-1.7m1.76,3.32a2.94,2.94,0,0,1-1.76.42,3,3,0,0,1-1.76-.42,1.89,1.89,0,0,1-.7-1.66,1.92,1.92,0,0,1,.7-1.66,3.9,3.9,0,0,1,3.52,0,2.32,2.32,0,0,1,0,3.32"/></g></g><g id="g1012"><g id="path1014"><path class="cls-1" d="M115.59,72.62l-1.52-3.27h0l-1.5,3.27h-.42l-1.62-3.94H111L112.36,72h0l1.47-3.31h.42L115.79,72h0l1.32-3.31h.49L116,72.62Z"/></g></g><g id="g1016"><g id="path1018"><path class="cls-1" d="M120.57,69c-1.26,0-1.69.57-1.77,1.38h3.55c0-.9-.5-1.38-1.78-1.38m0,3.75a2.36,2.36,0,0,1-1.64-.44A2.37,2.37,0,0,1,119,69a2.57,2.57,0,0,1,1.53-.4,2.75,2.75,0,0,1,1.58.38,2,2,0,0,1,.68,1.82h-4c0,.81.28,1.53,1.81,1.53a13,13,0,0,0,2-.22v.41a11.94,11.94,0,0,1-2.08.24"/></g></g><g id="g1020"><g id="path1022"><path class="cls-1" d="M124.15,72.62V68.68h.38l0,.23a6.91,6.91,0,0,1,2-.34h0V69h-.11a6.28,6.28,0,0,0-1.85.31v3.3Z"/></g></g><g id="g1024"><g id="path1026"><path class="cls-1" d="M129.26,69c-1.27,0-1.7.57-1.77,1.38H131c0-.9-.5-1.38-1.77-1.38m0,3.75a2.38,2.38,0,0,1-1.64-.44,2,2,0,0,1-.61-1.64,2,2,0,0,1,.73-1.68,2.62,2.62,0,0,1,1.54-.4,2.76,2.76,0,0,1,1.58.38,2,2,0,0,1,.68,1.82h-4.05c0,.81.28,1.53,1.81,1.53a12.75,12.75,0,0,0,2-.22v.41a11.72,11.72,0,0,1-2.08.24"/></g></g><g id="g1028"><g id="path1030"><path class="cls-1" d="M136.56,69.26A4.7,4.7,0,0,0,135,69c-1.37,0-2,.46-2,1.66s.53,1.64,1.56,1.64a9.77,9.77,0,0,0,2-.3Zm.09,3.36,0-.23a10.61,10.61,0,0,1-2.13.34,2.11,2.11,0,0,1-1.4-.4,2.07,2.07,0,0,1-.62-1.68,1.85,1.85,0,0,1,.88-1.72,3.26,3.26,0,0,1,1.59-.36,5.76,5.76,0,0,1,1.63.25V67H137v5.6Z"/></g></g><g id="g1032"><g id="path1034"><path class="cls-1" d="M143.78,69a9.82,9.82,0,0,0-2,.31V72a4.74,4.74,0,0,0,1.59.27c1.37,0,2-.46,2-1.66S144.81,69,143.78,69M145,72.38a3.36,3.36,0,0,1-1.58.35,5.48,5.48,0,0,1-1.77-.3l0,.19h-.32V67h.47V68.9a11.09,11.09,0,0,1,2.08-.33,2.12,2.12,0,0,1,1.4.41,2,2,0,0,1,.62,1.67,1.88,1.88,0,0,1-.88,1.73"/></g></g><g id="g1036"><g id="path1038"><path class="cls-1" d="M146.45,74.14v-.43c.22,0,.43,0,.58,0a1.21,1.21,0,0,0,1.24-.82l.15-.31-2.07-3.94h.53l1.77,3.4h0l1.68-3.4h.52l-2.21,4.43A1.62,1.62,0,0,1,147,74.18a5.66,5.66,0,0,1-.57,0"/></g></g><g id="g1040"><g id="path1042"><path class="cls-1" d="M157.23,70.37H155.7v1.39h1.54c1.06,0,1.45-.12,1.45-.7s-.54-.69-1.46-.69M157,68.13H155.7v1.41H157c1,0,1.45-.13,1.45-.71s-.52-.7-1.46-.7m2.38,4.12a4.57,4.57,0,0,1-2.49.37h-2.33V67.27h2.28a4.32,4.32,0,0,1,2.27.35,1.13,1.13,0,0,1,.55,1.06,1.18,1.18,0,0,1-.85,1.19v0a1.22,1.22,0,0,1,1.14,1.26,1.17,1.17,0,0,1-.57,1.09"/></g></g><g id="g1044"><g id="path1046"><path class="cls-1" d="M164.57,71c-.46,0-.93-.07-1.42-.07-.81,0-1.09.17-1.09.54s.24.53.85.53a7.92,7.92,0,0,0,1.66-.24Zm.23,1.65,0-.23a9.74,9.74,0,0,1-2.14.34,2,2,0,0,1-1.19-.29,1.1,1.1,0,0,1-.44-1,1.11,1.11,0,0,1,.66-1.07,3.57,3.57,0,0,1,1.48-.21c.41,0,1,0,1.43.05v-.07c0-.61-.41-.82-1.52-.82-.43,0-1,0-1.45.07v-.79c.56-.05,1.18-.08,1.7-.08a3.27,3.27,0,0,1,1.83.37,1.46,1.46,0,0,1,.54,1.35v2.33Z"/></g></g><g id="g1048"><g id="path1050"><path class="cls-1" d="M170.82,72.62V70.44c0-.71-.37-1-1-1a7.08,7.08,0,0,0-1.61.25v2.9h-1.1V68.68H168l0,.25a9.15,9.15,0,0,1,2.11-.36,1.91,1.91,0,0,1,1.35.41,1.5,1.5,0,0,1,.43,1.23v2.41Z"/></g></g><g id="g1052"><g id="path1054"><path class="cls-1" d="M175,72.73a2.23,2.23,0,0,1-1.46-.41,2,2,0,0,1-.63-1.67,1.92,1.92,0,0,1,.8-1.69,3.17,3.17,0,0,1,1.74-.39,13.57,13.57,0,0,1,1.39.08v.84c-.4,0-.88-.07-1.26-.07-1,0-1.54.33-1.54,1.23s.37,1.22,1.23,1.22a9.14,9.14,0,0,0,1.65-.2v.81a9.44,9.44,0,0,1-1.92.25"/></g></g><g id="g1056"><g id="path1058"><path class="cls-1" d="M180.2,69.4c-1,0-1.51.33-1.51,1.22s.45,1.28,1.51,1.28,1.49-.32,1.49-1.21-.45-1.29-1.49-1.29m1.89,2.92a3.32,3.32,0,0,1-1.89.41,3.37,3.37,0,0,1-1.9-.41,2.25,2.25,0,0,1,0-3.34,4.58,4.58,0,0,1,3.79,0,2.28,2.28,0,0,1,0,3.34"/></g></g><g id="g1060"><g id="path1062"><path class="cls-1" d="M189.18,72.73a3,3,0,0,1-1.92-.55,2.76,2.76,0,0,1-.84-2.24,2.62,2.62,0,0,1,1.09-2.27,4.1,4.1,0,0,1,2.26-.51c.6,0,1.21,0,1.87.1v1c-.57,0-1.27-.09-1.82-.09-1.52,0-2.17.58-2.17,1.81s.6,1.82,1.72,1.82a12.39,12.39,0,0,0,2.39-.32v1a13.69,13.69,0,0,1-2.58.33"/></g></g><g id="g1064"><g id="path1066"><path class="cls-1" d="M195,69.27c-.91,0-1.26.33-1.33.93h2.65c0-.64-.4-.93-1.32-.93m-.16,3.46a2.53,2.53,0,0,1-1.67-.44,2.32,2.32,0,0,1,.11-3.31,2.94,2.94,0,0,1,1.72-.41,3,3,0,0,1,1.71.4c.64.44.69,1.13.7,1.94h-3.75c0,.6.34,1,1.45,1a14.37,14.37,0,0,0,2.1-.2v.77a14.33,14.33,0,0,1-2.37.26"/></g></g><g id="g1068"><g id="path1070"><path class="cls-1" d="M202.3,72.62V70.44c0-.71-.37-1-1-1a7.25,7.25,0,0,0-1.61.25v2.9h-1.1V68.68h.9l0,.25a9.15,9.15,0,0,1,2.11-.36A1.92,1.92,0,0,1,203,69a1.53,1.53,0,0,1,.43,1.23v2.41Z"/></g></g><g id="g1072"><g id="path1074"><path class="cls-1" d="M206.52,72.73a1.44,1.44,0,0,1-1.28-.56A2.08,2.08,0,0,1,205,71V69.5h-.79v-.82H205l.12-1.2h1v1.2h1.55v.82h-1.55v1.26a1.77,1.77,0,0,0,.11.75c.11.27.37.37.72.37a4.67,4.67,0,0,0,.78-.08v.79a6.13,6.13,0,0,1-1.14.14"/></g></g><g id="g1076"><g id="path1078"><path class="cls-1" d="M208.68,72.62V68.68h.89l0,.25a7,7,0,0,1,2-.36h.14v.93h-.39a6.15,6.15,0,0,0-1.54.2v2.91Z"/></g></g><g id="g1080"><g id="path1082"><path class="cls-1" d="M215.71,71c-.46,0-.93-.07-1.42-.07-.81,0-1.09.17-1.09.54s.24.53.85.53a7.92,7.92,0,0,0,1.66-.24Zm.23,1.65,0-.23a9.74,9.74,0,0,1-2.14.34,2,2,0,0,1-1.19-.29,1.1,1.1,0,0,1-.44-1,1.11,1.11,0,0,1,.66-1.07,3.57,3.57,0,0,1,1.48-.21c.41,0,1,0,1.43.05v-.07c0-.61-.41-.82-1.52-.82-.42,0-.95,0-1.45.07v-.79c.56-.05,1.18-.08,1.7-.08a3.25,3.25,0,0,1,1.83.37,1.46,1.46,0,0,1,.54,1.35v2.33Z"/></g></g><g id="path1084"><path class="cls-1" d="M218.23,67h1.1v5.6h-1.1Z"/></g></g></g></g></g></svg>