<svg xmlns="http://www.w3.org/2000/svg" viewBox="0 0 266 266"><defs><style>.cls-1,.cls-2{fill:#fff;}.cls-2{font-size:44.88px;font-family:BebasNeue-Bold, Bebas Neue;font-weight:700;}</style></defs><title>trans branco 300x300</title><g id="Layer_2" data-name="Layer 2"><g id="Layer_1-2" data-name="Layer 1"><path class="cls-1" d="M244.48,266h-223A21.54,21.54,0,0,1,0,244.48v-223A21.54,21.54,0,0,1,21.52,0h223A21.54,21.54,0,0,1,266,21.52v223A21.54,21.54,0,0,1,244.48,266ZM21.52,3A18.54,18.54,0,0,0,3,21.52v223A18.54,18.54,0,0,0,21.52,263h223A18.54,18.54,0,0,0,263,244.48v-223A18.54,18.54,0,0,0,244.48,3Z"/><text class="cls-2" transform="translate(24 186.67)">transferência<tspan x="37.49" y="40.77">bancária </tspan></text><polygon class="cls-1" points="181.49 65.24 157.16 55.65 132.83 46.05 108.5 55.65 84.17 65.24 84.17 76.55 181.49 76.55 181.49 65.24"/><path class="cls-1" d="M109.18,84.09a2.66,2.66,0,0,0,2.75-2.4,2.45,2.45,0,0,0-2.75-2.4H93.76A2.65,2.65,0,0,0,91,81.69a2.45,2.45,0,0,0,2.74,2.4h1v33.58h-1a2.65,2.65,0,0,0-2.74,2.4,2.45,2.45,0,0,0,2.74,2.4h15.42a2.66,2.66,0,0,0,2.75-2.4,2.45,2.45,0,0,0-2.75-2.4h-1V84.09Z"/><path class="cls-1" d="M140.71,84.09a2.42,2.42,0,1,0,0-4.8H125.29a2.65,2.65,0,0,0-2.74,2.4,2.45,2.45,0,0,0,2.74,2.4h1v33.58h-1a2.65,2.65,0,0,0-2.74,2.4,2.45,2.45,0,0,0,2.74,2.4h15.42a2.65,2.65,0,0,0,2.74-2.4,2.45,2.45,0,0,0-2.74-2.4h-1V84.09Z"/><path class="cls-1" d="M172.58,84.09a2.42,2.42,0,1,0,0-4.8H157.16a2.65,2.65,0,0,0-2.74,2.4,2.45,2.45,0,0,0,2.74,2.4h1v33.58h-1a2.65,2.65,0,0,0-2.74,2.4,2.45,2.45,0,0,0,2.74,2.4h15.42a2.65,2.65,0,0,0,2.74-2.4,2.45,2.45,0,0,0-2.74-2.4h-1V84.09Z"/><path class="cls-1" d="M86.91,130.69h92.18a2.34,2.34,0,0,0,2.4-2.39v-1a2.35,2.35,0,0,0-2.4-2.4H86.91a2.35,2.35,0,0,0-2.4,2.4v1.37c-.34,1,1,2.05,2.4,2.05Z"/><path class="cls-1" d="M185.6,133.44H80.4a2.34,2.34,0,0,0-2.4,2.39v1.72a2.35,2.35,0,0,0,2.4,2.4H185.6a2.35,2.35,0,0,0,2.4-2.4v-2.06a2.29,2.29,0,0,0-2.4-2.05Z"/></g></g></svg>