<svg xmlns="http://www.w3.org/2000/svg" viewBox="0 0 257.18 69.88"><defs><style>.cls-1{font-size:31.24px;font-family:BebasNeue-Bold, Bebas Neue;font-weight:700;letter-spacing:0.05em;}</style></defs><title>trans preto</title><g id="Layer_2" data-name="Layer 2"><g id="Layer_1-2" data-name="Layer 1"><text class="cls-1" transform="translate(85.12 35.91)">transferência<tspan x="0" y="28.38">bancária </tspan></text><polygon points="76.32 14.15 58.38 7.08 40.44 0 22.49 7.08 4.55 14.15 4.55 22.49 76.32 22.49 76.32 14.15"/><path d="M23,28.05a2,2,0,0,0,2-1.77,1.8,1.8,0,0,0-2-1.77H11.62a2,2,0,0,0-2,1.77,1.8,1.8,0,0,0,2,1.77h.76V52.82h-.76a2,2,0,0,0-2,1.77,1.8,1.8,0,0,0,2,1.77H23a2,2,0,0,0,2-1.77,1.8,1.8,0,0,0-2-1.77h-.76V28.05Z"/><path d="M46.25,28.05a2,2,0,0,0,2-1.77,2,2,0,0,0-2-1.77H34.87a2,2,0,0,0-2,1.77,1.8,1.8,0,0,0,2,1.77h.76V52.82h-.76a2,2,0,0,0-2,1.77,1.8,1.8,0,0,0,2,1.77H46.25a2,2,0,0,0,2-1.77,1.8,1.8,0,0,0-2-1.77h-.76V28.05Z"/><path d="M69.75,28.05a2,2,0,0,0,2-1.77,2,2,0,0,0-2-1.77H58.38a2,2,0,0,0-2,1.77,1.8,1.8,0,0,0,2,1.77h.76V52.82h-.76a2,2,0,0,0-2,1.77,1.8,1.8,0,0,0,2,1.77H69.75a2,2,0,0,0,2-1.77,1.8,1.8,0,0,0-2-1.77H69V28.05Z"/><path d="M6.57,62.42h68a1.73,1.73,0,0,0,1.77-1.77v-.76a1.73,1.73,0,0,0-1.77-1.77h-68A1.73,1.73,0,0,0,4.8,59.89v1c-.25.76.76,1.52,1.77,1.52Z"/><path d="M79.35,64.44H1.77A1.73,1.73,0,0,0,0,66.21v1.27a1.72,1.72,0,0,0,1.77,1.76H79.35a1.72,1.72,0,0,0,1.77-1.76V66a1.69,1.69,0,0,0-1.77-1.52Z"/></g></g></svg>